<svg xmlns="http://www.w3.org/2000/svg" xmlns:xlink="http://www.w3.org/1999/xlink" width="192" zoomAndPan="magnify" viewBox="0 0 144 143.999998" height="192" preserveAspectRatio="xMidYMid meet" version="1.0"><defs><clipPath id="id1"><path d="M 31 26 L 112 26 L 112 132.414062 L 31 132.414062 Z M 31 26 " clip-rule="nonzero"/></clipPath><clipPath id="id2"><path d="M 6.101562 68 L 26 68 L 26 72 L 6.101562 72 Z M 6.101562 68 " clip-rule="nonzero"/></clipPath><clipPath id="id3"><path d="M 118 68 L 137.710938 68 L 137.710938 72 L 118 72 Z M 118 68 " clip-rule="nonzero"/></clipPath><clipPath id="id4"><path d="M 70 1.179688 L 74 1.179688 L 74 21 L 70 21 Z M 70 1.179688 " clip-rule="nonzero"/></clipPath><clipPath id="id5"><path d="M 38.800781 33.519531 L 102.335938 33.519531 L 102.335938 97.054688 L 38.800781 97.054688 Z M 38.800781 33.519531 " clip-rule="nonzero"/></clipPath><clipPath id="id6"><path d="M 47.53125 71 L 58 71 L 58 79 L 47.53125 79 Z M 47.53125 71 " clip-rule="nonzero"/></clipPath><clipPath id="id7"><path d="M 79 44.191406 L 96 44.191406 L 96 51 L 79 51 Z M 79 44.191406 " clip-rule="nonzero"/></clipPath><clipPath id="id8"><path d="M 47.53125 74 L 95 74 L 95 88 L 47.53125 88 Z M 47.53125 74 " clip-rule="nonzero"/></clipPath></defs><rect x="-14.4" width="172.8" fill="#ffffff" y="-14.4" height="172.799997" fill-opacity="1"/><rect x="-14.4" width="172.8" fill="#ffffff" y="-14.4" height="172.799997" fill-opacity="1"/><rect x="-14.4" width="172.8" fill="#ffffff" y="-14.4" height="172.799997" fill-opacity="1"/><path fill="#5648cc" d="M 66.277344 113.839844 C 65.617188 113.839844 65.015625 113.398438 64.839844 112.730469 C 64.8125 112.625 62.109375 102.421875 59.871094 93.710938 C 59.667969 92.910156 60.148438 92.101562 60.945312 91.894531 C 61.742188 91.6875 62.550781 92.171875 62.753906 92.96875 C 64.984375 101.667969 67.6875 111.859375 67.714844 111.960938 C 67.925781 112.757812 67.453125 113.574219 66.660156 113.785156 C 66.53125 113.820312 66.402344 113.839844 66.277344 113.839844 " fill-opacity="1" fill-rule="nonzero"/><path fill="#5648cc" d="M 76.84375 113.613281 C 76.71875 113.613281 76.59375 113.597656 76.472656 113.566406 C 75.675781 113.359375 75.195312 112.546875 75.398438 111.75 L 80.25 92.851562 C 80.453125 92.050781 81.265625 91.574219 82.058594 91.777344 C 82.855469 91.980469 83.335938 92.796875 83.128906 93.59375 L 78.28125 112.492188 C 78.109375 113.164062 77.507812 113.613281 76.84375 113.613281 " fill-opacity="1" fill-rule="nonzero"/><g clip-path="url(#id1)"><path fill="#5648cc" d="M 90.234375 99.3125 C 89.773438 99.578125 89.488281 100.070312 89.488281 100.605469 L 89.488281 110.953125 L 53.789062 110.953125 L 53.789062 100.605469 C 53.789062 100.070312 53.507812 99.578125 53.046875 99.3125 C 41.480469 92.640625 34.300781 80.203125 34.300781 66.855469 C 34.300781 46.214844 51.050781 29.417969 71.640625 29.417969 C 92.226562 29.417969 108.976562 46.214844 108.976562 66.855469 C 108.976562 80.207031 101.796875 92.644531 90.234375 99.3125 Z M 87.601562 129.300781 L 55.675781 129.300781 C 54.636719 129.300781 53.789062 128.453125 53.789062 127.410156 L 53.789062 113.9375 L 89.488281 113.9375 L 89.488281 127.410156 C 89.488281 128.453125 88.644531 129.300781 87.601562 129.300781 Z M 71.640625 26.4375 C 49.410156 26.4375 31.324219 44.570312 31.324219 66.855469 C 31.324219 80.980469 38.773438 94.15625 50.816406 101.457031 L 50.816406 112.445312 C 50.816406 112.476562 50.824219 112.503906 50.824219 112.539062 C 50.824219 112.566406 50.816406 112.597656 50.816406 112.632812 L 50.816406 127.410156 C 50.816406 130.097656 52.996094 132.28125 55.675781 132.28125 L 87.601562 132.28125 C 90.285156 132.28125 92.464844 130.097656 92.464844 127.410156 L 92.464844 112.53125 C 92.464844 112.515625 92.460938 112.503906 92.460938 112.488281 C 92.460938 112.472656 92.464844 112.457031 92.464844 112.445312 L 92.464844 101.457031 C 104.507812 94.15625 111.953125 80.980469 111.953125 66.855469 C 111.953125 44.570312 93.867188 26.4375 71.640625 26.4375 " fill-opacity="1" fill-rule="nonzero"/></g><g clip-path="url(#id2)"><path fill="#5648cc" d="M 23.671875 71.539062 L 7.589844 71.539062 C 6.769531 71.539062 6.101562 70.867188 6.101562 70.046875 C 6.101562 69.222656 6.769531 68.554688 7.589844 68.554688 L 23.671875 68.554688 C 24.496094 68.554688 25.160156 69.222656 25.160156 70.046875 C 25.160156 70.867188 24.496094 71.539062 23.671875 71.539062 " fill-opacity="1" fill-rule="nonzero"/></g><g clip-path="url(#id3)"><path fill="#5648cc" d="M 136.222656 71.929688 L 120.140625 71.929688 C 119.320312 71.929688 118.652344 71.261719 118.652344 70.4375 C 118.652344 69.613281 119.320312 68.945312 120.140625 68.945312 L 136.222656 68.945312 C 137.042969 68.945312 137.710938 69.613281 137.710938 70.4375 C 137.710938 71.261719 137.042969 71.929688 136.222656 71.929688 " fill-opacity="1" fill-rule="nonzero"/></g><path fill="#5648cc" d="M 116.636719 47.558594 C 116.109375 47.558594 115.59375 47.273438 115.324219 46.773438 C 114.9375 46.046875 115.207031 45.144531 115.929688 44.753906 L 130.085938 37.101562 C 130.808594 36.710938 131.710938 36.980469 132.101562 37.707031 C 132.492188 38.433594 132.222656 39.335938 131.5 39.730469 L 117.34375 47.382812 C 117.117188 47.503906 116.875 47.558594 116.636719 47.558594 " fill-opacity="1" fill-rule="nonzero"/><path fill="#5648cc" d="M 95.851562 26.601562 C 95.617188 26.601562 95.375 26.546875 95.152344 26.425781 C 94.429688 26.035156 94.152344 25.132812 94.542969 24.40625 L 102.144531 10.199219 C 102.53125 9.472656 103.433594 9.199219 104.15625 9.589844 C 104.882812 9.976562 105.152344 10.882812 104.765625 11.605469 L 97.164062 25.816406 C 96.894531 26.316406 96.382812 26.601562 95.851562 26.601562 " fill-opacity="1" fill-rule="nonzero"/><path fill="#5648cc" d="M 23.816406 46.082031 C 23.578125 46.082031 23.335938 46.023438 23.113281 45.902344 L 8.953125 38.257812 C 8.230469 37.863281 7.960938 36.960938 8.351562 36.234375 C 8.738281 35.507812 9.644531 35.238281 10.367188 35.628906 L 24.523438 43.28125 C 25.246094 43.667969 25.515625 44.574219 25.125 45.300781 C 24.855469 45.796875 24.34375 46.082031 23.816406 46.082031 " fill-opacity="1" fill-rule="nonzero"/><path fill="#5648cc" d="M 44.597656 25.128906 C 44.070312 25.128906 43.554688 24.84375 43.289062 24.34375 L 35.6875 10.132812 C 35.296875 9.40625 35.570312 8.503906 36.292969 8.113281 C 37.019531 7.726562 37.921875 7.996094 38.308594 8.722656 L 45.910156 22.933594 C 46.296875 23.65625 46.023438 24.566406 45.300781 24.953125 C 45.078125 25.074219 44.835938 25.128906 44.597656 25.128906 " fill-opacity="1" fill-rule="nonzero"/><g clip-path="url(#id4)"><path fill="#5648cc" d="M 71.832031 20.417969 C 71.828125 20.417969 71.828125 20.417969 71.824219 20.417969 C 71.003906 20.414062 70.339844 19.746094 70.34375 18.921875 L 70.386719 2.800781 C 70.390625 1.972656 71.039062 1.308594 71.878906 1.308594 C 72.703125 1.3125 73.363281 1.980469 73.363281 2.804688 L 73.316406 18.929688 C 73.316406 19.75 72.648438 20.417969 71.832031 20.417969 " fill-opacity="1" fill-rule="nonzero"/></g><path fill="#5648cc" d="M 59.351562 64.941406 C 59.351562 58.308594 64.734375 52.90625 71.355469 52.90625 C 77.972656 52.90625 83.355469 58.308594 83.355469 64.941406 C 83.355469 71.578125 77.972656 76.976562 71.355469 76.976562 C 64.734375 76.976562 59.351562 71.578125 59.351562 64.941406 Z M 91.242188 80.539062 L 85.125 77.648438 C 84.574219 77.386719 83.921875 77.488281 83.476562 77.90625 C 83.03125 78.328125 82.886719 78.976562 83.109375 79.542969 L 85.589844 85.851562 L 75.195312 89.964844 L 72.660156 83.527344 C 72.4375 82.960938 71.890625 82.585938 71.285156 82.585938 C 71.28125 82.585938 71.28125 82.585938 71.277344 82.585938 C 70.671875 82.585938 70.125 82.953125 69.898438 83.515625 L 67.316406 89.933594 L 56.949219 85.738281 L 59.15625 80.265625 C 59.382812 79.691406 59.242188 79.035156 58.789062 78.613281 C 58.339844 78.195312 57.675781 78.097656 57.121094 78.367188 L 51.679688 81.03125 L 46.773438 70.960938 L 55.878906 66.5 C 56.09375 66.398438 56.277344 66.242188 56.417969 66.054688 C 56.984375 73.816406 63.46875 79.957031 71.355469 79.957031 C 79.613281 79.957031 86.332031 73.222656 86.332031 64.941406 C 86.332031 56.660156 79.613281 49.925781 71.355469 49.925781 C 63.328125 49.925781 56.757812 56.285156 56.390625 64.238281 C 56.25 64.0625 56.070312 63.914062 55.859375 63.816406 L 46.695312 59.484375 L 51.460938 49.347656 L 57.578125 52.238281 C 58.128906 52.5 58.785156 52.394531 59.230469 51.976562 C 59.675781 51.558594 59.820312 50.910156 59.597656 50.34375 L 57.113281 44.035156 L 67.511719 39.921875 L 70.046875 46.359375 C 70.269531 46.925781 70.816406 47.300781 71.421875 47.300781 C 71.421875 47.300781 71.425781 47.300781 71.429688 47.300781 C 72.035156 47.300781 72.582031 46.933594 72.804688 46.371094 L 75.394531 39.953125 L 85.757812 44.148438 L 83.335938 50.160156 C 83.105469 50.730469 83.25 51.390625 83.703125 51.808594 C 84.152344 52.230469 84.816406 52.328125 85.367188 52.058594 L 91.027344 49.285156 L 95.933594 59.355469 L 87.277344 63.59375 C 86.765625 63.84375 86.441406 64.371094 86.445312 64.945312 C 86.449219 65.519531 86.777344 66.039062 87.296875 66.28125 L 96.011719 70.402344 Z M 98.625 68.339844 L 91.371094 64.910156 L 98.574219 61.378906 C 99.3125 61.015625 99.617188 60.125 99.257812 59.386719 L 93.046875 46.636719 C 92.875 46.28125 92.566406 46.011719 92.191406 45.878906 C 91.820312 45.753906 91.410156 45.777344 91.054688 45.949219 L 87.546875 47.667969 L 89.074219 43.882812 C 89.378906 43.117188 89.011719 42.25 88.25 41.941406 L 75.128906 36.628906 C 74.367188 36.320312 73.5 36.691406 73.191406 37.453125 L 71.445312 41.789062 L 69.730469 37.4375 C 69.429688 36.671875 68.566406 36.296875 67.800781 36.597656 L 54.636719 41.808594 C 54.269531 41.953125 53.976562 42.238281 53.816406 42.597656 C 53.664062 42.964844 53.65625 43.375 53.800781 43.742188 L 55.449219 47.933594 L 51.386719 46.011719 C 51.027344 45.84375 50.617188 45.824219 50.246094 45.957031 C 49.875 46.09375 49.570312 46.371094 49.40625 46.726562 L 43.367188 59.558594 C 43.019531 60.304688 43.339844 61.195312 44.078125 61.546875 L 51.785156 65.1875 L 44.132812 68.9375 C 43.390625 69.296875 43.085938 70.191406 43.449219 70.929688 L 49.660156 83.679688 C 50.019531 84.421875 50.910156 84.726562 51.648438 84.367188 L 54.941406 82.753906 L 53.632812 86.003906 C 53.484375 86.367188 53.488281 86.78125 53.644531 87.144531 C 53.796875 87.507812 54.089844 87.796875 54.453125 87.945312 L 67.578125 93.257812 C 67.945312 93.40625 68.351562 93.402344 68.714844 93.246094 C 69.082031 93.09375 69.367188 92.800781 69.515625 92.433594 L 71.261719 88.097656 L 72.972656 92.449219 C 73.207031 93.035156 73.765625 93.390625 74.359375 93.390625 C 74.539062 93.390625 74.722656 93.359375 74.90625 93.289062 L 88.066406 88.078125 C 88.832031 87.777344 89.207031 86.910156 88.90625 86.144531 L 87.253906 81.949219 L 91.320312 83.871094 C 91.679688 84.039062 92.085938 84.058594 92.460938 83.925781 C 92.828125 83.792969 93.132812 83.515625 93.300781 83.160156 L 99.335938 70.324219 C 99.683594 69.578125 99.367188 68.691406 98.625 68.339844 " fill-opacity="1" fill-rule="nonzero"/><g clip-path="url(#id5)"><path fill="#ffffff" d="M 70.566406 33.519531 C 53.023438 33.519531 38.800781 47.742188 38.800781 65.289062 C 38.800781 82.832031 53.023438 97.054688 70.566406 97.054688 C 88.113281 97.054688 102.335938 82.832031 102.335938 65.289062 C 102.335938 47.742188 88.113281 33.519531 70.566406 33.519531 " fill-opacity="1" fill-rule="nonzero"/></g><path stroke-linecap="round" transform="matrix(2.265919, 0, 0, 2.172939, 57.417456, 134.468065)" fill="none" stroke-linejoin="miter" d="M 0.500161 0.00031512 L 12.353796 0.00031512 " stroke="#5648cc" stroke-width="1" stroke-opacity="1" stroke-miterlimit="4"/><path stroke-linecap="round" transform="matrix(2.269759, 0, 0, 2.172939, 61.221768, 138.27824)" fill="none" stroke-linejoin="miter" d="M 0.499481 -0.000412569 L 8.999486 -0.000412569 " stroke="#5648cc" stroke-width="1" stroke-opacity="1" stroke-miterlimit="4"/><path stroke-linecap="round" transform="matrix(2.282275, 0, 0, 2.172939, 64.855229, 141.530398)" fill="none" stroke-linejoin="miter" d="M 0.499881 0.00039189 L 5.797158 0.00039189 " stroke="#5648cc" stroke-width="1" stroke-opacity="1" stroke-miterlimit="4"/><g clip-path="url(#id6)"><path fill="#f9acb2" d="M 57.210938 75.160156 C 57.210938 77.082031 55.078125 78.640625 52.449219 78.640625 C 49.820312 78.640625 47.691406 77.082031 47.691406 75.160156 C 47.691406 73.238281 49.820312 71.679688 52.449219 71.679688 C 55.078125 71.679688 57.210938 73.238281 57.210938 75.160156 " fill-opacity="1" fill-rule="nonzero"/></g><path fill="#f9acb2" d="M 93.863281 74.402344 C 93.863281 76.324219 91.730469 77.882812 89.101562 77.882812 C 86.472656 77.882812 84.339844 76.324219 84.339844 74.402344 C 84.339844 72.480469 86.472656 70.921875 89.101562 70.921875 C 91.730469 70.921875 93.863281 72.480469 93.863281 74.402344 " fill-opacity="1" fill-rule="nonzero"/><path fill="#5648cc" d="M 60.660156 67.976562 C 58.085938 69.792969 54.453125 70.011719 51.960938 67.976562 C 49.980469 66.355469 49.5 63.554688 50.347656 61.238281 C 51.410156 58.308594 55.070312 56.910156 57.933594 57.015625 C 58.019531 57.015625 58.089844 56.988281 58.164062 56.953125 C 59.960938 57 61.621094 57.617188 62.964844 59.578125 C 65.050781 62.617188 63.339844 66.097656 60.660156 67.976562 Z M 65.136719 60.820312 C 63.296875 54.882812 56.230469 54.320312 51.464844 57.703125 C 49.246094 59.597656 47.875 62.609375 48.695312 65.316406 C 50.148438 70.070312 54.730469 71.867188 59.265625 70.363281 C 63.066406 69.105469 66.417969 64.972656 65.136719 60.820312 " fill-opacity="1" fill-rule="nonzero"/><path fill="#ffffff" d="M 60.660156 67.976562 C 58.085938 69.792969 54.453125 70.011719 51.960938 67.976562 C 49.980469 66.355469 49.5 63.554688 50.347656 61.238281 C 51.410156 58.308594 55.070312 56.910156 57.933594 57.015625 C 58.019531 57.015625 58.089844 56.988281 58.164062 56.953125 C 59.960938 57 61.621094 57.617188 62.964844 59.578125 C 65.050781 62.617188 63.339844 66.097656 60.660156 67.976562 " fill-opacity="1" fill-rule="nonzero"/><path fill="#5648cc" d="M 89.105469 68.957031 C 86.226562 70.121094 82.660156 69.710938 80.761719 67.089844 C 79.265625 65.019531 79.367188 61.988281 80.671875 59.886719 C 81.523438 58.515625 82.835938 57.765625 84.261719 57.261719 C 87.617188 56.476562 91.488281 57.039062 93.335938 61.28125 C 94.855469 64.746094 92.152344 67.730469 89.105469 68.957031 Z M 95.023438 61.695312 C 93.320312 55.5625 86.101562 54.449219 81.355469 57.328125 C 78.984375 59.191406 77.84375 62.515625 78.617188 65.78125 C 79.71875 70.417969 84.699219 71.664062 88.773438 70.621094 C 92.613281 69.636719 96.191406 65.898438 95.023438 61.695312 " fill-opacity="1" fill-rule="nonzero"/><path fill="#ffffff" d="M 89.105469 68.957031 C 86.226562 70.121094 82.660156 69.710938 80.761719 67.089844 C 79.261719 65.019531 79.367188 61.988281 80.671875 59.886719 C 81.523438 58.515625 82.835938 57.765625 84.261719 57.261719 C 87.617188 56.476562 91.488281 57.039062 93.335938 61.28125 C 94.855469 64.746094 92.152344 67.730469 89.105469 68.957031 " fill-opacity="1" fill-rule="nonzero"/><path fill="#5648cc" d="M 63.011719 49.578125 C 62.414062 49.6875 61.753906 49.632812 61.144531 49.605469 C 60.191406 49.566406 59.242188 49.417969 58.296875 49.285156 C 55.777344 48.941406 53.152344 49.347656 50.59375 49.546875 C 54.71875 47.574219 59.222656 45.835938 63.671875 48.09375 C 64.578125 48.789062 63.75 49.582031 63.011719 49.578125 Z M 65.578125 48.214844 C 65.03125 46.144531 61.242188 45.886719 59.566406 45.6875 C 55.953125 45.257812 51.261719 46.910156 48.707031 49.4375 C 47.65625 50.480469 48.449219 51.027344 49.054688 51.011719 C 51.640625 50.925781 54.214844 50.601562 56.808594 50.582031 C 58.238281 50.570312 59.664062 50.882812 61.089844 50.980469 C 62.867188 51.109375 66.269531 50.847656 65.578125 48.214844 " fill-opacity="1" fill-rule="nonzero"/><path fill="#ffffff" d="M 63.011719 49.578125 C 62.414062 49.6875 61.753906 49.632812 61.144531 49.609375 C 60.191406 49.566406 59.242188 49.421875 58.296875 49.285156 C 55.777344 48.941406 53.152344 49.347656 50.59375 49.546875 C 54.71875 47.574219 59.222656 45.835938 63.671875 48.09375 C 64.578125 48.789062 63.75 49.582031 63.011719 49.578125 " fill-opacity="1" fill-rule="nonzero"/><g clip-path="url(#id7)"><path fill="#5648cc" d="M 86.289062 48.183594 C 85.460938 48.433594 84.636719 48.695312 83.78125 48.863281 C 83.230469 48.964844 82.644531 49.105469 82.070312 49.085938 C 81.398438 49.195312 80.429688 48.585938 81.066406 47.828125 C 84.515625 45.160156 89.085938 46.132812 93.378906 47.367188 C 90.992188 47.53125 88.496094 47.527344 86.289062 48.183594 Z M 95.066406 47.011719 C 92.0625 45.058594 87.347656 44.191406 84.167969 45.074219 C 82.691406 45.488281 79.304688 46.238281 79.367188 48.199219 C 79.4375 50.691406 82.613281 50.460938 84.199219 50.109375 C 85.472656 49.824219 86.6875 49.339844 87.992188 49.160156 C 90.363281 48.828125 92.792969 48.765625 95.175781 48.488281 C 95.730469 48.429688 96.304688 47.816406 95.066406 47.011719 " fill-opacity="1" fill-rule="nonzero"/></g><path fill="#ffffff" d="M 93.378906 47.367188 C 90.992188 47.53125 88.496094 47.527344 86.289062 48.183594 C 85.460938 48.433594 84.636719 48.695312 83.78125 48.863281 C 83.230469 48.964844 82.644531 49.105469 82.070312 49.085938 C 81.398438 49.195312 80.429688 48.585938 81.066406 47.828125 C 84.515625 45.160156 89.085938 46.132812 93.378906 47.367188 " fill-opacity="1" fill-rule="nonzero"/><path fill="#5648cc" d="M 61.503906 62.382812 C 61.128906 61.238281 60.535156 60.273438 58.773438 60.050781 C 58.257812 59.894531 55.347656 60.148438 55.132812 63.46875 C 55.003906 65.488281 56.933594 67.273438 58.953125 66.851562 C 60.890625 66.449219 62.109375 64.230469 61.503906 62.382812 " fill-opacity="1" fill-rule="nonzero"/><path fill="#5648cc" d="M 87.574219 62.382812 C 87.199219 61.238281 86.605469 60.273438 84.84375 60.050781 C 84.328125 59.894531 81.417969 60.148438 81.203125 63.46875 C 81.074219 65.488281 83.003906 67.273438 85.023438 66.855469 C 86.960938 66.449219 88.179688 64.230469 87.574219 62.382812 " fill-opacity="1" fill-rule="nonzero"/><path fill="#5648cc" d="M 72.972656 72.621094 C 72.300781 72.871094 70.21875 73.707031 69.957031 72.238281 C 69.78125 71.25 69.914062 70.199219 69.839844 69.199219 C 69.636719 66.464844 69.992188 63.71875 69.8125 60.980469 C 69.769531 60.367188 68.78125 60.324219 68.726562 60.945312 C 68.402344 64.777344 67.953125 69.128906 68.632812 72.9375 C 69.015625 75.070312 72.316406 74.832031 73.554688 73.6875 C 74.042969 73.238281 73.660156 72.363281 72.972656 72.621094 " fill-opacity="1" fill-rule="nonzero"/><g clip-path="url(#id8)"><path fill="#5648cc" d="M 94.757812 76.171875 C 93.8125 75.160156 92.074219 74.042969 90.644531 74.542969 C 90.128906 74.722656 90.21875 75.511719 90.75 75.589844 C 91.066406 75.636719 91.363281 75.710938 91.644531 75.804688 C 88.6875 79.054688 87.148438 81.328125 83.820312 83.328125 C 80.117188 85.550781 75.917969 86.332031 71.648438 86.371094 C 67.523438 86.414062 63.089844 85.609375 59.296875 84.003906 C 57.414062 83.207031 55.75 82.003906 54.210938 80.679688 C 52.722656 79.394531 51.796875 77.757812 50.699219 76.1875 C 50.960938 76.019531 51.210938 75.847656 51.449219 75.691406 C 52.195312 75.210938 51.378906 74.117188 50.632812 74.585938 C 49.804688 75.105469 49.070312 75.617188 48.113281 75.875 C 47.542969 76.027344 47.707031 76.871094 48.222656 76.960938 C 48.761719 77.054688 49.28125 76.921875 49.773438 76.699219 C 51.648438 80.136719 53.761719 82.585938 57.292969 84.660156 C 61.238281 86.972656 66.28125 87.671875 70.769531 87.863281 C 75.300781 88.0625 79.804688 87.183594 83.808594 85.023438 C 87.28125 83.15625 91.058594 80.03125 92.761719 76.347656 C 93.113281 76.5625 93.457031 76.804688 93.789062 77.097656 C 94.359375 77.59375 95.28125 76.734375 94.757812 76.171875 " fill-opacity="1" fill-rule="nonzero"/></g></svg>