<svg viewBox="64 136 160.412 49.267" xmlns="http://www.w3.org/2000/svg"><defs><clipPath id="a"><path d="M31.516 26.43h4.5v4.5h-4.5Zm0 0"/></clipPath><clipPath id="b"><path d="M20 8h27v34.047H20Zm0 0"/></clipPath><clipPath id="c"><path d="M12.797 21H19v2h-6.203Zm0 0"/></clipPath><clipPath id="d"><path d="M48 21h6.797v2H48Zm0 0"/></clipPath><clipPath id="e"><path d="M33 .047h2V7h-2Zm0 0"/></clipPath><clipPath id="f"><path d="M23.188 10.32h20.25v20.25h-20.25Zm0 0"/></clipPath><clipPath id="g"><path d="M32 10.285h3V13h-3Zm0 0"/></clipPath><clipPath id="h"><path d="M32 29h3v2.285h-3Zm0 0"/></clipPath><clipPath id="i"><path d="M32 28h3v3.285h-3Zm0 0"/></clipPath><clipPath id="j"><path d="M41 19h3.148v4H41Zm0 0"/></clipPath><clipPath id="k"><path d="M23.148 19H26v3h-2.852Zm0 0"/></clipPath><clipPath id="l"><path d="M23.148 19H26v4h-2.852Zm0 0"/></clipPath><clipPath id="m"><path d="M30 43h8v1.953h-8Zm0 0"/></clipPath><clipPath id="n"><path d="M31 44h5v.953h-5Zm0 0"/></clipPath><clipPath id="o"><path d="M28.43 15.82h10.5v10.5h-10.5Zm0 0"/></clipPath><clipPath id="p"><path d="M31.516 26.43h4.5v4.5h-4.5Zm0 0"/></clipPath><clipPath id="q"><path d="M20 8h27v34.047H20Zm0 0"/></clipPath><clipPath id="r"><path d="M12.797 21H19v2h-6.203Zm0 0"/></clipPath><clipPath id="s"><path d="M48 21h6.797v2H48Zm0 0"/></clipPath><clipPath id="t"><path d="M33 .047h2V7h-2Zm0 0"/></clipPath><clipPath id="u"><path d="M23.188 10.32h20.25v20.25h-20.25Zm0 0"/></clipPath><clipPath id="v"><path d="M32 10.285h3V13h-3Zm0 0"/></clipPath><clipPath id="w"><path d="M32 29h3v2.285h-3Zm0 0"/></clipPath><clipPath id="x"><path d="M32 28h3v3.285h-3Zm0 0"/></clipPath><clipPath id="y"><path d="M41 19h3.148v4H41Zm0 0"/></clipPath><clipPath id="z"><path d="M23.148 19H26v3h-2.852Zm0 0"/></clipPath><clipPath id="A"><path d="M23.148 19H26v4h-2.852Zm0 0"/></clipPath><clipPath id="B"><path d="M30 43h8v1.953h-8Zm0 0"/></clipPath><clipPath id="C"><path d="M31 44h5v.953h-5Zm0 0"/></clipPath><clipPath id="D"><path d="M28.43 15.82h10.5v10.5h-10.5Zm0 0"/></clipPath></defs><g clip-path="url(#a)" transform="translate(-122.18 -55.788)"><path fill="#fff" d="M31.516 26.43h4.5v4.5h-4.5v-4.5"/></g><path fill="#5648cc" d="M-90.18-19.683a.474.474 0 0 1-.457-.355c-.008-.032-.871-3.301-1.586-6.086a.478.478 0 0 1 .344-.582.473.473 0 0 1 .578.343c.71 2.785 1.574 6.047 1.582 6.078a.48.48 0 0 1-.461.602m3.375-.074a.636.636 0 0 1-.121-.012.478.478 0 0 1-.34-.582l1.547-6.05a.477.477 0 0 1 .578-.344.478.478 0 0 1 .34.582l-1.547 6.05a.47.47 0 0 1-.457.356"/><g clip-path="url(#b)" transform="translate(-122.18 -55.788)"><path fill="#5648cc" d="M39.648 31.457a.476.476 0 0 0-.238.414v3.313H28.016V31.87a.476.476 0 0 0-.239-.414 12.04 12.04 0 0 1-5.98-10.39c0-6.61 5.344-11.985 11.914-11.985 6.57 0 11.918 5.375 11.918 11.984a12.04 12.04 0 0 1-5.98 10.391Zm-.84 9.598h-10.19a.603.603 0 0 1-.602-.606v-4.312H39.41v4.312c0 .336-.27.606-.601.606ZM33.712 8.129c-7.094 0-12.863 5.805-12.863 12.937 0 4.52 2.375 8.739 6.218 11.075v3.52c0 .01.004.019.004.026 0 .012-.004.02-.004.032v4.73c0 .86.696 1.563 1.551 1.563H38.81a1.56 1.56 0 0 0 1.55-1.563v-4.761c0-.004-.004-.008-.004-.016 0-.004.004-.008.004-.012v-3.52a12.992 12.992 0 0 0 6.22-11.074c0-7.132-5.774-12.937-12.868-12.937"/></g><g clip-path="url(#c)" transform="translate(-122.18 -55.788)"><path fill="#5648cc" d="M18.406 22.566h-5.133a.48.48 0 0 1 0-.957h5.133c.262 0 .473.215.473.477 0 .266-.211.48-.473.48"/></g><g clip-path="url(#d)" transform="translate(-122.18 -55.788)"><path fill="#5648cc" d="M54.324 22.691h-5.133a.478.478 0 0 1 0-.957h5.133c.262 0 .473.215.473.48a.475.475 0 0 1-.473.477"/></g><path fill="#5648cc" d="M-74.11-40.898a.482.482 0 0 1-.418-.25.484.484 0 0 1 .196-.648l4.515-2.45a.475.475 0 0 1 .645.196c.125.23.039.52-.192.644l-4.52 2.45a.466.466 0 0 1-.226.058m-6.629-6.707a.48.48 0 0 1-.418-.707l2.426-4.547c.121-.23.41-.32.64-.195a.484.484 0 0 1 .196.648l-2.426 4.547a.478.478 0 0 1-.418.254m-22.991 6.235a.463.463 0 0 1-.223-.06l-4.52-2.448a.476.476 0 0 1-.191-.645.474.474 0 0 1 .644-.195l4.516 2.45c.23.124.316.413.195.648a.475.475 0 0 1-.422.25m6.633-6.708a.478.478 0 0 1-.418-.253l-2.426-4.547a.475.475 0 1 1 .836-.453l2.426 4.55a.476.476 0 0 1-.418.703"/><g clip-path="url(#e)" transform="translate(-122.18 -55.788)"><path fill="#5648cc" d="M33.773 6.203a.476.476 0 0 1-.472-.48l.011-5.16a.475.475 0 1 1 .95 0l-.012 5.164a.481.481 0 0 1-.477.476"/></g><path fill="#5648cc" d="M-92.39-35.335c0-2.125 1.718-3.852 3.831-3.852s3.832 1.727 3.832 3.852-1.719 3.851-3.832 3.851c-2.113 0-3.832-1.726-3.832-3.851Zm10.179 4.992-1.953-.926a.472.472 0 0 0-.528.086.483.483 0 0 0-.117.523l.793 2.02-3.316 1.316-.809-2.062a.476.476 0 0 0-.883-.004l-.824 2.055-3.309-1.344.704-1.75a.476.476 0 0 0-.648-.61l-1.735.856-1.567-3.227 2.907-1.425a.508.508 0 0 0 .171-.145c.18 2.488 2.25 4.453 4.766 4.453 2.637 0 4.781-2.156 4.781-4.808 0-2.649-2.144-4.805-4.78-4.805-2.563 0-4.657 2.035-4.774 4.582a.453.453 0 0 0-.172-.137l-2.922-1.386 1.52-3.247 1.953.926a.47.47 0 0 0 .527-.082.484.484 0 0 0 .117-.523l-.793-2.02 3.317-1.316.808 2.058c.07.184.246.301.442.305a.48.48 0 0 0 .44-.3l.825-2.055 3.309 1.343-.774 1.926a.475.475 0 0 0 .649.606l1.804-.887 1.567 3.223-2.762 1.359a.477.477 0 0 0 .008.86l2.777 1.32Zm2.355-3.902-2.316-1.098 2.3-1.133a.48.48 0 0 0 .22-.637l-1.985-4.082a.483.483 0 0 0-.27-.242.487.487 0 0 0-.363.024l-1.12.55.487-1.21a.482.482 0 0 0-.265-.626l-4.188-1.699a.474.474 0 0 0-.617.266l-.555 1.387-.547-1.395a.477.477 0 0 0-.617-.266l-4.199 1.664a.479.479 0 0 0-.27.621l.528 1.344-1.297-.617a.489.489 0 0 0-.363-.02.484.484 0 0 0-.27.25l-1.926 4.106a.478.478 0 0 0 .227.637l2.46 1.164-2.444 1.203a.478.478 0 0 0-.22.637l1.985 4.082a.475.475 0 0 0 .633.218l1.05-.515-.417 1.039a.497.497 0 0 0 .004.367.49.49 0 0 0 .261.254l4.188 1.703a.487.487 0 0 0 .363-.004.49.49 0 0 0 .254-.262l.559-1.386.543 1.39a.466.466 0 0 0 .617.27l4.2-1.668a.475.475 0 0 0 .269-.617l-.528-1.344 1.297.617a.477.477 0 0 0 .633-.23l1.926-4.11a.472.472 0 0 0-.227-.632"/><g clip-path="url(#f)" transform="translate(-122.18 -55.788)"><path fill="#fff" d="M33.313 10.32c-5.594 0-10.126 4.535-10.126 10.125A10.123 10.123 0 0 0 33.313 30.57c5.59 0 10.126-4.53 10.126-10.125 0-5.59-4.536-10.125-10.126-10.125"/></g><path fill="none" stroke-linejoin="round" d="M-88.532-43.264v16.624m-8.312-8.312h16.624" stroke="#224c8d" stroke-width=".415" stroke-miterlimit="10"/><path fill="#8b7eff" stroke-linejoin="round" d="m-94.411-29.073 11.757-11.757m-11.757 0 11.757 11.757" stroke="#224c8d" stroke-width=".415" stroke-miterlimit="10"/><path fill="#8b7eff" d="M-88.532-28.644a6.14 6.14 0 0 1-6.132-6.133 6.138 6.138 0 0 1 6.132-6.133 6.138 6.138 0 0 1 6.133 6.133 6.14 6.14 0 0 1-6.133 6.133"/><path fill="#5648cc" d="M-88.532-41.12a6.347 6.347 0 0 0-6.34 6.343 6.347 6.347 0 0 0 6.34 6.34 6.347 6.347 0 0 0 6.34-6.34c0-3.5-2.843-6.343-6.34-6.343Zm0 .417a5.925 5.925 0 1 1 0 11.848 5.924 5.924 0 1 1 0-11.848"/><g clip-path="url(#g)" transform="translate(-122.18 -55.788)"><path fill="#8b7eff" d="M32.633 11.508c0-.563.453-1.02 1.015-1.02a1.017 1.017 0 0 1 0 2.035 1.014 1.014 0 0 1-1.015-1.015"/><path fill="none" stroke-linejoin="round" d="M32.633 11.508c0-.563.453-1.02 1.015-1.02a1.017 1.017 0 0 1 0 2.035 1.014 1.014 0 0 1-1.015-1.015Zm0 0" stroke="#224c8d" stroke-width=".415" stroke-miterlimit="10"/></g><g clip-path="url(#h)" transform="translate(-122.18 -55.788)"><path fill="#8b7eff" d="M32.633 30.059c0-.563.453-1.016 1.015-1.016.563 0 1.016.453 1.016 1.016 0 .562-.453 1.015-1.016 1.015a1.014 1.014 0 0 1-1.015-1.015"/></g><g clip-path="url(#i)" transform="translate(-122.18 -55.788)"><path fill="none" stroke-linejoin="round" d="M32.633 30.059c0-.563.453-1.016 1.015-1.016.563 0 1.016.453 1.016 1.016 0 .562-.453 1.015-1.016 1.015a1.014 1.014 0 0 1-1.015-1.015Zm0 0" stroke="#224c8d" stroke-width=".415" stroke-miterlimit="10"/></g><path fill="#8b7eff" d="M-79.254-36.023a1.019 1.019 0 0 1 0 2.035 1.02 1.02 0 0 1-1.02-1.02 1.02 1.02 0 0 1 1.02-1.015"/><g clip-path="url(#j)" transform="translate(-122.18 -55.788)"><path fill="none" stroke-linejoin="round" d="M42.926 19.766a1.019 1.019 0 0 1 0 2.035 1.02 1.02 0 0 1-1.02-1.02 1.02 1.02 0 0 1 1.02-1.015Zm0 0" stroke="#224c8d" stroke-width=".415" stroke-miterlimit="10"/></g><g clip-path="url(#k)" transform="translate(-122.18 -55.788)"><path fill="#8b7eff" d="M24.371 19.766c.563 0 1.02.457 1.02 1.015a1.02 1.02 0 0 1-1.02 1.02 1.019 1.019 0 0 1 0-2.035"/></g><g clip-path="url(#l)" transform="translate(-122.18 -55.788)"><path fill="none" stroke-linejoin="round" d="M24.371 19.766c.563 0 1.02.457 1.02 1.015a1.02 1.02 0 0 1-1.02 1.02 1.019 1.019 0 0 1 0-2.035Zm0 0" stroke="#224c8d" stroke-width=".415" stroke-miterlimit="10"/></g><path fill="#8b7eff" d="M-82.692-42.285a1.02 1.02 0 0 1 1.438 0 1.014 1.014 0 0 1 0 1.438 1.014 1.014 0 0 1-1.438 0 1.014 1.014 0 0 1 0-1.438"/><path fill="none" stroke-linejoin="round" d="M-82.693-42.283a1.02 1.02 0 0 1 1.438 0 1.014 1.014 0 0 1 0 1.437 1.014 1.014 0 0 1-1.438 0 1.014 1.014 0 0 1 0-1.437Zm0 0" stroke="#224c8d" stroke-width=".415" stroke-miterlimit="10"/><path fill="#8b7eff" d="M-95.809-29.167a1.02 1.02 0 0 1 1.438 0 1.014 1.014 0 0 1 0 1.437 1.014 1.014 0 0 1-1.438 0 1.014 1.014 0 0 1 0-1.437"/><path fill="none" stroke-linejoin="round" d="M-95.81-29.167a1.02 1.02 0 0 1 1.438 0 1.014 1.014 0 0 1 0 1.438 1.014 1.014 0 0 1-1.437 0 1.014 1.014 0 0 1 0-1.438Zm0 0" stroke="#224c8d" stroke-width=".415" stroke-miterlimit="10"/><path fill="#8b7eff" d="M-95.809-40.847a1.014 1.014 0 0 1 0-1.438 1.02 1.02 0 0 1 1.438 0 1.014 1.014 0 0 1 0 1.438 1.014 1.014 0 0 1-1.438 0"/><path fill="none" stroke-linejoin="round" d="M-95.81-40.846a1.014 1.014 0 0 1 0-1.437 1.02 1.02 0 0 1 1.438 0 1.014 1.014 0 0 1 0 1.437 1.014 1.014 0 0 1-1.437 0Zm0 0" stroke="#224c8d" stroke-width=".415" stroke-miterlimit="10"/><path fill="#8b7eff" d="M-82.692-27.73a1.014 1.014 0 0 1 0-1.437 1.02 1.02 0 0 1 1.438 0 1.014 1.014 0 0 1 0 1.437 1.014 1.014 0 0 1-1.438 0"/><path fill="none" stroke-linejoin="round" d="M-82.693-27.73a1.014 1.014 0 0 1 0-1.437 1.02 1.02 0 0 1 1.438 0 1.014 1.014 0 0 1 0 1.438 1.014 1.014 0 0 1-1.438 0Zm0 0" stroke="#224c8d" stroke-width=".415" stroke-miterlimit="10"/><path fill="#8b7eff" d="M-88.532-30.07a4.691 4.691 0 0 1-4.687-4.687 4.69 4.69 0 0 1 4.687-4.684 4.693 4.693 0 0 1 4.688 4.684 4.694 4.694 0 0 1-4.688 4.687"/><path fill="#5648cc" d="M-88.532-39.648a4.899 4.899 0 0 0-4.894 4.89 4.9 4.9 0 0 0 4.894 4.895 4.9 4.9 0 0 0 4.895-4.894 4.899 4.899 0 0 0-4.895-4.89Zm0 .414a4.48 4.48 0 1 1-4.48 4.477 4.48 4.48 0 0 1 4.48-4.477"/><path fill="none" stroke-linejoin="round" d="M-86.26-34.756c0 2.476-1.019 4.48-2.272 4.48-1.254 0-2.274-2.004-2.274-4.48 0-2.473 1.02-4.477 2.274-4.477 1.253 0 2.273 2.004 2.273 4.477Zm0 0" stroke="#224c8d" stroke-width=".415" stroke-miterlimit="10"/><path fill="none" stroke-linejoin="round" d="M-88.532-32.483c-2.473 0-4.48-1.016-4.48-2.273 0-1.254 2.007-2.27 4.48-2.27 2.472 0 4.48 1.016 4.48 2.27 0 1.257-2.008 2.273-4.48 2.273Zm0-6.75v8.957m-4.481-4.48h8.96" stroke="#224c8d" stroke-width=".415" stroke-miterlimit="10"/><path transform="matrix(.29735 -.70149 .69053 .2927 -97.246 -35.78)" fill="none" d="m0 0 6.89.003" stroke="#184989"/><path transform="matrix(.29735 -.70149 .69053 .2927 -81.011 -29.09)" fill="none" d="M-.001 0h6.894" stroke="#184989"/><path transform="matrix(.70263 -.29465 .29004 .69165 -94.077 -42.048)" fill="none" d="M-.002.001h6.894" stroke="#184989"/><path transform="matrix(.70263 -.29465 .29004 .69165 -87.229 -25.526)" fill="none" d="m.003 0 6.889-.002" stroke="#184989"/><path transform="matrix(.6959 .31022 -.30537 .68502 -87.402 -44.05)" fill="none" d="m0 0 6.89-.002" stroke="#184989"/><path transform="matrix(.6959 .31022 -.30537 .68502 -94.212 -27.528)" fill="none" d="M0 0h6.894" stroke="#184989"/><path transform="matrix(.32041 .69126 -.68046 .3154 -81.42 -40.527)" fill="none" d="m0 .002 6.89-.004" stroke="#184989"/><path transform="matrix(.32041 .69126 -.68046 .3154 -97.807 -33.836)" fill="none" d="m0 .002 6.891-.004" stroke="#184989"/><path stroke-linecap="round" transform="matrix(.72911 0 0 .75 -93.078 -13.364)" fill="none" d="M.498.002h11.358" stroke="#5648cc"/><g clip-path="url(#m)" transform="translate(-122.18 -55.788)"><path stroke-linecap="round" transform="matrix(.73973 0 0 .75 30.31 43.635)" fill="none" d="M.5.003h8.132" stroke="#5648cc"/></g><g clip-path="url(#n)" transform="translate(-122.18 -55.788)"><path stroke-linecap="round" transform="matrix(.74419 0 0 .75 31.465 44.668)" fill="none" d="M.499 0h5.055" stroke="#5648cc"/></g><g clip-path="url(#o)" transform="translate(-122.18 -55.788)"><path fill="#8b7eff" d="M33.68 15.82a5.251 5.251 0 0 0-5.25 5.25 5.251 5.251 0 0 0 5.25 5.25 5.249 5.249 0 0 0 5.25-5.25 5.249 5.249 0 0 0-5.25-5.25"/></g><path d="m-91.336-32.255 1.125-4.625h.86l1.123 4.625h-.593l-.297-1.188h-1.313l-.296 1.188Zm1-1.656h1.125l-.547-2.314h-.031Zm2.717 1.656v-4.625h.594v2.25l1.28-2.25h.704l-1.36 2.281 1.486 2.344h-.688l-1.422-2.313v2.313Zm0 0" fill-opacity=".4"/><path d="m-91.629-32.548 1.125-4.625h.86l1.123 4.625h-.593l-.297-1.188h-1.313l-.296 1.188Zm1-1.656h1.125l-.547-2.314h-.031Zm2.718 1.656v-4.625h.594v2.25l1.28-2.25h.704l-1.36 2.281 1.486 2.344h-.688l-1.422-2.313v2.313Zm26.668 6.694 4-16.438h3.047l3.984 16.438h-2.11l-1.045-4.234h-4.705l-1.062 4.234Zm3.531-5.875h3.984l-1.953-8.219h-.093Zm9.509-5.875h1.75l.125.719h.11a3.12 3.12 0 0 1 1.109-.703c.438-.164.89-.25 1.36-.25 1.206 0 2.113.257 2.718.765.613.512.922 1.434.922 2.766v8.453h-2.11v-8.453c0-.77-.199-1.313-.593-1.625-.387-.32-.934-.485-1.64-.485a3.09 3.09 0 0 0-.891.141 2.828 2.828 0 0 0-.75.328v10.094h-2.111Zm14.202 11.984c-1.156 0-2.031-.27-2.625-.812-.594-.54-.89-1.52-.89-2.938 0-1.382.296-2.336.89-2.859.594-.52 1.469-.781 2.625-.781.625 0 1.406.078 2.344.234v-1.062c0-1-.211-1.676-.625-2.032-.406-.363-1.059-.546-1.953-.546h-2.344v-.938a9.678 9.678 0 0 1 1.36-.328 7.823 7.823 0 0 1 1.453-.156c1 0 1.8.117 2.406.343A2.447 2.447 0 0 1-30-36.307c.312.562.468 1.387.468 2.469v7.984h-1.767l-.125-.703h-.11a3.194 3.194 0 0 1-1.109.687 3.84 3.84 0 0 1-1.359.25Zm.703-1.406c.282 0 .578-.047.89-.14a2.82 2.82 0 0 0 .75-.329v-4.109h-1.64c-.656 0-1.172.168-1.547.5-.375.336-.562.914-.562 1.734 0 .875.187 1.485.562 1.829.375.343.891.515 1.547.515Zm6.928 1.172v-16.438h2.11v16.438Zm8.699 4.938a8.66 8.66 0 0 1-1.47-.141 9.678 9.678 0 0 1-1.359-.328v-.953h2.36c1.07 0 1.847-.29 2.328-.86.476-.562.719-1.57.719-3.015-.782.394-1.563.593-2.344.593-1.212 0-2.122-.254-2.734-.764-.606-.508-.907-1.426-.907-2.75v-8.469h2.11v8.469c0 .761.191 1.304.578 1.625.394.324.945.484 1.656.484.281 0 .578-.047.89-.14a2.82 2.82 0 0 0 .75-.329v-10.11h2.11v10.813c0 1.488-.164 2.656-.484 3.5-.313.843-.813 1.445-1.5 1.812-.68.375-1.579.563-2.704.563Zm11.389-4.704c-1.055 0-1.867-.285-2.438-.859-.574-.57-.859-1.613-.859-3.125v-6.234h-1.406v-1.516h1.406v-2.828h2.125v2.828h3.281v1.047a9.678 9.678 0 0 1-1.36.328 8.422 8.422 0 0 1-1.452.14h-.469v6.235c0 .95.16 1.617.484 2 .332.387.72.578 1.157.578h2.109v.938c-.305.124-.719.234-1.25.328-.531.093-.977.14-1.328.14Zm4.571-13.624v-2.579h2.11v2.578Zm0 13.39v-11.75h2.11v11.75Zm9.401.234c-1.092 0-1.975-.187-2.64-.562-.656-.375-1.148-1.004-1.469-1.89-.312-.884-.468-2.102-.468-3.657 0-1.55.156-2.766.468-3.64.313-.883.782-1.516 1.407-1.891.624-.383 1.445-.578 2.468-.578.438 0 .922.054 1.453.156.532.094.985.203 1.36.328v.938H7.925c-.625 0-1.133.136-1.516.406-.386.273-.683.75-.89 1.437-.2.68-.297 1.625-.297 2.844 0 1.242.101 2.203.312 2.89.207.68.52 1.153.938 1.422.414.262.976.391 1.687.391h2.344v.938a9.678 9.678 0 0 1-1.36.328 8.422 8.422 0 0 1-1.452.14Zm0 0" fill="#224c8d"/><g transform="translate(10.857 -25.854)" fill="#224c8d"/><path d="M18.369-25.854v-16.438h2.11v7.985l4.594-7.985h2.453l-4.813 8.094 5.282 8.344h-2.454l-5.062-8.219v8.219Zm11.507-13.39v-2.579h2.11v2.578Zm0 13.39v-11.75h2.11v11.75Zm8.934.234c-1.055 0-1.867-.285-2.438-.859-.574-.57-.859-1.613-.859-3.125v-6.234h-1.406v-1.516h1.406v-2.828h2.125v2.828h3.281v1.047a9.678 9.678 0 0 1-1.36.328 8.422 8.422 0 0 1-1.452.14h-.469v6.235c0 .95.16 1.617.484 2 .332.387.72.578 1.157.578h2.109v.938c-.305.124-.719.234-1.25.328-.531.093-.977.14-1.328.14Zm0 0" fill="#224c8d"/><g transform="translate(41.74 -25.854)" fill="#224c8d"/><g clip-path="url(#p)" transform="translate(57.773 138.819)"><path fill="#fff" d="M31.516 26.43h4.5v4.5h-4.5v-4.5"/></g><path fill="#5648cc" d="M89.773 174.924a.474.474 0 0 1-.457-.355c-.008-.031-.871-3.301-1.586-6.086a.478.478 0 0 1 .344-.582.473.473 0 0 1 .578.344c.711 2.785 1.574 6.046 1.582 6.078a.48.48 0 0 1-.46.601m3.374-.074a.636.636 0 0 1-.121-.012.478.478 0 0 1-.34-.582l1.547-6.05a.477.477 0 0 1 .578-.344.478.478 0 0 1 .34.582l-1.547 6.05a.47.47 0 0 1-.457.356"/><g clip-path="url(#q)" transform="translate(57.773 138.819)"><path fill="#5648cc" d="M39.648 31.457a.476.476 0 0 0-.238.414v3.313H28.016V31.87a.476.476 0 0 0-.239-.414 12.04 12.04 0 0 1-5.98-10.39c0-6.61 5.344-11.985 11.914-11.985 6.57 0 11.918 5.375 11.918 11.984a12.04 12.04 0 0 1-5.98 10.391Zm-.84 9.598h-10.19a.603.603 0 0 1-.602-.606v-4.312H39.41v4.312c0 .336-.27.606-.601.606ZM33.712 8.129c-7.094 0-12.863 5.805-12.863 12.937 0 4.52 2.375 8.739 6.218 11.075v3.52c0 .01.004.019.004.026 0 .012-.004.02-.004.032v4.73c0 .86.696 1.563 1.551 1.563H38.81a1.56 1.56 0 0 0 1.55-1.563v-4.761c0-.004-.004-.008-.004-.016 0-.004.004-.008.004-.012v-3.52a12.992 12.992 0 0 0 6.22-11.074c0-7.132-5.774-12.937-12.868-12.937"/></g><g clip-path="url(#r)" transform="translate(57.773 138.819)"><path fill="#5648cc" d="M18.406 22.566h-5.133a.48.48 0 0 1 0-.957h5.133c.262 0 .473.215.473.477 0 .266-.211.48-.473.48"/></g><g clip-path="url(#s)" transform="translate(57.773 138.819)"><path fill="#5648cc" d="M54.324 22.691h-5.133a.478.478 0 0 1 0-.957h5.133c.262 0 .473.215.473.48a.475.475 0 0 1-.473.477"/></g><path fill="#5648cc" d="M105.843 153.71a.482.482 0 0 1-.418-.25.484.484 0 0 1 .196-.649l4.515-2.45a.476.476 0 0 1 .645.196c.125.23.039.52-.191.645l-4.52 2.449a.466.466 0 0 1-.227.058m-6.628-6.707a.48.48 0 0 1-.418-.707l2.425-4.546a.473.473 0 0 1 .641-.196c.23.125.316.414.195.649l-2.426 4.547a.478.478 0 0 1-.417.253m-22.993 6.235a.463.463 0 0 1-.222-.059l-4.52-2.449a.476.476 0 0 1-.191-.645.474.474 0 0 1 .644-.195l4.516 2.45c.23.124.316.413.195.648a.475.475 0 0 1-.422.25m6.633-6.707a.478.478 0 0 1-.418-.254l-2.426-4.547a.475.475 0 1 1 .836-.453l2.426 4.55a.476.476 0 0 1-.418.704"/><g clip-path="url(#t)" transform="translate(57.773 138.819)"><path fill="#5648cc" d="M33.773 6.203a.476.476 0 0 1-.472-.48l.011-5.16a.475.475 0 1 1 .95 0l-.012 5.164a.481.481 0 0 1-.477.476"/></g><path fill="#5648cc" d="M87.562 159.272c0-2.125 1.719-3.852 3.832-3.852 2.113 0 3.832 1.727 3.832 3.852s-1.719 3.852-3.832 3.852c-2.113 0-3.832-1.727-3.832-3.852Zm10.18 4.992-1.953-.926a.472.472 0 0 0-.528.086.483.483 0 0 0-.117.524l.793 2.02-3.316 1.316-.809-2.063a.476.476 0 0 0-.883-.004l-.824 2.055-3.308-1.344.703-1.75a.476.476 0 0 0-.648-.61l-1.735.856-1.567-3.226 2.907-1.426a.508.508 0 0 0 .172-.145c.18 2.489 2.25 4.454 4.765 4.454 2.637 0 4.781-2.157 4.781-4.809 0-2.648-2.144-4.805-4.78-4.805-2.563 0-4.657 2.035-4.774 4.582a.453.453 0 0 0-.172-.136l-2.922-1.387 1.52-3.246 1.953.926c.175.085.382.05.527-.082a.484.484 0 0 0 .117-.524l-.793-2.02 3.317-1.316.808 2.059c.07.183.246.3.442.304a.48.48 0 0 0 .441-.3l.824-2.055 3.309 1.344-.774 1.925a.475.475 0 0 0 .649.606l1.805-.887 1.566 3.223-2.762 1.36a.477.477 0 0 0 .008.859l2.777 1.32Zm2.355-3.902-2.316-1.098 2.3-1.133a.48.48 0 0 0 .22-.636l-1.985-4.082a.483.483 0 0 0-.27-.243.487.487 0 0 0-.363.024l-1.12.55.487-1.21a.482.482 0 0 0-.265-.625l-4.188-1.7a.474.474 0 0 0-.617.266l-.555 1.387-.546-1.395a.477.477 0 0 0-.618-.265l-4.199 1.664a.479.479 0 0 0-.27.621l.528 1.344-1.297-.618a.489.489 0 0 0-.363-.02.484.484 0 0 0-.27.25l-1.925 4.106a.478.478 0 0 0 .226.637l2.461 1.164-2.445 1.203a.478.478 0 0 0-.219.637l1.984 4.082a.475.475 0 0 0 .633.219l1.05-.516-.417 1.04a.497.497 0 0 0 .004.366.49.49 0 0 0 .262.254l4.187 1.703a.487.487 0 0 0 .363-.004.49.49 0 0 0 .254-.261l.559-1.387.543 1.39a.466.466 0 0 0 .617.27l4.2-1.668a.475.475 0 0 0 .269-.617l-.528-1.344 1.297.617a.477.477 0 0 0 .633-.23l1.926-4.11a.472.472 0 0 0-.227-.632"/><g clip-path="url(#u)" transform="translate(57.773 138.819)"><path fill="#fff" d="M33.313 10.32c-5.594 0-10.126 4.535-10.126 10.125A10.123 10.123 0 0 0 33.313 30.57c5.59 0 10.126-4.53 10.126-10.125 0-5.59-4.536-10.125-10.126-10.125"/></g><path fill="none" stroke-linejoin="round" d="M91.42 151.344v16.624m-8.311-8.312h16.624" stroke="#224c8d" stroke-width=".415" stroke-miterlimit="10"/><path fill="#8b7eff" stroke-linejoin="round" d="M85.542 165.534 97.3 153.777m-11.758 0L97.3 165.534" stroke="#224c8d" stroke-width=".415" stroke-miterlimit="10"/><path fill="#8b7eff" d="M91.422 165.963a6.14 6.14 0 0 1-6.133-6.132 6.138 6.138 0 0 1 6.133-6.133 6.138 6.138 0 0 1 6.132 6.133 6.14 6.14 0 0 1-6.132 6.132"/><path fill="#5648cc" d="M91.422 153.487a6.347 6.347 0 0 0-6.34 6.344 6.347 6.347 0 0 0 6.34 6.34 6.347 6.347 0 0 0 6.34-6.34c0-3.5-2.844-6.344-6.34-6.344Zm0 .418a5.925 5.925 0 1 1 0 11.847 5.924 5.924 0 1 1 0-11.847"/><g clip-path="url(#v)" transform="translate(57.773 138.819)"><path fill="#8b7eff" d="M32.633 11.508c0-.563.453-1.02 1.015-1.02a1.017 1.017 0 0 1 0 2.035 1.014 1.014 0 0 1-1.015-1.015"/><path fill="none" stroke-linejoin="round" d="M32.633 11.508c0-.563.453-1.02 1.015-1.02a1.017 1.017 0 0 1 0 2.035 1.014 1.014 0 0 1-1.015-1.015Zm0 0" stroke="#224c8d" stroke-width=".415" stroke-miterlimit="10"/></g><g clip-path="url(#w)" transform="translate(57.773 138.819)"><path fill="#8b7eff" d="M32.633 30.059c0-.563.453-1.016 1.015-1.016.563 0 1.016.453 1.016 1.016 0 .562-.453 1.015-1.016 1.015a1.014 1.014 0 0 1-1.015-1.015"/></g><g clip-path="url(#x)" transform="translate(57.773 138.819)"><path fill="none" stroke-linejoin="round" d="M32.633 30.059c0-.563.453-1.016 1.015-1.016.563 0 1.016.453 1.016 1.016 0 .562-.453 1.015-1.016 1.015a1.014 1.014 0 0 1-1.015-1.015Zm0 0" stroke="#224c8d" stroke-width=".415" stroke-miterlimit="10"/></g><path fill="#8b7eff" d="M100.699 158.584a1.019 1.019 0 0 1 0 2.036 1.02 1.02 0 0 1-1.02-1.02 1.02 1.02 0 0 1 1.02-1.016"/><g clip-path="url(#y)" transform="translate(57.773 138.819)"><path fill="none" stroke-linejoin="round" d="M42.926 19.766a1.019 1.019 0 0 1 0 2.035 1.02 1.02 0 0 1-1.02-1.02 1.02 1.02 0 0 1 1.02-1.015Zm0 0" stroke="#224c8d" stroke-width=".415" stroke-miterlimit="10"/></g><g clip-path="url(#z)" transform="translate(57.773 138.819)"><path fill="#8b7eff" d="M24.371 19.766c.563 0 1.02.457 1.02 1.015a1.02 1.02 0 0 1-1.02 1.02 1.019 1.019 0 0 1 0-2.035"/></g><g clip-path="url(#A)" transform="translate(57.773 138.819)"><path fill="none" stroke-linejoin="round" d="M24.371 19.766c.563 0 1.02.457 1.02 1.015a1.02 1.02 0 0 1-1.02 1.02 1.019 1.019 0 0 1 0-2.035Zm0 0" stroke="#224c8d" stroke-width=".415" stroke-miterlimit="10"/></g><path fill="#8b7eff" d="M97.261 152.323a1.02 1.02 0 0 1 1.438 0 1.014 1.014 0 0 1 0 1.437 1.014 1.014 0 0 1-1.438 0 1.014 1.014 0 0 1 0-1.437"/><path fill="none" stroke-linejoin="round" d="M97.26 152.324a1.02 1.02 0 0 1 1.438 0 1.014 1.014 0 0 1 0 1.437 1.014 1.014 0 0 1-1.438 0 1.014 1.014 0 0 1 0-1.437Zm0 0" stroke="#224c8d" stroke-width=".415" stroke-miterlimit="10"/><path fill="#8b7eff" d="M84.144 165.44a1.02 1.02 0 0 1 1.438 0 1.014 1.014 0 0 1 0 1.437 1.014 1.014 0 0 1-1.438 0 1.014 1.014 0 0 1 0-1.437"/><path fill="none" stroke-linejoin="round" d="M84.144 165.44a1.02 1.02 0 0 1 1.437 0 1.014 1.014 0 0 1 0 1.438 1.014 1.014 0 0 1-1.437 0 1.014 1.014 0 0 1 0-1.438Zm0 0" stroke="#224c8d" stroke-width=".415" stroke-miterlimit="10"/><path fill="#8b7eff" d="M84.144 153.76a1.014 1.014 0 0 1 0-1.437 1.02 1.02 0 0 1 1.438 0 1.014 1.014 0 0 1 0 1.437 1.014 1.014 0 0 1-1.438 0"/><path fill="none" stroke-linejoin="round" d="M84.144 153.761a1.014 1.014 0 0 1 0-1.437 1.02 1.02 0 0 1 1.437 0 1.014 1.014 0 0 1 0 1.437 1.014 1.014 0 0 1-1.437 0Zm0 0" stroke="#224c8d" stroke-width=".415" stroke-miterlimit="10"/><path fill="#8b7eff" d="M97.261 166.877a1.014 1.014 0 0 1 0-1.437 1.02 1.02 0 0 1 1.438 0 1.014 1.014 0 0 1 0 1.437 1.014 1.014 0 0 1-1.438 0"/><path fill="none" stroke-linejoin="round" d="M97.26 166.878a1.014 1.014 0 0 1 0-1.438 1.02 1.02 0 0 1 1.438 0 1.014 1.014 0 0 1 0 1.438 1.014 1.014 0 0 1-1.438 0Zm0 0" stroke="#224c8d" stroke-width=".415" stroke-miterlimit="10"/><path fill="#8b7eff" d="M91.422 164.538a4.691 4.691 0 0 1-4.688-4.688 4.69 4.69 0 0 1 4.688-4.684 4.693 4.693 0 0 1 4.687 4.684 4.694 4.694 0 0 1-4.687 4.688"/><path fill="#5648cc" d="M91.422 154.96a4.899 4.899 0 0 0-4.895 4.89 4.9 4.9 0 0 0 4.895 4.895 4.9 4.9 0 0 0 4.894-4.895 4.899 4.899 0 0 0-4.894-4.89Zm0 .414a4.48 4.48 0 1 1-4.48 4.476 4.48 4.48 0 0 1 4.48-4.476"/><path fill="none" stroke-linejoin="round" d="M93.694 159.85c0 2.477-1.02 4.481-2.273 4.481-1.254 0-2.274-2.004-2.274-4.48 0-2.473 1.02-4.476 2.274-4.476s2.273 2.003 2.273 4.476Zm0 0" stroke="#224c8d" stroke-width=".415" stroke-miterlimit="10"/><path fill="none" stroke-linejoin="round" d="M91.42 162.124c-2.472 0-4.48-1.015-4.48-2.273 0-1.254 2.008-2.27 4.48-2.27 2.473 0 4.481 1.016 4.481 2.27 0 1.258-2.008 2.273-4.48 2.273Zm0-6.749v8.956m-4.48-4.481h8.961" stroke="#224c8d" stroke-width=".415" stroke-miterlimit="10"/><path transform="matrix(.29735 -.70149 .69053 .2927 82.707 158.827)" fill="none" d="m0 0 6.89.003" stroke="#184989"/><path transform="matrix(.29735 -.70149 .69053 .2927 98.942 165.518)" fill="none" d="M-.001 0h6.894" stroke="#184989"/><path transform="matrix(.70263 -.29465 .29004 .69165 85.876 152.56)" fill="none" d="M-.002.001h6.894" stroke="#184989"/><path transform="matrix(.70263 -.29465 .29004 .69165 92.725 169.082)" fill="none" d="m.003 0 6.889-.002" stroke="#184989"/><path transform="matrix(.6959 .31022 -.30537 .68502 92.551 150.558)" fill="none" d="m0 0 6.89-.002" stroke="#184989"/><path transform="matrix(.6959 .31022 -.30537 .68502 85.741 167.08)" fill="none" d="M0 0h6.894" stroke="#184989"/><path transform="matrix(.32041 .69126 -.68046 .3154 98.533 154.08)" fill="none" d="m0 .002 6.89-.004" stroke="#184989"/><path transform="matrix(.32041 .69126 -.68046 .3154 82.146 160.77)" fill="none" d="m0 .002 6.891-.004" stroke="#184989"/><path stroke-linecap="round" transform="matrix(.72911 0 0 .75 86.875 181.243)" fill="none" d="M.498.002h11.358" stroke="#5648cc"/><g clip-path="url(#B)" transform="translate(57.773 138.819)"><path stroke-linecap="round" transform="matrix(.73973 0 0 .75 30.31 43.635)" fill="none" d="M.5.003h8.132" stroke="#5648cc"/></g><g clip-path="url(#C)" transform="translate(57.773 138.819)"><path stroke-linecap="round" transform="matrix(.74419 0 0 .75 31.465 44.668)" fill="none" d="M.499 0h5.055" stroke="#5648cc"/></g><g clip-path="url(#D)" transform="translate(57.773 138.819)"><path fill="#8b7eff" d="M33.68 15.82a5.251 5.251 0 0 0-5.25 5.25 5.251 5.251 0 0 0 5.25 5.25 5.249 5.249 0 0 0 5.25-5.25 5.249 5.249 0 0 0-5.25-5.25"/></g><path d="m88.617 162.352 1.125-4.625h.86l1.123 4.625h-.593l-.297-1.188h-1.313l-.296 1.188Zm1-1.656h1.125l-.547-2.314h-.031Zm2.717 1.656v-4.625h.594v2.25l1.28-2.25h.704l-1.36 2.281 1.486 2.344h-.688l-1.422-2.313v2.313Zm0 0" fill-opacity=".4"/><path d="m88.324 162.059 1.125-4.625h.86l1.123 4.625h-.593l-.297-1.188h-1.313l-.296 1.188Zm1-1.656h1.125l-.547-2.314h-.031Zm2.718 1.656v-4.625h.594v2.25l1.28-2.25h.704l-1.36 2.281 1.486 2.344h-.688l-1.422-2.313v2.313Zm26.668 6.694 4-16.438h3.047l3.984 16.438h-2.11l-1.045-4.234h-4.705l-1.062 4.234Zm3.531-5.875h3.984l-1.953-8.219h-.093Zm9.509-5.875h1.75l.125.719h.11a3.12 3.12 0 0 1 1.109-.703c.438-.164.89-.25 1.36-.25 1.206 0 2.113.257 2.718.765.613.512.922 1.434.922 2.766v8.453h-2.11V160.3c0-.77-.199-1.313-.593-1.625-.387-.32-.934-.485-1.64-.485a3.09 3.09 0 0 0-.891.141 2.828 2.828 0 0 0-.75.328v10.094h-2.111Zm14.202 11.984c-1.156 0-2.031-.27-2.625-.812-.594-.54-.89-1.52-.89-2.938 0-1.382.296-2.336.89-2.859.594-.52 1.469-.781 2.625-.781.625 0 1.406.078 2.344.234v-1.062c0-1-.211-1.676-.625-2.032-.406-.363-1.059-.546-1.953-.546h-2.344v-.938a9.678 9.678 0 0 1 1.36-.328 7.823 7.823 0 0 1 1.453-.156c1 0 1.8.117 2.406.343a2.447 2.447 0 0 1 1.36 1.188c.312.562.468 1.387.468 2.469v7.984h-1.767l-.125-.703h-.11a3.194 3.194 0 0 1-1.109.687 3.84 3.84 0 0 1-1.359.25Zm.703-1.406c.282 0 .578-.047.89-.14a2.82 2.82 0 0 0 .75-.329v-4.109h-1.64c-.656 0-1.172.168-1.547.5-.375.336-.562.914-.562 1.734 0 .875.187 1.485.562 1.829.375.343.891.515 1.547.515Zm6.928 1.172v-16.438h2.11v16.438Zm8.699 4.938a8.66 8.66 0 0 1-1.47-.141 9.678 9.678 0 0 1-1.359-.328v-.953h2.36c1.07 0 1.847-.29 2.328-.86.476-.562.719-1.57.719-3.015-.782.394-1.563.593-2.344.593-1.212 0-2.122-.254-2.734-.764-.606-.508-.907-1.426-.907-2.75v-8.469h2.11v8.469c0 .761.191 1.304.578 1.625.394.324.945.484 1.656.484.281 0 .578-.047.89-.14a2.82 2.82 0 0 0 .75-.329v-10.11h2.11v10.813c0 1.488-.164 2.656-.484 3.5-.313.843-.813 1.445-1.5 1.812-.68.375-1.579.563-2.704.563Zm11.389-4.704c-1.055 0-1.867-.285-2.438-.859-.574-.57-.859-1.613-.859-3.125v-6.234h-1.406v-1.516h1.406v-2.828h2.125v2.828h3.281v1.047a9.678 9.678 0 0 1-1.36.328 8.422 8.422 0 0 1-1.452.14h-.469v6.235c0 .95.16 1.617.484 2 .332.387.72.578 1.157.578h2.109v.938c-.305.124-.719.234-1.25.328-.531.093-.977.14-1.328.14Zm4.571-13.624v-2.579h2.11v2.578Zm0 13.39v-11.75h2.11v11.75Zm9.401.234c-1.092 0-1.975-.187-2.64-.562-.656-.375-1.148-1.004-1.469-1.89-.312-.884-.468-2.102-.468-3.657 0-1.55.156-2.766.468-3.64.313-.883.782-1.516 1.407-1.891.624-.383 1.445-.578 2.468-.578.438 0 .922.054 1.453.156.532.094.985.203 1.36.328v.938h-2.344c-.625 0-1.133.136-1.516.406-.386.273-.683.75-.89 1.437-.2.68-.297 1.625-.297 2.844 0 1.242.101 2.203.312 2.89.207.68.52 1.153.938 1.422.414.262.976.391 1.687.391h2.344v.938a9.678 9.678 0 0 1-1.36.328 8.422 8.422 0 0 1-1.452.14Zm0 0" fill="#224c8d"/><g transform="translate(190.81 168.753)" fill="#224c8d"/><path d="M198.322 168.753v-16.438h2.11v7.985l4.594-7.985h2.453l-4.813 8.094 5.282 8.344h-2.454l-5.062-8.219v8.219Zm11.507-13.39v-2.579h2.11v2.578Zm0 13.39v-11.75h2.11v11.75Zm8.934.234c-1.055 0-1.867-.285-2.438-.859-.574-.57-.859-1.613-.859-3.125v-6.234h-1.406v-1.516h1.406v-2.828h2.125v2.828h3.281v1.047a9.678 9.678 0 0 1-1.36.328 8.422 8.422 0 0 1-1.452.14h-.469v6.235c0 .95.16 1.617.484 2 .332.387.72.578 1.157.578h2.109v.938c-.305.124-.719.234-1.25.328-.531.093-.977.14-1.328.14Zm0 0" fill="#224c8d"/><g transform="translate(221.693 168.753)" fill="#224c8d"/></svg>