<svg xmlns="http://www.w3.org/2000/svg" xmlns:xlink="http://www.w3.org/1999/xlink" width="40" zoomAndPan="magnify" viewBox="0 0 30 30.000001" height="40" preserveAspectRatio="xMidYMid meet" version="1.0"><defs><g/><clipPath id="id1"><path d="M 0.484375 0 L 29.515625 0 L 29.515625 29.03125 L 0.484375 29.03125 Z M 0.484375 0 " clip-rule="nonzero"/></clipPath><clipPath id="id2"><path d="M 12.222656 19.351562 L 17.375 19.351562 L 17.375 24.503906 L 12.222656 24.503906 Z M 12.222656 19.351562 " clip-rule="nonzero"/></clipPath><clipPath id="id3"><path d="M 10 22 L 14 22 L 14 25.097656 L 10 25.097656 Z M 10 22 " clip-rule="nonzero"/></clipPath><clipPath id="id4"><path d="M 16 22 L 19 22 L 19 25.097656 L 16 25.097656 Z M 16 22 " clip-rule="nonzero"/></clipPath><clipPath id="id5"><path d="M 2.429688 0.769531 L 26.761719 0.769531 L 26.761719 25.097656 L 2.429688 25.097656 Z M 2.429688 0.769531 " clip-rule="nonzero"/></clipPath><clipPath id="id6"><path d="M 2.742188 1.015625 L 25.683594 1.015625 L 25.683594 23.953125 L 2.742188 23.953125 Z M 2.742188 1.015625 " clip-rule="nonzero"/></clipPath><clipPath id="id7"><path d="M 13 0.972656 L 17 0.972656 L 17 4 L 13 4 Z M 13 0.972656 " clip-rule="nonzero"/></clipPath><clipPath id="id8"><path d="M 13 22 L 17 22 L 17 25.054688 L 13 25.054688 Z M 13 22 " clip-rule="nonzero"/></clipPath><clipPath id="id9"><path d="M 24 11 L 26.785156 11 L 26.785156 15 L 24 15 Z M 24 11 " clip-rule="nonzero"/></clipPath><clipPath id="id10"><path d="M 23 11 L 26.785156 11 L 26.785156 15 L 23 15 Z M 23 11 " clip-rule="nonzero"/></clipPath><clipPath id="id11"><path d="M 2.699219 11 L 6 11 L 6 15 L 2.699219 15 Z M 2.699219 11 " clip-rule="nonzero"/></clipPath><clipPath id="id12"><path d="M 8.714844 7.273438 L 20.777344 7.273438 L 20.777344 19.335938 L 8.714844 19.335938 Z M 8.714844 7.273438 " clip-rule="nonzero"/></clipPath><clipPath id="id13"><path d="M 0.484375 16 L 14 16 L 14 28 L 0.484375 28 Z M 0.484375 16 " clip-rule="nonzero"/></clipPath><clipPath id="id14"><path d="M -2.230469 25.347656 L -0.863281 16.371094 L 13.367188 18.539062 L 12 27.511719 Z M -2.230469 25.347656 " clip-rule="nonzero"/></clipPath><clipPath id="id15"><path d="M -2.230469 25.347656 L 2.09375 -3.070312 L 16.324219 -0.90625 L 12 27.511719 Z M -2.230469 25.347656 " clip-rule="nonzero"/></clipPath><clipPath id="id16"><path d="M 18 13 L 29.515625 13 L 29.515625 28 L 18 28 Z M 18 13 " clip-rule="nonzero"/></clipPath><clipPath id="id17"><path d="M 27.75 29.464844 L 18.296875 28.292969 L 20.152344 13.316406 L 29.605469 14.488281 Z M 27.75 29.464844 " clip-rule="nonzero"/></clipPath><clipPath id="id18"><path d="M 27.75 29.464844 L -2.195312 25.753906 L -0.34375 10.78125 L 29.605469 14.488281 Z M 27.75 29.464844 " clip-rule="nonzero"/></clipPath><clipPath id="id19"><path d="M 0.484375 0 L 13 0 L 13 12 L 0.484375 12 Z M 0.484375 0 " clip-rule="nonzero"/></clipPath><clipPath id="id20"><path d="M 3.363281 -4.417969 L 12.214844 -2.40625 L 9.027344 11.628906 L 0.175781 9.617188 Z M 3.363281 -4.417969 " clip-rule="nonzero"/></clipPath><clipPath id="id21"><path d="M 3.363281 -4.417969 L 31.394531 1.953125 L 28.207031 15.988281 L 0.175781 9.617188 Z M 3.363281 -4.417969 " clip-rule="nonzero"/></clipPath><clipPath id="id22"><path d="M 16 0 L 29.515625 0 L 29.515625 12 L 16 12 Z M 16 0 " clip-rule="nonzero"/></clipPath><clipPath id="id23"><path d="M 32.230469 2.253906 L 29.941406 11.039062 L 16.011719 7.414062 L 18.300781 -1.371094 Z M 32.230469 2.253906 " clip-rule="nonzero"/></clipPath><clipPath id="id24"><path d="M 32.230469 2.253906 L 24.988281 30.074219 L 11.058594 26.445312 L 18.300781 -1.371094 Z M 32.230469 2.253906 " clip-rule="nonzero"/></clipPath><clipPath id="id25"><path d="M 0.484375 11 L 29 11 L 29 29.03125 L 0.484375 29.03125 Z M 0.484375 11 " clip-rule="nonzero"/></clipPath><clipPath id="id26"><path d="M 0.484375 12 L 29.515625 12 L 29.515625 29.03125 L 0.484375 29.03125 Z M 0.484375 12 " clip-rule="nonzero"/></clipPath></defs><g clip-path="url(#id1)"><path fill="#ffffff" d="M 0.484375 0 L 29.515625 0 L 29.515625 36.289062 L 0.484375 36.289062 Z M 0.484375 0 " fill-opacity="1" fill-rule="nonzero"/><path fill="#ffffff" d="M 0.484375 0 L 29.515625 0 L 29.515625 29.03125 L 0.484375 29.03125 Z M 0.484375 0 " fill-opacity="1" fill-rule="nonzero"/><path fill="#ffffff" d="M 0.484375 0 L 29.515625 0 L 29.515625 29.03125 L 0.484375 29.03125 Z M 0.484375 0 " fill-opacity="1" fill-rule="nonzero"/></g><g clip-path="url(#id2)"><path fill="#ffffff" d="M 12.222656 19.351562 L 17.375 19.351562 L 17.375 24.503906 L 12.222656 24.503906 L 12.222656 19.351562 " fill-opacity="1" fill-rule="nonzero"/></g><g clip-path="url(#id3)"><path fill="#5648cc" d="M 12.71875 30.003906 C 12.480469 30.003906 12.261719 29.84375 12.195312 29.605469 C 12.1875 29.566406 11.207031 25.882812 10.398438 22.734375 C 10.324219 22.445312 10.496094 22.152344 10.785156 22.078125 C 11.074219 22.003906 11.367188 22.179688 11.441406 22.46875 C 12.25 25.609375 13.230469 29.289062 13.238281 29.328125 C 13.316406 29.613281 13.144531 29.910156 12.855469 29.984375 C 12.808594 30 12.761719 30.003906 12.71875 30.003906 " fill-opacity="1" fill-rule="nonzero"/></g><g clip-path="url(#id4)"><path fill="#5648cc" d="M 16.546875 29.921875 C 16.5 29.921875 16.457031 29.917969 16.410156 29.90625 C 16.121094 29.832031 15.949219 29.539062 16.023438 29.25 L 17.777344 22.425781 C 17.851562 22.136719 18.148438 21.964844 18.433594 22.039062 C 18.722656 22.109375 18.898438 22.40625 18.824219 22.695312 L 17.066406 29.519531 C 17.003906 29.761719 16.785156 29.921875 16.546875 29.921875 " fill-opacity="1" fill-rule="nonzero"/></g><g clip-path="url(#id5)"><path fill="#5648cc" d="M 21.398438 24.757812 C 21.230469 24.855469 21.125 25.03125 21.125 25.226562 L 21.125 28.960938 L 8.195312 28.960938 L 8.195312 25.226562 C 8.195312 25.03125 8.089844 24.855469 7.925781 24.757812 C 3.734375 22.347656 1.132812 17.855469 1.132812 13.039062 C 1.132812 5.582031 7.203125 -0.484375 14.660156 -0.484375 C 22.117188 -0.484375 28.1875 5.582031 28.1875 13.039062 C 28.1875 17.859375 25.585938 22.351562 21.398438 24.757812 Z M 20.441406 35.589844 L 8.878906 35.589844 C 8.5 35.589844 8.195312 35.28125 8.195312 34.90625 L 8.195312 30.039062 L 21.125 30.039062 L 21.125 34.90625 C 21.125 35.28125 20.820312 35.589844 20.441406 35.589844 Z M 14.660156 -1.558594 C 6.605469 -1.558594 0.0546875 4.988281 0.0546875 13.039062 C 0.0546875 18.136719 2.753906 22.894531 7.117188 25.53125 L 7.117188 29.5 C 7.117188 29.511719 7.117188 29.523438 7.121094 29.535156 C 7.117188 29.546875 7.117188 29.558594 7.117188 29.570312 L 7.117188 34.90625 C 7.117188 35.875 7.90625 36.664062 8.878906 36.664062 L 20.441406 36.664062 C 21.414062 36.664062 22.203125 35.875 22.203125 34.90625 L 22.203125 29.53125 C 22.203125 29.527344 22.203125 29.523438 22.203125 29.515625 C 22.203125 29.511719 22.203125 29.507812 22.203125 29.5 L 22.203125 25.53125 C 26.566406 22.898438 29.265625 18.136719 29.265625 13.039062 C 29.265625 4.988281 22.710938 -1.558594 14.660156 -1.558594 " fill-opacity="1" fill-rule="nonzero"/></g><path fill="#5648cc" d="M 10.207031 12.347656 C 10.207031 9.949219 12.160156 8 14.558594 8 C 16.953125 8 18.90625 9.949219 18.90625 12.347656 C 18.90625 14.742188 16.953125 16.691406 14.558594 16.691406 C 12.160156 16.691406 10.207031 14.742188 10.207031 12.347656 Z M 21.761719 17.980469 L 19.546875 16.933594 C 19.347656 16.839844 19.109375 16.878906 18.949219 17.027344 C 18.785156 17.179688 18.734375 17.414062 18.816406 17.621094 L 19.714844 19.898438 L 15.949219 21.382812 L 15.03125 19.058594 C 14.949219 18.851562 14.75 18.71875 14.53125 18.71875 C 14.53125 18.71875 14.53125 18.71875 14.527344 18.71875 C 14.308594 18.71875 14.113281 18.851562 14.03125 19.054688 L 13.09375 21.371094 L 9.339844 19.855469 L 10.136719 17.878906 C 10.21875 17.671875 10.167969 17.4375 10.003906 17.285156 C 9.84375 17.132812 9.601562 17.097656 9.402344 17.195312 L 7.429688 18.15625 L 5.652344 14.519531 L 8.949219 12.910156 C 9.027344 12.871094 9.09375 12.816406 9.144531 12.746094 C 9.351562 15.550781 11.699219 17.769531 14.558594 17.769531 C 17.546875 17.769531 19.980469 15.335938 19.980469 12.347656 C 19.980469 9.355469 17.546875 6.921875 14.558594 6.921875 C 11.648438 6.921875 9.269531 9.21875 9.136719 12.09375 C 9.085938 12.027344 9.019531 11.976562 8.945312 11.9375 L 5.625 10.375 L 7.351562 6.714844 L 9.566406 7.757812 C 9.765625 7.851562 10.003906 7.816406 10.164062 7.664062 C 10.324219 7.511719 10.378906 7.277344 10.296875 7.074219 L 9.398438 4.796875 L 13.164062 3.308594 L 14.082031 5.632812 C 14.164062 5.839844 14.363281 5.976562 14.582031 5.976562 C 14.804688 5.976562 15 5.84375 15.082031 5.640625 L 16.019531 3.320312 L 19.773438 4.835938 L 18.898438 7.007812 C 18.816406 7.214844 18.867188 7.453125 19.03125 7.601562 C 19.195312 7.753906 19.433594 7.792969 19.632812 7.691406 L 21.683594 6.691406 L 23.460938 10.328125 L 20.324219 11.859375 C 20.140625 11.949219 20.023438 12.140625 20.023438 12.347656 C 20.023438 12.554688 20.144531 12.742188 20.332031 12.832031 L 23.488281 14.316406 Z M 24.4375 13.574219 L 21.808594 12.335938 L 24.417969 11.058594 C 24.683594 10.929688 24.796875 10.605469 24.664062 10.339844 L 22.414062 5.734375 C 22.351562 5.605469 22.242188 5.507812 22.105469 5.460938 C 21.972656 5.414062 21.824219 5.425781 21.695312 5.488281 L 20.421875 6.109375 L 20.976562 4.742188 C 21.085938 4.464844 20.953125 4.152344 20.679688 4.039062 L 15.925781 2.121094 C 15.648438 2.007812 15.332031 2.144531 15.222656 2.417969 L 14.589844 3.984375 L 13.96875 2.414062 C 13.859375 2.136719 13.546875 2 13.269531 2.109375 L 8.5 3.992188 C 8.367188 4.042969 8.261719 4.148438 8.203125 4.277344 C 8.148438 4.410156 8.144531 4.558594 8.199219 4.691406 L 8.796875 6.203125 L 7.324219 5.511719 C 7.191406 5.449219 7.042969 5.441406 6.910156 5.488281 C 6.777344 5.539062 6.664062 5.640625 6.605469 5.769531 L 4.417969 10.402344 C 4.292969 10.671875 4.40625 10.992188 4.675781 11.121094 L 7.46875 12.433594 L 4.695312 13.789062 C 4.425781 13.917969 4.316406 14.242188 4.449219 14.507812 L 6.699219 19.113281 C 6.828125 19.378906 7.152344 19.492188 7.417969 19.359375 L 8.613281 18.777344 L 8.136719 19.953125 C 8.082031 20.082031 8.085938 20.234375 8.140625 20.363281 C 8.195312 20.496094 8.300781 20.601562 8.433594 20.652344 L 13.1875 22.570312 C 13.320312 22.625 13.46875 22.625 13.601562 22.566406 C 13.734375 22.511719 13.835938 22.40625 13.890625 22.273438 L 14.523438 20.707031 L 15.144531 22.28125 C 15.226562 22.492188 15.429688 22.621094 15.644531 22.621094 C 15.710938 22.621094 15.777344 22.609375 15.84375 22.582031 L 20.609375 20.703125 C 20.886719 20.59375 21.023438 20.277344 20.914062 20.003906 L 20.316406 18.488281 L 21.789062 19.183594 C 21.917969 19.242188 22.066406 19.25 22.203125 19.203125 C 22.335938 19.152344 22.445312 19.054688 22.507812 18.925781 L 24.695312 14.289062 C 24.820312 14.019531 24.703125 13.699219 24.4375 13.574219 " fill-opacity="1" fill-rule="nonzero"/><g clip-path="url(#id6)"><path fill="#ffffff" d="M 14.214844 1.015625 C 7.878906 1.015625 2.742188 6.152344 2.742188 12.484375 C 2.742188 18.820312 7.878906 23.953125 14.214844 23.953125 C 20.546875 23.953125 25.683594 18.820312 25.683594 12.484375 C 25.683594 6.152344 20.546875 1.015625 14.214844 1.015625 " fill-opacity="1" fill-rule="nonzero"/></g><path stroke-linecap="butt" transform="matrix(0.00951945, 0, 0, -0.00951945, -5.496154, 33.528829)" fill="none" stroke-linejoin="round" d="M 2125.997957 3150.365966 L 2125.997957 1147.067161 " stroke="#224c8d" stroke-width="50" stroke-opacity="1" stroke-miterlimit="10"/><path stroke-linecap="butt" transform="matrix(0.00951945, 0, 0, -0.00951945, -5.496154, 33.528829)" fill="none" stroke-linejoin="round" d="M 1124.348554 2148.716564 L 3127.647359 2148.716564 " stroke="#224c8d" stroke-width="50" stroke-opacity="1" stroke-miterlimit="10"/><path stroke-linecap="butt" transform="matrix(0.00951945, 0, 0, -0.00951945, -5.496154, 33.528829)" fill-opacity="1" fill="#8b7eff" fill-rule="nonzero" stroke-linejoin="round" d="M 1417.744426 1440.463033 L 2834.251488 2856.970095 " stroke="#224c8d" stroke-width="50" stroke-opacity="1" stroke-miterlimit="10"/><path stroke-linecap="butt" transform="matrix(0.00951945, 0, 0, -0.00951945, -5.496154, 33.528829)" fill-opacity="1" fill="#8b7eff" fill-rule="nonzero" stroke-linejoin="round" d="M 1417.744426 2856.970095 L 2834.251488 1440.463033 " stroke="#224c8d" stroke-width="50" stroke-opacity="1" stroke-miterlimit="10"/><path fill="#8b7eff" d="M 14.742188 20.308594 C 10.863281 20.308594 7.707031 17.152344 7.707031 13.273438 C 7.707031 9.394531 10.863281 6.242188 14.742188 6.242188 C 18.621094 6.242188 21.773438 9.394531 21.773438 13.273438 C 21.773438 17.152344 18.621094 20.308594 14.742188 20.308594 " fill-opacity="1" fill-rule="nonzero"/><path fill="#5648cc" d="M 14.742188 6.003906 C 10.734375 6.003906 7.46875 9.265625 7.46875 13.273438 C 7.46875 17.28125 10.734375 20.546875 14.742188 20.546875 C 18.75 20.546875 22.011719 17.28125 22.011719 13.273438 C 22.011719 9.265625 18.75 6.003906 14.742188 6.003906 Z M 14.742188 6.476562 C 18.496094 6.476562 21.539062 9.519531 21.539062 13.273438 C 21.539062 17.027344 18.496094 20.070312 14.742188 20.070312 C 10.988281 20.070312 7.945312 17.027344 7.945312 13.273438 C 7.945312 9.519531 10.988281 6.476562 14.742188 6.476562 " fill-opacity="1" fill-rule="nonzero"/><path fill="#8b7eff" d="M 13.574219 2.375 C 13.574219 1.730469 14.097656 1.207031 14.742188 1.207031 C 15.386719 1.207031 15.910156 1.730469 15.910156 2.375 C 15.910156 3.019531 15.386719 3.539062 14.742188 3.539062 C 14.097656 3.539062 13.574219 3.019531 13.574219 2.375 " fill-opacity="1" fill-rule="nonzero"/><g clip-path="url(#id7)"><path stroke-linecap="butt" transform="matrix(0.00951945, 0, 0, -0.00951945, -5.496154, 33.528829)" fill="none" stroke-linejoin="round" d="M 2003.305138 3272.648442 C 2003.305138 3340.355181 2058.291217 3395.341261 2125.997957 3395.341261 C 2193.704697 3395.341261 2248.690776 3340.355181 2248.690776 3272.648442 C 2248.690776 3204.941702 2193.704697 3150.365966 2125.997957 3150.365966 C 2058.291217 3150.365966 2003.305138 3204.941702 2003.305138 3272.648442 Z M 2003.305138 3272.648442 " stroke="#224c8d" stroke-width="50" stroke-opacity="1" stroke-miterlimit="10"/></g><path fill="#8b7eff" d="M 13.574219 23.652344 C 13.574219 23.007812 14.097656 22.484375 14.742188 22.484375 C 15.386719 22.484375 15.910156 23.007812 15.910156 23.652344 C 15.910156 24.296875 15.386719 24.816406 14.742188 24.816406 C 14.097656 24.816406 13.574219 24.296875 13.574219 23.652344 " fill-opacity="1" fill-rule="nonzero"/><g clip-path="url(#id8)"><path stroke-linecap="butt" transform="matrix(0.00951945, 0, 0, -0.00951945, -5.496154, 33.528829)" fill="none" stroke-linejoin="round" d="M 2003.305138 1037.505346 C 2003.305138 1105.212086 2058.291217 1160.198165 2125.997957 1160.198165 C 2193.704697 1160.198165 2248.690776 1105.212086 2248.690776 1037.505346 C 2248.690776 970.208951 2193.704697 915.222871 2125.997957 915.222871 C 2058.291217 915.222871 2003.305138 970.208951 2003.305138 1037.505346 Z M 2003.305138 1037.505346 " stroke="#224c8d" stroke-width="50" stroke-opacity="1" stroke-miterlimit="10"/></g><g clip-path="url(#id9)"><path fill="#8b7eff" d="M 25.378906 11.847656 C 26.023438 11.847656 26.546875 12.367188 26.546875 13.011719 C 26.546875 13.65625 26.023438 14.179688 25.378906 14.179688 C 24.738281 14.179688 24.214844 13.65625 24.214844 13.011719 C 24.214844 12.367188 24.738281 11.847656 25.378906 11.847656 " fill-opacity="1" fill-rule="nonzero"/></g><g clip-path="url(#id10)"><path stroke-linecap="butt" transform="matrix(0.00951945, 0, 0, -0.00951945, -5.496154, 33.528829)" fill="none" stroke-linejoin="round" d="M 3243.364333 2277.564541 C 3311.071072 2277.564541 3366.057152 2222.988806 3366.057152 2155.282066 C 3366.057152 2087.575326 3311.071072 2032.589247 3243.364333 2032.589247 C 3176.067937 2032.589247 3121.081857 2087.575326 3121.081857 2155.282066 C 3121.081857 2222.988806 3176.067937 2277.564541 3243.364333 2277.564541 Z M 3243.364333 2277.564541 " stroke="#224c8d" stroke-width="50" stroke-opacity="1" stroke-miterlimit="10"/></g><g clip-path="url(#id11)"><path fill="#8b7eff" d="M 4.105469 11.847656 C 4.746094 11.847656 5.269531 12.367188 5.269531 13.011719 C 5.269531 13.65625 4.746094 14.179688 4.105469 14.179688 C 3.460938 14.179688 2.9375 13.65625 2.9375 13.011719 C 2.9375 12.367188 3.460938 11.847656 4.105469 11.847656 " fill-opacity="1" fill-rule="nonzero"/><path stroke-linecap="butt" transform="matrix(0.00951945, 0, 0, -0.00951945, -5.496154, 33.528829)" fill="none" stroke-linejoin="round" d="M 1008.631581 2277.564541 C 1075.927977 2277.564541 1130.914056 2222.988806 1130.914056 2155.282066 C 1130.914056 2087.575326 1075.927977 2032.589247 1008.631581 2032.589247 C 940.924842 2032.589247 885.938762 2087.575326 885.938762 2155.282066 C 885.938762 2222.988806 940.924842 2277.564541 1008.631581 2277.564541 Z M 1008.631581 2277.564541 " stroke="#224c8d" stroke-width="50" stroke-opacity="1" stroke-miterlimit="10"/></g><path fill="#8b7eff" d="M 21.441406 4.664062 C 21.894531 4.210938 22.632812 4.210938 23.089844 4.664062 C 23.542969 5.121094 23.542969 5.859375 23.089844 6.316406 C 22.632812 6.769531 21.894531 6.769531 21.441406 6.316406 C 20.984375 5.859375 20.984375 5.121094 21.441406 4.664062 " fill-opacity="1" fill-rule="nonzero"/><path stroke-linecap="butt" transform="matrix(0.00951945, 0, 0, -0.00951945, -5.496154, 33.528829)" fill="none" stroke-linejoin="round" d="M 2829.737705 3032.18693 C 2877.337595 3079.78682 2954.892587 3079.78682 3002.902821 3032.18693 C 3050.502711 2984.176696 3050.502711 2906.621704 3002.902821 2858.61147 C 2954.892587 2811.011581 2877.337595 2811.011581 2829.737705 2858.61147 C 2781.727472 2906.621704 2781.727472 2984.176696 2829.737705 3032.18693 Z M 2829.737705 3032.18693 " stroke="#224c8d" stroke-width="50" stroke-opacity="1" stroke-miterlimit="10"/><path fill="#8b7eff" d="M 6.394531 19.710938 C 6.851562 19.253906 7.589844 19.253906 8.042969 19.710938 C 8.5 20.164062 8.5 20.902344 8.042969 21.359375 C 7.589844 21.816406 6.851562 21.816406 6.394531 21.359375 C 5.941406 20.902344 5.941406 20.164062 6.394531 19.710938 " fill-opacity="1" fill-rule="nonzero"/><path stroke-linecap="butt" transform="matrix(0.00951945, 0, 0, -0.00951945, -5.496154, 33.528829)" fill="none" stroke-linejoin="round" d="M 1249.093093 1451.542318 C 1297.103326 1499.552551 1374.658319 1499.552551 1422.258209 1451.542318 C 1470.268442 1403.942428 1470.268442 1326.387435 1422.258209 1278.377202 C 1374.658319 1230.366968 1297.103326 1230.366968 1249.093093 1278.377202 C 1201.493203 1326.387435 1201.493203 1403.942428 1249.093093 1451.542318 Z M 1249.093093 1451.542318 " stroke="#224c8d" stroke-width="50" stroke-opacity="1" stroke-miterlimit="10"/><path fill="#8b7eff" d="M 6.394531 6.316406 C 5.941406 5.859375 5.941406 5.121094 6.394531 4.664062 C 6.851562 4.210938 7.589844 4.210938 8.042969 4.664062 C 8.5 5.121094 8.5 5.859375 8.042969 6.316406 C 7.589844 6.769531 6.851562 6.769531 6.394531 6.316406 " fill-opacity="1" fill-rule="nonzero"/><path stroke-linecap="butt" transform="matrix(0.00951945, 0, 0, -0.00951945, -5.496154, 33.528829)" fill="none" stroke-linejoin="round" d="M 1249.093093 2858.61147 C 1201.493203 2906.621704 1201.493203 2984.176696 1249.093093 3032.18693 C 1297.103326 3079.78682 1374.658319 3079.78682 1422.258209 3032.18693 C 1470.268442 2984.176696 1470.268442 2906.621704 1422.258209 2858.61147 C 1374.658319 2811.011581 1297.103326 2811.011581 1249.093093 2858.61147 Z M 1249.093093 2858.61147 " stroke="#224c8d" stroke-width="50" stroke-opacity="1" stroke-miterlimit="10"/><path fill="#8b7eff" d="M 21.441406 21.359375 C 20.984375 20.902344 20.984375 20.164062 21.441406 19.710938 C 21.894531 19.253906 22.632812 19.253906 23.089844 19.710938 C 23.542969 20.164062 23.542969 20.902344 23.089844 21.359375 C 22.632812 21.816406 21.894531 21.816406 21.441406 21.359375 " fill-opacity="1" fill-rule="nonzero"/><path stroke-linecap="butt" transform="matrix(0.00951945, 0, 0, -0.00951945, -5.496154, 33.528829)" fill="none" stroke-linejoin="round" d="M 2829.737705 1278.377202 C 2781.727472 1326.387435 2781.727472 1403.942428 2829.737705 1451.542318 C 2877.337595 1499.552551 2954.892587 1499.552551 3002.902821 1451.542318 C 3050.502711 1403.942428 3050.502711 1326.387435 3002.902821 1278.377202 C 2954.892587 1230.366968 2877.337595 1230.366968 2829.737705 1278.377202 Z M 2829.737705 1278.377202 " stroke="#224c8d" stroke-width="50" stroke-opacity="1" stroke-miterlimit="10"/><path fill="#8b7eff" d="M 14.742188 18.675781 C 11.777344 18.675781 9.367188 16.265625 9.367188 13.300781 C 9.367188 10.335938 11.777344 7.925781 14.742188 7.925781 C 17.707031 7.925781 20.117188 10.335938 20.117188 13.300781 C 20.117188 16.265625 17.707031 18.675781 14.742188 18.675781 " fill-opacity="1" fill-rule="nonzero"/><path fill="#5648cc" d="M 14.742188 7.6875 C 11.648438 7.6875 9.128906 10.207031 9.128906 13.300781 C 9.128906 16.394531 11.648438 18.914062 14.742188 18.914062 C 17.835938 18.914062 20.355469 16.394531 20.355469 13.300781 C 20.355469 10.207031 17.835938 7.6875 14.742188 7.6875 Z M 14.742188 8.164062 C 17.578125 8.164062 19.878906 10.464844 19.878906 13.300781 C 19.878906 16.136719 17.578125 18.4375 14.742188 18.4375 C 11.90625 18.4375 9.605469 16.136719 9.605469 13.300781 C 9.605469 10.464844 11.90625 8.164062 14.742188 8.164062 " fill-opacity="1" fill-rule="nonzero"/><path stroke-linecap="butt" transform="matrix(0.00951945, 0, 0, -0.00951945, -5.496154, 33.528829)" fill="none" stroke-linejoin="round" d="M 2399.697323 2124.916619 C 2399.697323 1827.006965 2277.004503 1585.314421 2125.997957 1585.314421 C 1974.99141 1585.314421 1852.298591 1827.006965 1852.298591 2124.916619 C 1852.298591 2422.826273 1974.99141 2664.518817 2125.997957 2664.518817 C 2277.004503 2664.518817 2399.697323 2422.826273 2399.697323 2124.916619 Z M 2399.697323 2124.916619 " stroke="#224c8d" stroke-width="50" stroke-opacity="1" stroke-miterlimit="10"/><path stroke-linecap="butt" transform="matrix(0.00951945, 0, 0, -0.00951945, -5.496154, 33.528829)" fill="none" stroke-linejoin="round" d="M 2125.997957 1851.217253 C 1828.088303 1851.217253 1586.395759 1973.499729 1586.395759 2124.916619 C 1586.395759 2276.333509 1828.088303 2398.615985 2125.997957 2398.615985 C 2423.907611 2398.615985 2665.600155 2276.333509 2665.600155 2124.916619 C 2665.600155 1973.499729 2423.907611 1851.217253 2125.997957 1851.217253 Z M 2125.997957 1851.217253 " stroke="#224c8d" stroke-width="50" stroke-opacity="1" stroke-miterlimit="10"/><path stroke-linecap="butt" transform="matrix(0.00951945, 0, 0, -0.00951945, -5.496154, 33.528829)" fill="none" stroke-linejoin="round" d="M 2125.997957 2664.518817 L 2125.997957 1585.314421 " stroke="#224c8d" stroke-width="50" stroke-opacity="1" stroke-miterlimit="10"/><path stroke-linecap="butt" transform="matrix(0.00951945, 0, 0, -0.00951945, -5.496154, 33.528829)" fill="none" stroke-linejoin="round" d="M 1586.395759 2124.916619 L 2665.600155 2124.916619 " stroke="#224c8d" stroke-width="50" stroke-opacity="1" stroke-miterlimit="10"/><path stroke-linecap="butt" transform="matrix(0.159738, -0.376842, 0.387231, 0.164142, 4.490568, 11.943842)" fill="none" stroke-linejoin="miter" d="M -0.00176435 0.00491002 L 14.384569 0.00188898 " stroke="#184989" stroke-width="1" stroke-opacity="1" stroke-miterlimit="4"/><path stroke-linecap="butt" transform="matrix(0.159738, -0.376842, 0.387231, 0.164142, 22.970747, 19.560129)" fill="none" stroke-linejoin="miter" d="M 0.00527475 0.00275457 L 14.391608 -0.000266468 " stroke="#184989" stroke-width="1" stroke-opacity="1" stroke-miterlimit="4"/><path stroke-linecap="butt" transform="matrix(0.377455, -0.158286, 0.162649, 0.38786, 8.238084, 4.670065)" fill="none" stroke-linejoin="miter" d="M -0.00126462 0.00414943 L 14.384122 0.00327774 " stroke="#184989" stroke-width="1" stroke-opacity="1" stroke-miterlimit="4"/><path stroke-linecap="butt" transform="matrix(0.377455, -0.158286, 0.162649, 0.38786, 16.034096, 23.477441)" fill="none" stroke-linejoin="miter" d="M 0.00321828 -0.000952186 L 14.388605 -0.00182387 " stroke="#184989" stroke-width="1" stroke-opacity="1" stroke-miterlimit="4"/><path stroke-linecap="butt" transform="matrix(0.373837, 0.16665, -0.171244, 0.384143, 16.045285, 2.393705)" fill="none" stroke-linejoin="miter" d="M 0.00437084 0.000255092 L 14.393353 0.00158402 " stroke="#184989" stroke-width="1" stroke-opacity="1" stroke-miterlimit="4"/><path stroke-linecap="butt" transform="matrix(0.373837, 0.16665, -0.171244, 0.384143, 8.293956, 21.201083)" fill="none" stroke-linejoin="miter" d="M -0.00405838 -0.00309232 L 14.384923 -0.00176339 " stroke="#184989" stroke-width="1" stroke-opacity="1" stroke-miterlimit="4"/><path stroke-linecap="butt" transform="matrix(0.172127, 0.371347, -0.381584, 0.176872, 22.985708, 6.533032)" fill="none" stroke-linejoin="miter" d="M -0.00531901 0.0010938 L 14.38447 0.00188948 " stroke="#184989" stroke-width="1" stroke-opacity="1" stroke-miterlimit="4"/><path stroke-linecap="butt" transform="matrix(0.172127, 0.371347, -0.381584, 0.176872, 4.332266, 14.149319)" fill="none" stroke-linejoin="miter" d="M -0.00219412 -0.000375649 L 14.387595 0.000420031 " stroke="#184989" stroke-width="1" stroke-opacity="1" stroke-miterlimit="4"/><g clip-path="url(#id12)"><path fill="#8b7eff" d="M 14.746094 7.273438 C 11.414062 7.273438 8.714844 9.976562 8.714844 13.304688 C 8.714844 16.636719 11.414062 19.335938 14.746094 19.335938 C 18.074219 19.335938 20.777344 16.636719 20.777344 13.304688 C 20.777344 9.976562 18.074219 7.273438 14.746094 7.273438 " fill-opacity="1" fill-rule="nonzero"/></g><g clip-path="url(#id13)"><g clip-path="url(#id14)"><g clip-path="url(#id15)"><path fill="#ffffff" d="M 16.324219 -0.90625 L 16.089844 0.621094 C 9.089844 -0.445312 2.527344 4.378906 1.460938 11.371094 C 0.398438 18.363281 5.230469 24.917969 12.230469 25.984375 L 12 27.511719 C 4.152344 26.316406 -1.257812 18.972656 -0.0664062 11.136719 C 1.125 3.304688 8.476562 -2.101562 16.324219 -0.90625 Z M 16.324219 -0.90625 " fill-opacity="1" fill-rule="nonzero"/></g></g></g><g clip-path="url(#id16)"><g clip-path="url(#id17)"><g clip-path="url(#id18)"><path fill="#ffffff" d="M -0.339844 10.78125 L 1.269531 10.980469 C 0.355469 18.347656 5.609375 25.085938 12.976562 26 C 20.347656 26.910156 27.082031 21.660156 27.996094 14.289062 L 29.605469 14.488281 C 28.582031 22.746094 21.035156 28.632812 12.777344 27.609375 C 4.519531 26.585938 -1.363281 19.035156 -0.339844 10.78125 Z M -0.339844 10.78125 " fill-opacity="1" fill-rule="nonzero"/></g></g></g><g clip-path="url(#id19)"><g clip-path="url(#id20)"><g clip-path="url(#id21)"><path fill="#ffffff" d="M 28.207031 15.988281 L 26.699219 15.644531 C 28.269531 8.738281 23.933594 1.84375 17.035156 0.277344 C 10.140625 -1.292969 3.25 3.054688 1.683594 9.960938 L 0.175781 9.617188 C 1.933594 1.878906 9.652344 -2.988281 17.378906 -1.234375 C 25.109375 0.523438 29.964844 8.25 28.207031 15.988281 Z M 28.207031 15.988281 " fill-opacity="1" fill-rule="nonzero"/></g></g></g><g clip-path="url(#id22)"><g clip-path="url(#id23)"><g clip-path="url(#id24)"><path fill="#ffffff" d="M 11.058594 26.445312 L 11.449219 24.953125 C 18.300781 26.734375 25.328125 22.617188 27.109375 15.773438 C 28.894531 8.929688 24.765625 1.910156 17.910156 0.125 L 18.300781 -1.371094 C 25.980469 0.628906 30.605469 8.496094 28.609375 16.164062 C 26.613281 23.832031 18.738281 28.445312 11.058594 26.445312 Z M 11.058594 26.445312 " fill-opacity="1" fill-rule="nonzero"/></g></g></g><g fill="#000000" fill-opacity="0.4"><g transform="translate(11.317483, 16.053692)"><g><path d="M 0.15625 0 L 1.4375 -5.265625 L 2.40625 -5.265625 L 3.6875 0 L 3.015625 0 L 2.671875 -1.359375 L 1.171875 -1.359375 L 0.828125 0 Z M 1.28125 -1.875 L 2.5625 -1.875 L 1.9375 -4.515625 L 1.90625 -4.515625 Z M 1.28125 -1.875 "/></g></g></g><g fill="#000000" fill-opacity="0.4"><g transform="translate(15.157691, 16.053692)"><g><path d="M 0.53125 0 L 0.53125 -5.265625 L 1.203125 -5.265625 L 1.203125 -2.71875 L 2.671875 -5.265625 L 3.46875 -5.265625 L 1.921875 -2.671875 L 3.609375 0 L 2.828125 0 L 1.203125 -2.640625 L 1.203125 0 Z M 0.53125 0 "/></g></g></g><g fill="#224c8d" fill-opacity="1"><g transform="translate(10.98466, 15.720868)"><g><path d="M 0.15625 0 L 1.4375 -5.265625 L 2.40625 -5.265625 L 3.6875 0 L 3.015625 0 L 2.671875 -1.359375 L 1.171875 -1.359375 L 0.828125 0 Z M 1.28125 -1.875 L 2.5625 -1.875 L 1.9375 -4.515625 L 1.90625 -4.515625 Z M 1.28125 -1.875 "/></g></g></g><g fill="#224c8d" fill-opacity="1"><g transform="translate(14.824867, 15.720868)"><g><path d="M 0.53125 0 L 0.53125 -5.265625 L 1.203125 -5.265625 L 1.203125 -2.71875 L 2.671875 -5.265625 L 3.46875 -5.265625 L 1.921875 -2.671875 L 3.609375 0 L 2.828125 0 L 1.203125 -2.640625 L 1.203125 0 Z M 0.53125 0 "/></g></g></g><g clip-path="url(#id25)"><path stroke-linecap="butt" transform="matrix(1.163403, 1.881408, -1.89533, 1.172012, 10.387536, 23.580743)" fill="none" stroke-linejoin="miter" d="M 0.000301144 0.000615865 L 4.954735 -0.000238857 " stroke="#ffffff" stroke-width="1" stroke-opacity="1" stroke-miterlimit="4"/></g><g clip-path="url(#id26)"><path stroke-linecap="butt" transform="matrix(-1.57771, 1.092294, -1.105589, -1.596914, 19.28334, 23.430562)" fill="none" stroke-linejoin="miter" d="M -0.00103738 -0.000162227 L 5.498325 -0.000720775 " stroke="#ffffff" stroke-width="1" stroke-opacity="1" stroke-miterlimit="4"/></g></svg>