<svg xmlns="http://www.w3.org/2000/svg" xmlns:xlink="http://www.w3.org/1999/xlink" width="314" zoomAndPan="magnify" viewBox="0 0 235.5 44.999999" height="60" preserveAspectRatio="xMidYMid meet" version="1.0"><defs><g/><clipPath id="5ab24e09c0"><path d="M 0 0.046875 L 235 0.046875 L 235 44.953125 L 0 44.953125 Z M 0 0.046875 " clip-rule="nonzero"/></clipPath><clipPath id="253ec18cea"><path d="M 39.8125 26.429688 L 44.3125 26.429688 L 44.3125 30.929688 L 39.8125 30.929688 Z M 39.8125 26.429688 " clip-rule="nonzero"/></clipPath><clipPath id="cfec0ac147"><path d="M 29 8 L 55 8 L 55 42.046875 L 29 42.046875 Z M 29 8 " clip-rule="nonzero"/></clipPath><clipPath id="2cc30d7471"><path d="M 21.09375 21 L 28 21 L 28 23 L 21.09375 23 Z M 21.09375 21 " clip-rule="nonzero"/></clipPath><clipPath id="5d457b2bd2"><path d="M 57 21 L 63.09375 21 L 63.09375 23 L 57 23 Z M 57 21 " clip-rule="nonzero"/></clipPath><clipPath id="461f7704d7"><path d="M 21.09375 11 L 28 11 L 28 15 L 21.09375 15 Z M 21.09375 11 " clip-rule="nonzero"/></clipPath><clipPath id="5d0bde2090"><path d="M 41 0.046875 L 43 0.046875 L 43 7 L 41 7 Z M 41 0.046875 " clip-rule="nonzero"/></clipPath><clipPath id="4f0699e32f"><path d="M 31.484375 10.320312 L 51.734375 10.320312 L 51.734375 30.570312 L 31.484375 30.570312 Z M 31.484375 10.320312 " clip-rule="nonzero"/></clipPath><clipPath id="2d7924e2d0"><path d="M 40 10.285156 L 43 10.285156 L 43 13 L 40 13 Z M 40 10.285156 " clip-rule="nonzero"/></clipPath><clipPath id="d6e9a6ecb8"><path d="M 40 10.285156 L 44 10.285156 L 44 13 L 40 13 Z M 40 10.285156 " clip-rule="nonzero"/></clipPath><clipPath id="36d41e77f1"><path d="M 40 29 L 43 29 L 43 31.285156 L 40 31.285156 Z M 40 29 " clip-rule="nonzero"/></clipPath><clipPath id="f6a75faf11"><path d="M 40 28 L 44 28 L 44 31.285156 L 40 31.285156 Z M 40 28 " clip-rule="nonzero"/></clipPath><clipPath id="11a9f52a8b"><path d="M 50 19 L 52.445312 19 L 52.445312 22 L 50 22 Z M 50 19 " clip-rule="nonzero"/></clipPath><clipPath id="4a8c928efa"><path d="M 49 19 L 52.445312 19 L 52.445312 23 L 49 23 Z M 49 19 " clip-rule="nonzero"/></clipPath><clipPath id="4e536d8ab5"><path d="M 31.445312 19 L 34 19 L 34 22 L 31.445312 22 Z M 31.445312 19 " clip-rule="nonzero"/></clipPath><clipPath id="6026e0f556"><path d="M 31.445312 19 L 34 19 L 34 23 L 31.445312 23 Z M 31.445312 19 " clip-rule="nonzero"/></clipPath><clipPath id="7273ad37c7"><path d="M 38 43 L 46 43 L 46 44.953125 L 38 44.953125 Z M 38 43 " clip-rule="nonzero"/></clipPath><clipPath id="ad8c46a7ca"><path d="M 39 44 L 45 44 L 45 44.953125 L 39 44.953125 Z M 39 44 " clip-rule="nonzero"/></clipPath><clipPath id="a045578ec3"><path d="M 36.726562 15.820312 L 47.226562 15.820312 L 47.226562 26.320312 L 36.726562 26.320312 Z M 36.726562 15.820312 " clip-rule="nonzero"/></clipPath></defs><g clip-path="url(#5ab24e09c0)"><path fill="#ffffff" d="M 0 0.046875 L 235.5 0.046875 L 235.5 150.046875 L 0 150.046875 Z M 0 0.046875 " fill-opacity="1" fill-rule="nonzero"/><path fill="#ffffff" d="M 0 0.046875 L 235.5 0.046875 L 235.5 45.046875 L 0 45.046875 Z M 0 0.046875 " fill-opacity="1" fill-rule="nonzero"/><path fill="#ffffff" d="M 0 0.046875 L 235.5 0.046875 L 235.5 45.046875 L 0 45.046875 Z M 0 0.046875 " fill-opacity="1" fill-rule="nonzero"/></g><g clip-path="url(#253ec18cea)"><path fill="#ffffff" d="M 39.8125 26.429688 L 44.3125 26.429688 L 44.3125 30.929688 L 39.8125 30.929688 L 39.8125 26.429688 " fill-opacity="1" fill-rule="nonzero"/></g><path fill="#5648cc" d="M 40.296875 36.105469 C 40.089844 36.105469 39.898438 35.964844 39.839844 35.75 C 39.832031 35.71875 38.96875 32.449219 38.253906 29.664062 C 38.191406 29.40625 38.34375 29.148438 38.597656 29.082031 C 38.851562 29.015625 39.109375 29.167969 39.175781 29.425781 C 39.886719 32.210938 40.75 35.472656 40.757812 35.503906 C 40.824219 35.761719 40.675781 36.019531 40.421875 36.089844 C 40.378906 36.101562 40.339844 36.105469 40.296875 36.105469 " fill-opacity="1" fill-rule="nonzero"/><path fill="#5648cc" d="M 43.671875 36.03125 C 43.632812 36.03125 43.589844 36.027344 43.550781 36.019531 C 43.296875 35.953125 43.144531 35.691406 43.210938 35.4375 L 44.757812 29.386719 C 44.824219 29.132812 45.082031 28.980469 45.335938 29.042969 C 45.589844 29.109375 45.742188 29.371094 45.675781 29.625 L 44.128906 35.675781 C 44.074219 35.890625 43.882812 36.03125 43.671875 36.03125 " fill-opacity="1" fill-rule="nonzero"/><g clip-path="url(#cfec0ac147)"><path fill="#5648cc" d="M 47.945312 31.457031 C 47.796875 31.542969 47.707031 31.699219 47.707031 31.871094 L 47.707031 35.183594 L 36.3125 35.183594 L 36.3125 31.871094 C 36.3125 31.699219 36.222656 31.542969 36.078125 31.457031 C 32.386719 29.320312 30.09375 25.339844 30.09375 21.066406 C 30.09375 14.457031 35.441406 9.082031 42.011719 9.082031 C 48.582031 9.082031 53.925781 14.457031 53.925781 21.066406 C 53.925781 25.339844 51.632812 29.320312 47.945312 31.457031 Z M 47.105469 41.054688 L 36.917969 41.054688 C 36.585938 41.054688 36.3125 40.785156 36.3125 40.449219 L 36.3125 36.136719 L 47.707031 36.136719 L 47.707031 40.449219 C 47.707031 40.785156 47.4375 41.054688 47.105469 41.054688 Z M 42.011719 8.128906 C 34.917969 8.128906 29.144531 13.933594 29.144531 21.066406 C 29.144531 25.585938 31.519531 29.804688 35.363281 32.140625 L 35.363281 35.660156 C 35.363281 35.671875 35.367188 35.679688 35.367188 35.6875 C 35.367188 35.699219 35.363281 35.707031 35.363281 35.71875 L 35.363281 40.449219 C 35.363281 41.308594 36.0625 42.011719 36.917969 42.011719 L 47.105469 42.011719 C 47.960938 42.011719 48.65625 41.308594 48.65625 40.449219 L 48.65625 35.6875 C 48.65625 35.683594 48.65625 35.679688 48.65625 35.671875 C 48.65625 35.667969 48.65625 35.664062 48.65625 35.660156 L 48.65625 32.140625 C 52.5 29.804688 54.875 25.585938 54.875 21.066406 C 54.875 13.933594 49.105469 8.128906 42.011719 8.128906 " fill-opacity="1" fill-rule="nonzero"/></g><g clip-path="url(#2cc30d7471)"><path fill="#5648cc" d="M 26.703125 22.566406 L 21.570312 22.566406 C 21.308594 22.566406 21.097656 22.351562 21.097656 22.085938 C 21.097656 21.824219 21.308594 21.609375 21.570312 21.609375 L 26.703125 21.609375 C 26.964844 21.609375 27.175781 21.824219 27.175781 22.085938 C 27.175781 22.351562 26.964844 22.566406 26.703125 22.566406 " fill-opacity="1" fill-rule="nonzero"/></g><g clip-path="url(#5d457b2bd2)"><path fill="#5648cc" d="M 62.621094 22.691406 L 57.488281 22.691406 C 57.226562 22.691406 57.011719 22.476562 57.011719 22.214844 C 57.011719 21.949219 57.226562 21.734375 57.488281 21.734375 L 62.621094 21.734375 C 62.882812 21.734375 63.09375 21.949219 63.09375 22.214844 C 63.09375 22.476562 62.882812 22.691406 62.621094 22.691406 " fill-opacity="1" fill-rule="nonzero"/></g><path fill="#5648cc" d="M 56.371094 14.890625 C 56.203125 14.890625 56.039062 14.796875 55.953125 14.640625 C 55.828125 14.40625 55.914062 14.117188 56.144531 13.992188 L 60.660156 11.542969 C 60.890625 11.417969 61.179688 11.503906 61.304688 11.738281 C 61.429688 11.96875 61.34375 12.257812 61.113281 12.382812 L 56.59375 14.832031 C 56.523438 14.871094 56.445312 14.890625 56.371094 14.890625 " fill-opacity="1" fill-rule="nonzero"/><path fill="#5648cc" d="M 49.738281 8.183594 C 49.660156 8.183594 49.585938 8.164062 49.511719 8.125 C 49.28125 8 49.195312 7.710938 49.320312 7.476562 L 51.746094 2.929688 C 51.867188 2.699219 52.15625 2.609375 52.386719 2.734375 C 52.617188 2.859375 52.707031 3.148438 52.582031 3.382812 L 50.15625 7.929688 C 50.070312 8.089844 49.90625 8.183594 49.738281 8.183594 " fill-opacity="1" fill-rule="nonzero"/><g clip-path="url(#461f7704d7)"><path fill="#5648cc" d="M 26.75 14.417969 C 26.671875 14.417969 26.59375 14.398438 26.523438 14.359375 L 22.003906 11.910156 C 21.773438 11.785156 21.6875 11.496094 21.8125 11.265625 C 21.9375 11.03125 22.226562 10.945312 22.457031 11.070312 L 26.972656 13.519531 C 27.203125 13.644531 27.289062 13.933594 27.167969 14.167969 C 27.082031 14.328125 26.917969 14.417969 26.75 14.417969 " fill-opacity="1" fill-rule="nonzero"/></g><path fill="#5648cc" d="M 33.382812 7.710938 C 33.210938 7.710938 33.046875 7.617188 32.960938 7.457031 L 30.539062 2.910156 C 30.414062 2.675781 30.5 2.386719 30.730469 2.261719 C 30.960938 2.140625 31.25 2.226562 31.375 2.457031 L 33.800781 7.007812 C 33.921875 7.238281 33.835938 7.527344 33.605469 7.652344 C 33.535156 7.691406 33.457031 7.710938 33.382812 7.710938 " fill-opacity="1" fill-rule="nonzero"/><g clip-path="url(#5d0bde2090)"><path fill="#5648cc" d="M 42.070312 6.203125 C 41.808594 6.199219 41.597656 5.988281 41.597656 5.722656 L 41.609375 0.5625 C 41.613281 0.296875 41.820312 0.0859375 42.085938 0.0859375 C 42.347656 0.0859375 42.5625 0.300781 42.558594 0.5625 L 42.546875 5.726562 C 42.546875 5.988281 42.332031 6.203125 42.070312 6.203125 " fill-opacity="1" fill-rule="nonzero"/></g><path fill="#5648cc" d="M 38.089844 20.453125 C 38.089844 18.328125 39.808594 16.601562 41.917969 16.601562 C 44.03125 16.601562 45.75 18.328125 45.75 20.453125 C 45.75 22.578125 44.03125 24.304688 41.917969 24.304688 C 39.808594 24.304688 38.089844 22.578125 38.089844 20.453125 Z M 48.265625 25.445312 L 46.316406 24.519531 C 46.140625 24.4375 45.929688 24.46875 45.789062 24.605469 C 45.644531 24.738281 45.597656 24.945312 45.671875 25.128906 L 46.460938 27.148438 L 43.144531 28.464844 L 42.335938 26.402344 C 42.265625 26.222656 42.089844 26.101562 41.898438 26.101562 C 41.894531 26.101562 41.894531 26.101562 41.894531 26.101562 C 41.703125 26.101562 41.527344 26.21875 41.453125 26.398438 L 40.628906 28.453125 L 37.320312 27.109375 L 38.027344 25.359375 C 38.097656 25.175781 38.054688 24.964844 37.910156 24.832031 C 37.765625 24.695312 37.554688 24.664062 37.378906 24.75 L 35.640625 25.605469 L 34.074219 22.378906 L 36.980469 20.953125 C 37.050781 20.917969 37.109375 20.871094 37.152344 20.808594 C 37.335938 23.296875 39.402344 25.261719 41.917969 25.261719 C 44.554688 25.261719 46.699219 23.105469 46.699219 20.453125 C 46.699219 17.804688 44.554688 15.648438 41.917969 15.648438 C 39.359375 15.648438 37.261719 17.683594 37.144531 20.230469 C 37.101562 20.171875 37.042969 20.125 36.972656 20.09375 L 34.050781 18.707031 L 35.570312 15.460938 L 37.523438 16.386719 C 37.699219 16.472656 37.90625 16.4375 38.050781 16.304688 C 38.191406 16.171875 38.238281 15.960938 38.167969 15.78125 L 37.375 13.761719 L 40.691406 12.445312 L 41.5 14.503906 C 41.574219 14.6875 41.746094 14.804688 41.941406 14.808594 C 42.136719 14.808594 42.3125 14.6875 42.382812 14.507812 L 43.207031 12.453125 L 46.515625 13.796875 L 45.742188 15.722656 C 45.671875 15.90625 45.714844 16.117188 45.859375 16.25 C 46.003906 16.386719 46.214844 16.417969 46.390625 16.328125 L 48.195312 15.441406 L 49.761719 18.664062 L 47 20.023438 C 46.835938 20.101562 46.734375 20.273438 46.734375 20.453125 C 46.738281 20.636719 46.84375 20.804688 47.007812 20.882812 L 49.789062 22.203125 Z M 50.621094 21.542969 L 48.308594 20.445312 L 50.605469 19.3125 C 50.84375 19.199219 50.9375 18.910156 50.824219 18.675781 L 48.839844 14.59375 C 48.785156 14.480469 48.6875 14.394531 48.570312 14.351562 C 48.449219 14.3125 48.320312 14.320312 48.207031 14.375 L 47.085938 14.925781 L 47.574219 13.714844 C 47.671875 13.46875 47.554688 13.191406 47.3125 13.089844 L 43.125 11.390625 C 42.878906 11.292969 42.605469 11.410156 42.507812 11.65625 L 41.949219 13.042969 L 41.402344 11.648438 C 41.304688 11.40625 41.027344 11.285156 40.785156 11.382812 L 36.585938 13.046875 C 36.46875 13.09375 36.375 13.1875 36.324219 13.300781 C 36.273438 13.417969 36.269531 13.550781 36.316406 13.667969 L 36.84375 15.011719 L 35.546875 14.394531 C 35.433594 14.339844 35.300781 14.335938 35.183594 14.375 C 35.066406 14.421875 34.96875 14.507812 34.914062 14.625 L 32.988281 18.730469 C 32.878906 18.96875 32.980469 19.253906 33.214844 19.367188 L 35.675781 20.53125 L 33.230469 21.734375 C 32.996094 21.847656 32.898438 22.132812 33.015625 22.371094 L 34.996094 26.453125 C 35.109375 26.6875 35.394531 26.785156 35.632812 26.671875 L 36.683594 26.15625 L 36.265625 27.195312 C 36.21875 27.3125 36.21875 27.445312 36.265625 27.5625 C 36.316406 27.675781 36.410156 27.769531 36.527344 27.816406 L 40.714844 29.519531 C 40.832031 29.566406 40.960938 29.5625 41.078125 29.515625 C 41.195312 29.464844 41.285156 29.371094 41.332031 29.253906 L 41.890625 27.867188 L 42.4375 29.257812 C 42.511719 29.445312 42.6875 29.5625 42.878906 29.5625 C 42.9375 29.5625 42.996094 29.550781 43.050781 29.527344 L 47.253906 27.859375 C 47.496094 27.761719 47.617188 27.484375 47.519531 27.242188 L 46.992188 25.898438 L 48.292969 26.515625 C 48.40625 26.566406 48.535156 26.574219 48.65625 26.53125 C 48.773438 26.488281 48.871094 26.398438 48.921875 26.285156 L 50.847656 22.175781 C 50.960938 21.9375 50.859375 21.652344 50.621094 21.542969 " fill-opacity="1" fill-rule="nonzero"/><g clip-path="url(#4f0699e32f)"><path fill="#ffffff" d="M 41.609375 10.320312 C 36.015625 10.320312 31.484375 14.855469 31.484375 20.445312 C 31.484375 26.039062 36.015625 30.570312 41.609375 30.570312 C 47.199219 30.570312 51.734375 26.039062 51.734375 20.445312 C 51.734375 14.855469 47.199219 10.320312 41.609375 10.320312 " fill-opacity="1" fill-rule="nonzero"/></g><path stroke-linecap="butt" transform="matrix(0.0083004, 0, 0, -0.0083004, 24.299357, 38.671322)" fill="none" stroke-linejoin="round" d="M 2125.917514 3150.197545 L 2125.917514 1147.280848 " stroke="#224c8d" stroke-width="50" stroke-opacity="1" stroke-miterlimit="10"/><path stroke-linecap="butt" transform="matrix(0.0083004, 0, 0, -0.0083004, 24.299357, 38.671322)" fill="none" stroke-linejoin="round" d="M 1124.459166 2148.739196 L 3127.375862 2148.739196 " stroke="#224c8d" stroke-width="50" stroke-opacity="1" stroke-miterlimit="10"/><path stroke-linecap="butt" transform="matrix(0.0083004, 0, 0, -0.0083004, 24.299357, 38.671322)" fill-opacity="1" fill="#8b7eff" fill-rule="nonzero" stroke-linejoin="round" d="M 1417.649274 1440.470957 L 2834.185753 2857.007436 " stroke="#224c8d" stroke-width="50" stroke-opacity="1" stroke-miterlimit="10"/><path stroke-linecap="butt" transform="matrix(0.0083004, 0, 0, -0.0083004, 24.299357, 38.671322)" fill-opacity="1" fill="#8b7eff" fill-rule="nonzero" stroke-linejoin="round" d="M 1417.649274 2857.007436 L 2834.185753 1440.470957 " stroke="#224c8d" stroke-width="50" stroke-opacity="1" stroke-miterlimit="10"/><path fill="#8b7eff" d="M 41.945312 27.144531 C 38.5625 27.144531 35.8125 24.390625 35.8125 21.011719 C 35.8125 17.628906 38.5625 14.878906 41.945312 14.878906 C 45.328125 14.878906 48.078125 17.628906 48.078125 21.011719 C 48.078125 24.390625 45.328125 27.144531 41.945312 27.144531 " fill-opacity="1" fill-rule="nonzero"/><path fill="#5648cc" d="M 41.945312 14.667969 C 38.449219 14.667969 35.605469 17.511719 35.605469 21.011719 C 35.605469 24.507812 38.449219 27.351562 41.945312 27.351562 C 45.441406 27.351562 48.285156 24.507812 48.285156 21.011719 C 48.285156 17.511719 45.441406 14.667969 41.945312 14.667969 Z M 41.945312 15.085938 C 45.21875 15.085938 47.871094 17.738281 47.871094 21.011719 C 47.871094 24.28125 45.21875 26.933594 41.945312 26.933594 C 38.675781 26.933594 36.019531 24.28125 36.019531 21.011719 C 36.019531 17.738281 38.675781 15.085938 41.945312 15.085938 " fill-opacity="1" fill-rule="nonzero"/><g clip-path="url(#2d7924e2d0)"><path fill="#8b7eff" d="M 40.929688 11.507812 C 40.929688 10.945312 41.386719 10.488281 41.945312 10.488281 C 42.507812 10.488281 42.960938 10.945312 42.960938 11.507812 C 42.960938 12.070312 42.507812 12.523438 41.945312 12.523438 C 41.386719 12.523438 40.929688 12.070312 40.929688 11.507812 " fill-opacity="1" fill-rule="nonzero"/></g><g clip-path="url(#d6e9a6ecb8)"><path stroke-linecap="butt" transform="matrix(0.0083004, 0, 0, -0.0083004, 24.299357, 38.671322)" fill="none" stroke-linejoin="round" d="M 2003.558881 3272.556177 C 2003.558881 3340.324035 2058.620266 3395.38542 2125.917514 3395.38542 C 2193.685372 3395.38542 2248.276147 3340.324035 2248.276147 3272.556177 C 2248.276147 3204.788319 2193.685372 3150.197545 2125.917514 3150.197545 C 2058.620266 3150.197545 2003.558881 3204.788319 2003.558881 3272.556177 Z M 2003.558881 3272.556177 " stroke="#224c8d" stroke-width="50" stroke-opacity="1" stroke-miterlimit="10"/></g><g clip-path="url(#36d41e77f1)"><path fill="#8b7eff" d="M 40.929688 30.058594 C 40.929688 29.496094 41.386719 29.042969 41.945312 29.042969 C 42.507812 29.042969 42.960938 29.496094 42.960938 30.058594 C 42.960938 30.621094 42.507812 31.074219 41.945312 31.074219 C 41.386719 31.074219 40.929688 30.621094 40.929688 30.058594 " fill-opacity="1" fill-rule="nonzero"/></g><g clip-path="url(#f6a75faf11)"><path stroke-linecap="butt" transform="matrix(0.0083004, 0, 0, -0.0083004, 24.299357, 38.671322)" fill="none" stroke-linejoin="round" d="M 2003.558881 1037.628689 C 2003.558881 1105.396547 2058.620266 1159.987322 2125.917514 1159.987322 C 2193.685372 1159.987322 2248.276147 1105.396547 2248.276147 1037.628689 C 2248.276147 969.860831 2193.685372 915.270056 2125.917514 915.270056 C 2058.620266 915.270056 2003.558881 969.860831 2003.558881 1037.628689 Z M 2003.558881 1037.628689 " stroke="#224c8d" stroke-width="50" stroke-opacity="1" stroke-miterlimit="10"/></g><g clip-path="url(#11a9f52a8b)"><path fill="#8b7eff" d="M 51.222656 19.765625 C 51.78125 19.765625 52.238281 20.222656 52.238281 20.78125 C 52.238281 21.34375 51.78125 21.800781 51.222656 21.800781 C 50.660156 21.800781 50.203125 21.34375 50.203125 20.78125 C 50.203125 20.222656 50.660156 19.765625 51.222656 19.765625 " fill-opacity="1" fill-rule="nonzero"/></g><g clip-path="url(#4a8c928efa)"><path stroke-linecap="butt" transform="matrix(0.0083004, 0, 0, -0.0083004, 24.299357, 38.671322)" fill="none" stroke-linejoin="round" d="M 3243.616563 2277.686371 C 3310.913811 2277.686371 3365.975196 2222.624986 3365.975196 2155.327738 C 3365.975196 2087.55988 3310.913811 2032.498495 3243.616563 2032.498495 C 3175.848705 2032.498495 3120.78732 2087.55988 3120.78732 2155.327738 C 3120.78732 2222.624986 3175.848705 2277.686371 3243.616563 2277.686371 Z M 3243.616563 2277.686371 " stroke="#224c8d" stroke-width="50" stroke-opacity="1" stroke-miterlimit="10"/></g><g clip-path="url(#4e536d8ab5)"><path fill="#8b7eff" d="M 32.671875 19.765625 C 33.230469 19.765625 33.6875 20.222656 33.6875 20.78125 C 33.6875 21.34375 33.230469 21.800781 32.671875 21.800781 C 32.109375 21.800781 31.652344 21.34375 31.652344 20.78125 C 31.652344 20.222656 32.109375 19.765625 32.671875 19.765625 " fill-opacity="1" fill-rule="nonzero"/></g><g clip-path="url(#6026e0f556)"><path stroke-linecap="butt" transform="matrix(0.0083004, 0, 0, -0.0083004, 24.299357, 38.671322)" fill="none" stroke-linejoin="round" d="M 1008.689075 2277.686371 C 1075.986323 2277.686371 1131.047707 2222.624986 1131.047707 2155.327738 C 1131.047707 2087.55988 1075.986323 2032.498495 1008.689075 2032.498495 C 940.921216 2032.498495 885.859832 2087.55988 885.859832 2155.327738 C 885.859832 2222.624986 940.921216 2277.686371 1008.689075 2277.686371 Z M 1008.689075 2277.686371 " stroke="#224c8d" stroke-width="50" stroke-opacity="1" stroke-miterlimit="10"/></g><path fill="#8b7eff" d="M 47.785156 13.503906 C 48.183594 13.109375 48.828125 13.109375 49.222656 13.503906 C 49.621094 13.902344 49.621094 14.546875 49.222656 14.941406 C 48.828125 15.339844 48.183594 15.339844 47.785156 14.941406 C 47.386719 14.546875 47.386719 13.902344 47.785156 13.503906 " fill-opacity="1" fill-rule="nonzero"/><path stroke-linecap="butt" transform="matrix(0.0083004, 0, 0, -0.0083004, 24.299357, 38.671322)" fill="none" stroke-linejoin="round" d="M 2829.479652 3032.074403 C 2877.481885 3079.606026 2955.132556 3079.606026 3002.664179 3032.074403 C 3050.666411 2984.07217 3050.666411 2906.421499 3002.664179 2858.889877 C 2955.132556 2810.887644 2877.481885 2810.887644 2829.479652 2858.889877 C 2781.477419 2906.421499 2781.477419 2984.07217 2829.479652 3032.074403 Z M 2829.479652 3032.074403 " stroke="#224c8d" stroke-width="50" stroke-opacity="1" stroke-miterlimit="10"/><path fill="#8b7eff" d="M 34.667969 26.621094 C 35.066406 26.226562 35.710938 26.226562 36.105469 26.621094 C 36.503906 27.019531 36.503906 27.664062 36.105469 28.058594 C 35.710938 28.457031 35.066406 28.457031 34.667969 28.058594 C 34.269531 27.664062 34.269531 27.019531 34.667969 26.621094 " fill-opacity="1" fill-rule="nonzero"/><path stroke-linecap="butt" transform="matrix(0.0083004, 0, 0, -0.0083004, 24.299357, 38.671322)" fill="none" stroke-linejoin="round" d="M 1249.170849 1451.7656 C 1297.173082 1499.297222 1374.823753 1499.297222 1422.355375 1451.7656 C 1470.357608 1403.763367 1470.357608 1326.112696 1422.355375 1278.581073 C 1374.823753 1230.578841 1297.173082 1230.578841 1249.170849 1278.581073 C 1201.168616 1326.112696 1201.168616 1403.763367 1249.170849 1451.7656 Z M 1249.170849 1451.7656 " stroke="#224c8d" stroke-width="50" stroke-opacity="1" stroke-miterlimit="10"/><path fill="#8b7eff" d="M 34.667969 14.941406 C 34.269531 14.546875 34.269531 13.902344 34.667969 13.503906 C 35.066406 13.109375 35.710938 13.109375 36.105469 13.503906 C 36.503906 13.902344 36.503906 14.546875 36.105469 14.941406 C 35.710938 15.339844 35.066406 15.339844 34.667969 14.941406 " fill-opacity="1" fill-rule="nonzero"/><path stroke-linecap="butt" transform="matrix(0.0083004, 0, 0, -0.0083004, 24.299357, 38.671322)" fill="none" stroke-linejoin="round" d="M 1249.170849 2858.889877 C 1201.168616 2906.421499 1201.168616 2984.07217 1249.170849 3032.074403 C 1297.173082 3079.606026 1374.823753 3079.606026 1422.355375 3032.074403 C 1470.357608 2984.07217 1470.357608 2906.421499 1422.355375 2858.889877 C 1374.823753 2810.887644 1297.173082 2810.887644 1249.170849 2858.889877 Z M 1249.170849 2858.889877 " stroke="#224c8d" stroke-width="50" stroke-opacity="1" stroke-miterlimit="10"/><path fill="#8b7eff" d="M 47.785156 28.058594 C 47.386719 27.664062 47.386719 27.019531 47.785156 26.621094 C 48.183594 26.226562 48.828125 26.226562 49.222656 26.621094 C 49.621094 27.019531 49.621094 27.664062 49.222656 28.058594 C 48.828125 28.457031 48.183594 28.457031 47.785156 28.058594 " fill-opacity="1" fill-rule="nonzero"/><path stroke-linecap="butt" transform="matrix(0.0083004, 0, 0, -0.0083004, 24.299357, 38.671322)" fill="none" stroke-linejoin="round" d="M 2829.479652 1278.581073 C 2781.477419 1326.112696 2781.477419 1403.763367 2829.479652 1451.7656 C 2877.481885 1499.297222 2955.132556 1499.297222 3002.664179 1451.7656 C 3050.666411 1403.763367 3050.666411 1326.112696 3002.664179 1278.581073 C 2955.132556 1230.578841 2877.481885 1230.578841 2829.479652 1278.581073 Z M 2829.479652 1278.581073 " stroke="#224c8d" stroke-width="50" stroke-opacity="1" stroke-miterlimit="10"/><path fill="#8b7eff" d="M 41.945312 25.71875 C 39.363281 25.71875 37.257812 23.617188 37.257812 21.03125 C 37.257812 18.449219 39.363281 16.347656 41.945312 16.347656 C 44.53125 16.347656 46.632812 18.449219 46.632812 21.03125 C 46.632812 23.617188 44.53125 25.71875 41.945312 25.71875 " fill-opacity="1" fill-rule="nonzero"/><path fill="#5648cc" d="M 41.945312 16.140625 C 39.246094 16.140625 37.050781 18.335938 37.050781 21.03125 C 37.050781 23.730469 39.246094 25.925781 41.945312 25.925781 C 44.644531 25.925781 46.839844 23.730469 46.839844 21.03125 C 46.839844 18.335938 44.644531 16.140625 41.945312 16.140625 Z M 41.945312 16.554688 C 44.417969 16.554688 46.425781 18.558594 46.425781 21.03125 C 46.425781 23.507812 44.417969 25.511719 41.945312 25.511719 C 39.472656 25.511719 37.46875 23.507812 37.46875 21.03125 C 37.46875 18.558594 39.472656 16.554688 41.945312 16.554688 " fill-opacity="1" fill-rule="nonzero"/><path stroke-linecap="butt" transform="matrix(0.0083004, 0, 0, -0.0083004, 24.299357, 38.671322)" fill="none" stroke-linejoin="round" d="M 2399.812607 2125.20869 C 2399.812607 1826.84187 2276.983364 1585.418876 2125.917514 1585.418876 C 1974.851663 1585.418876 1852.02242 1826.84187 1852.02242 2125.20869 C 1852.02242 2423.1049 1974.851663 2664.527895 2125.917514 2664.527895 C 2276.983364 2664.527895 2399.812607 2423.1049 2399.812607 2125.20869 Z M 2399.812607 2125.20869 " stroke="#224c8d" stroke-width="50" stroke-opacity="1" stroke-miterlimit="10"/><path stroke-linecap="butt" transform="matrix(0.0083004, 0, 0, -0.0083004, 24.299357, 38.671322)" fill="none" stroke-linejoin="round" d="M 2125.917514 1851.313597 C 1828.021304 1851.313597 1586.598309 1973.67223 1586.598309 2125.20869 C 1586.598309 2276.274541 1828.021304 2398.633173 2125.917514 2398.633173 C 2423.813724 2398.633173 2665.707328 2276.274541 2665.707328 2125.20869 C 2665.707328 1973.67223 2423.813724 1851.313597 2125.917514 1851.313597 Z M 2125.917514 1851.313597 " stroke="#224c8d" stroke-width="50" stroke-opacity="1" stroke-miterlimit="10"/><path stroke-linecap="butt" transform="matrix(0.0083004, 0, 0, -0.0083004, 24.299357, 38.671322)" fill="none" stroke-linejoin="round" d="M 2125.917514 2664.527895 L 2125.917514 1585.418876 " stroke="#224c8d" stroke-width="50" stroke-opacity="1" stroke-miterlimit="10"/><path stroke-linecap="butt" transform="matrix(0.0083004, 0, 0, -0.0083004, 24.299357, 38.671322)" fill="none" stroke-linejoin="round" d="M 1586.598309 2125.20869 L 2665.707328 2125.20869 " stroke="#224c8d" stroke-width="50" stroke-opacity="1" stroke-miterlimit="10"/><path stroke-linecap="butt" transform="matrix(0.29735, -0.701486, 0.690525, 0.292704, 33.231684, 20.007859)" fill="none" stroke-linejoin="miter" d="M -0.000565844 -0.00151644 L 6.889024 0.00161682 " stroke="#184989" stroke-width="1" stroke-opacity="1" stroke-miterlimit="4"/><path stroke-linecap="butt" transform="matrix(0.29735, -0.701486, 0.690525, 0.292704, 49.466345, 26.698694)" fill="none" stroke-linejoin="miter" d="M -0.00140327 -0.00156987 L 6.892907 -0.000469278 " stroke="#184989" stroke-width="1" stroke-opacity="1" stroke-miterlimit="4"/><path stroke-linecap="butt" transform="matrix(0.702625, -0.294647, 0.290043, 0.691647, 36.400408, 13.740699)" fill="none" stroke-linejoin="miter" d="M 0.00158752 0.00282787 L 6.890658 0.000792316 " stroke="#184989" stroke-width="1" stroke-opacity="1" stroke-miterlimit="4"/><path stroke-linecap="butt" transform="matrix(0.702625, -0.294647, 0.290043, 0.691647, 43.249129, 30.262802)" fill="none" stroke-linejoin="miter" d="M 0.00160466 -0.000882685 L 6.890675 -0.00291824 " stroke="#184989" stroke-width="1" stroke-opacity="1" stroke-miterlimit="4"/><path stroke-linecap="butt" transform="matrix(0.695891, 0.310217, -0.305369, 0.685018, 43.075581, 11.738769)" fill="none" stroke-linejoin="miter" d="M -0.00189394 0.00014503 L 6.890365 -0.00186109 " stroke="#184989" stroke-width="1" stroke-opacity="1" stroke-miterlimit="4"/><path stroke-linecap="butt" transform="matrix(0.695891, 0.310217, -0.305369, 0.685018, 36.266111, 28.26087)" fill="none" stroke-linejoin="miter" d="M -0.00012869 0.00129699 L 6.892131 -0.000709136 " stroke="#184989" stroke-width="1" stroke-opacity="1" stroke-miterlimit="4"/><path stroke-linecap="butt" transform="matrix(0.320411, 0.691257, -0.680456, 0.315404, 49.057229, 15.261207)" fill="none" stroke-linejoin="miter" d="M 0.00136268 -0.00136417 L 6.889794 -0.00122227 " stroke="#184989" stroke-width="1" stroke-opacity="1" stroke-miterlimit="4"/><path stroke-linecap="butt" transform="matrix(0.320411, 0.691257, -0.680456, 0.315404, 32.670358, 21.952041)" fill="none" stroke-linejoin="miter" d="M 0.00212772 -0.00122794 L 6.890559 -0.00108604 " stroke="#184989" stroke-width="1" stroke-opacity="1" stroke-miterlimit="4"/><path stroke-linecap="round" transform="matrix(0.729114, 0, 0, 0.75, 37.399244, 42.42427)" fill="none" stroke-linejoin="miter" d="M 0.502501 0.00201491 L 11.85511 0.00201491 " stroke="#5648cc" stroke-width="1" stroke-opacity="1" stroke-miterlimit="4"/><g clip-path="url(#7273ad37c7)"><path stroke-linecap="round" transform="matrix(0.739726, 0, 0, 0.75, 38.607917, 43.634799)" fill="none" stroke-linejoin="miter" d="M 0.498354 0.00255954 L 8.630588 0.00255954 " stroke="#5648cc" stroke-width="1" stroke-opacity="1" stroke-miterlimit="4"/></g><g clip-path="url(#ad8c46a7ca)"><path stroke-linecap="round" transform="matrix(0.744186, 0, 0, 0.75, 39.762305, 44.668052)" fill="none" stroke-linejoin="miter" d="M 0.49787 -0.000110611 L 5.55268 -0.000110611 " stroke="#5648cc" stroke-width="1" stroke-opacity="1" stroke-miterlimit="4"/></g><g clip-path="url(#a045578ec3)"><path fill="#8b7eff" d="M 41.976562 15.820312 C 39.078125 15.820312 36.726562 18.171875 36.726562 21.070312 C 36.726562 23.96875 39.078125 26.320312 41.976562 26.320312 C 44.878906 26.320312 47.226562 23.96875 47.226562 21.070312 C 47.226562 18.171875 44.878906 15.820312 41.976562 15.820312 " fill-opacity="1" fill-rule="nonzero"/></g><g fill="#000000" fill-opacity="0.4"><g transform="translate(39.016284, 23.532835)"><g><path d="M 0.125 0 L 1.25 -4.625 L 2.109375 -4.625 L 3.234375 0 L 2.640625 0 L 2.34375 -1.1875 L 1.03125 -1.1875 L 0.734375 0 Z M 1.125 -1.65625 L 2.25 -1.65625 L 1.703125 -3.96875 L 1.671875 -3.96875 Z M 1.125 -1.65625 "/></g></g></g><g fill="#000000" fill-opacity="0.4"><g transform="translate(42.38987, 23.532835)"><g><path d="M 0.46875 0 L 0.46875 -4.625 L 1.0625 -4.625 L 1.0625 -2.375 L 2.34375 -4.625 L 3.046875 -4.625 L 1.6875 -2.34375 L 3.171875 0 L 2.484375 0 L 1.0625 -2.3125 L 1.0625 0 Z M 0.46875 0 "/></g></g></g><g fill="#224c8d" fill-opacity="1"><g transform="translate(38.723903, 23.240452)"><g><path d="M 0.125 0 L 1.25 -4.625 L 2.109375 -4.625 L 3.234375 0 L 2.640625 0 L 2.34375 -1.1875 L 1.03125 -1.1875 L 0.734375 0 Z M 1.125 -1.65625 L 2.25 -1.65625 L 1.703125 -3.96875 L 1.671875 -3.96875 Z M 1.125 -1.65625 "/></g></g></g><g fill="#224c8d" fill-opacity="1"><g transform="translate(42.097489, 23.240452)"><g><path d="M 0.46875 0 L 0.46875 -4.625 L 1.0625 -4.625 L 1.0625 -2.375 L 2.34375 -4.625 L 3.046875 -4.625 L 1.6875 -2.34375 L 3.171875 0 L 2.484375 0 L 1.0625 -2.3125 L 1.0625 0 Z M 0.46875 0 "/></g></g></g><g fill="#ffffff" fill-opacity="1"><g transform="translate(67.469061, 31.75236)"><g><path d="M 0.609375 0 L 5.796875 -21.390625 L 9.78125 -21.390625 L 14.96875 0 L 12.21875 0 L 10.84375 -5.5 L 4.734375 -5.5 L 3.359375 0 Z M 5.1875 -7.640625 L 10.390625 -7.640625 L 7.84375 -18.328125 L 7.734375 -18.328125 Z M 5.1875 -7.640625 "/></g></g></g><g fill="#ffffff" fill-opacity="1"><g transform="translate(83.043999, 31.75236)"><g><path d="M 1.984375 -15.28125 L 4.28125 -15.28125 L 4.421875 -14.359375 L 4.578125 -14.359375 C 4.960938 -14.742188 5.441406 -15.039062 6.015625 -15.25 C 6.585938 -15.46875 7.179688 -15.578125 7.796875 -15.578125 C 9.359375 -15.578125 10.535156 -15.242188 11.328125 -14.578125 C 12.128906 -13.921875 12.53125 -12.726562 12.53125 -11 L 12.53125 0 L 9.78125 0 L 9.78125 -11 C 9.78125 -12 9.523438 -12.707031 9.015625 -13.125 C 8.503906 -13.539062 7.789062 -13.75 6.875 -13.75 C 6.507812 -13.75 6.117188 -13.6875 5.703125 -13.5625 C 5.296875 -13.4375 4.972656 -13.296875 4.734375 -13.140625 L 4.734375 0 L 1.984375 0 Z M 1.984375 -15.28125 "/></g></g></g><g fill="#ffffff" fill-opacity="1"><g transform="translate(97.550072, 31.75236)"><g><path d="M 5.953125 0.3125 C 4.453125 0.3125 3.3125 -0.0351562 2.53125 -0.734375 C 1.757812 -1.441406 1.375 -2.722656 1.375 -4.578125 C 1.375 -6.367188 1.757812 -7.601562 2.53125 -8.28125 C 3.3125 -8.96875 4.453125 -9.3125 5.953125 -9.3125 C 6.765625 -9.3125 7.785156 -9.210938 9.015625 -9.015625 L 9.015625 -10.390625 C 9.015625 -11.691406 8.742188 -12.578125 8.203125 -13.046875 C 7.660156 -13.515625 6.8125 -13.75 5.65625 -13.75 L 2.59375 -13.75 L 2.59375 -14.96875 C 3.082031 -15.132812 3.671875 -15.273438 4.359375 -15.390625 C 5.054688 -15.515625 5.691406 -15.578125 6.265625 -15.578125 C 7.566406 -15.578125 8.609375 -15.429688 9.390625 -15.140625 C 10.171875 -14.859375 10.757812 -14.347656 11.15625 -13.609375 C 11.5625 -12.867188 11.765625 -11.796875 11.765625 -10.390625 L 11.765625 0 L 9.46875 0 L 9.3125 -0.921875 L 9.171875 -0.921875 C 8.773438 -0.535156 8.289062 -0.234375 7.71875 -0.015625 C 7.15625 0.203125 6.566406 0.3125 5.953125 0.3125 Z M 6.875 -1.53125 C 7.238281 -1.53125 7.625 -1.585938 8.03125 -1.703125 C 8.4375 -1.828125 8.765625 -1.972656 9.015625 -2.140625 L 9.015625 -7.484375 L 6.875 -7.484375 C 6.019531 -7.484375 5.347656 -7.265625 4.859375 -6.828125 C 4.367188 -6.390625 4.125 -5.640625 4.125 -4.578125 C 4.125 -3.441406 4.367188 -2.648438 4.859375 -2.203125 C 5.347656 -1.753906 6.019531 -1.53125 6.875 -1.53125 Z M 6.875 -1.53125 "/></g></g></g><g fill="#ffffff" fill-opacity="1"><g transform="translate(111.292662, 31.75236)"><g><path d="M 2.140625 0 L 2.140625 -21.390625 L 4.890625 -21.390625 L 4.890625 0 Z M 2.140625 0 "/></g></g></g><g fill="#ffffff" fill-opacity="1"><g transform="translate(118.316656, 31.75236)"><g><path d="M 6.421875 6.421875 C 5.847656 6.421875 5.210938 6.359375 4.515625 6.234375 C 3.828125 6.109375 3.238281 5.960938 2.75 5.796875 L 2.75 4.578125 L 5.796875 4.578125 C 7.203125 4.578125 8.21875 4.207031 8.84375 3.46875 C 9.46875 2.726562 9.78125 1.421875 9.78125 -0.453125 C 8.757812 0.0546875 7.738281 0.3125 6.71875 0.3125 C 5.15625 0.3125 3.972656 -0.0195312 3.171875 -0.6875 C 2.378906 -1.351562 1.984375 -2.550781 1.984375 -4.28125 L 1.984375 -15.28125 L 4.734375 -15.28125 L 4.734375 -4.28125 C 4.734375 -3.28125 4.988281 -2.570312 5.5 -2.15625 C 6.007812 -1.738281 6.722656 -1.53125 7.640625 -1.53125 C 8.003906 -1.53125 8.390625 -1.585938 8.796875 -1.703125 C 9.203125 -1.828125 9.53125 -1.972656 9.78125 -2.140625 L 9.78125 -15.28125 L 12.53125 -15.28125 L 12.53125 -1.21875 C 12.53125 0.71875 12.316406 2.234375 11.890625 3.328125 C 11.472656 4.429688 10.820312 5.222656 9.9375 5.703125 C 9.050781 6.179688 7.878906 6.421875 6.421875 6.421875 Z M 6.421875 6.421875 "/></g></g></g><g fill="#ffffff" fill-opacity="1"><g transform="translate(132.822728, 31.75236)"><g><path d="M 6.71875 0.3125 C 5.351562 0.3125 4.296875 -0.0546875 3.546875 -0.796875 C 2.804688 -1.546875 2.4375 -2.910156 2.4375 -4.890625 L 2.4375 -12.984375 L 0.609375 -12.984375 L 0.609375 -14.96875 L 2.4375 -14.96875 L 2.4375 -18.640625 L 5.1875 -18.640625 L 5.1875 -14.96875 L 9.46875 -14.96875 L 9.46875 -13.59375 C 8.976562 -13.425781 8.382812 -13.28125 7.6875 -13.15625 C 7 -13.039062 6.367188 -12.984375 5.796875 -12.984375 L 5.1875 -12.984375 L 5.1875 -4.890625 C 5.1875 -3.648438 5.398438 -2.78125 5.828125 -2.28125 C 6.253906 -1.78125 6.753906 -1.53125 7.328125 -1.53125 L 10.078125 -1.53125 L 10.078125 -0.3125 C 9.691406 -0.144531 9.148438 0 8.453125 0.125 C 7.765625 0.25 7.1875 0.3125 6.71875 0.3125 Z M 6.71875 0.3125 "/></g></g></g><g fill="#ffffff" fill-opacity="1"><g transform="translate(143.358719, 31.75236)"><g><path d="M 2.140625 -17.40625 L 2.140625 -20.765625 L 4.890625 -20.765625 L 4.890625 -17.40625 Z M 2.140625 0 L 2.140625 -15.28125 L 4.890625 -15.28125 L 4.890625 0 Z M 2.140625 0 "/></g></g></g><g fill="#ffffff" fill-opacity="1"><g transform="translate(150.382713, 31.75236)"><g><path d="M 7.328125 0.3125 C 5.898438 0.3125 4.757812 0.0664062 3.90625 -0.421875 C 3.050781 -0.910156 2.414062 -1.726562 2 -2.875 C 1.582031 -4.03125 1.375 -5.617188 1.375 -7.640625 C 1.375 -9.648438 1.578125 -11.226562 1.984375 -12.375 C 2.390625 -13.53125 3 -14.351562 3.8125 -14.84375 C 4.632812 -15.332031 5.707031 -15.578125 7.03125 -15.578125 C 7.59375 -15.578125 8.21875 -15.515625 8.90625 -15.390625 C 9.601562 -15.273438 10.195312 -15.132812 10.6875 -14.96875 L 10.6875 -13.75 L 7.640625 -13.75 C 6.828125 -13.75 6.171875 -13.566406 5.671875 -13.203125 C 5.171875 -12.847656 4.785156 -12.226562 4.515625 -11.34375 C 4.253906 -10.457031 4.125 -9.222656 4.125 -7.640625 C 4.125 -6.023438 4.257812 -4.773438 4.53125 -3.890625 C 4.8125 -3.003906 5.21875 -2.390625 5.75 -2.046875 C 6.289062 -1.703125 7.019531 -1.53125 7.9375 -1.53125 L 11 -1.53125 L 11 -0.3125 C 10.507812 -0.144531 9.914062 0 9.21875 0.125 C 8.53125 0.25 7.898438 0.3125 7.328125 0.3125 Z M 7.328125 0.3125 "/></g></g></g><g fill="#ffffff" fill-opacity="1"><g transform="translate(161.834872, 31.75236)"><g/></g></g><g fill="#ffffff" fill-opacity="1"><g transform="translate(169.469649, 31.75236)"><g><path d="M 2.140625 0 L 2.140625 -21.390625 L 4.890625 -21.390625 L 4.890625 -11 L 10.84375 -21.390625 L 14.046875 -21.390625 L 7.796875 -10.84375 L 14.65625 0 L 11.453125 0 L 4.890625 -10.6875 L 4.890625 0 Z M 2.140625 0 "/></g></g></g><g fill="#ffffff" fill-opacity="1"><g transform="translate(184.433804, 31.75236)"><g><path d="M 2.140625 -17.40625 L 2.140625 -20.765625 L 4.890625 -20.765625 L 4.890625 -17.40625 Z M 2.140625 0 L 2.140625 -15.28125 L 4.890625 -15.28125 L 4.890625 0 Z M 2.140625 0 "/></g></g></g><g fill="#ffffff" fill-opacity="1"><g transform="translate(191.457798, 31.75236)"><g><path d="M 6.71875 0.3125 C 5.351562 0.3125 4.296875 -0.0546875 3.546875 -0.796875 C 2.804688 -1.546875 2.4375 -2.910156 2.4375 -4.890625 L 2.4375 -12.984375 L 0.609375 -12.984375 L 0.609375 -14.96875 L 2.4375 -14.96875 L 2.4375 -18.640625 L 5.1875 -18.640625 L 5.1875 -14.96875 L 9.46875 -14.96875 L 9.46875 -13.59375 C 8.976562 -13.425781 8.382812 -13.28125 7.6875 -13.15625 C 7 -13.039062 6.367188 -12.984375 5.796875 -12.984375 L 5.1875 -12.984375 L 5.1875 -4.890625 C 5.1875 -3.648438 5.398438 -2.78125 5.828125 -2.28125 C 6.253906 -1.78125 6.753906 -1.53125 7.328125 -1.53125 L 10.078125 -1.53125 L 10.078125 -0.3125 C 9.691406 -0.144531 9.148438 0 8.453125 0.125 C 7.765625 0.25 7.1875 0.3125 6.71875 0.3125 Z M 6.71875 0.3125 "/></g></g></g></svg>