<svg xmlns="http://www.w3.org/2000/svg" xmlns:xlink="http://www.w3.org/1999/xlink" width="600" zoomAndPan="magnify" viewBox="0 0 450 225" height="300" preserveAspectRatio="xMidYMid meet" version="1.0"><defs><filter x="0%" y="0%" width="100%" height="100%" id="6329ab4f0d"><feColorMatrix values="0 0 0 0 1 0 0 0 0 1 0 0 0 0 1 0 0 0 1 0" color-interpolation-filters="sRGB"/></filter><clipPath id="7ad99c9261"><path d="M 0 14.386719 L 449.257812 14.386719 L 449.257812 18 L 0 18 Z M 0 14.386719 " clip-rule="nonzero"/></clipPath><mask id="02b6276d66"><g filter="url(#6329ab4f0d)"><rect x="-45" width="540" fill="#000000" y="-22.5" height="270" fill-opacity="0.2471"/></g></mask><clipPath id="a589428157"><path d="M 0 0.386719 L 449.257812 0.386719 L 449.257812 3 L 0 3 Z M 0 0.386719 " clip-rule="nonzero"/></clipPath><clipPath id="2e52de40c6"><rect x="0" width="450" y="0" height="4"/></clipPath><clipPath id="7b0b893b0f"><path d="M 0 78 L 449.257812 78 L 449.257812 82 L 0 82 Z M 0 78 " clip-rule="nonzero"/></clipPath><mask id="ee8ccf5675"><g filter="url(#6329ab4f0d)"><rect x="-45" width="540" fill="#000000" y="-22.5" height="270" fill-opacity="0.2471"/></g></mask><clipPath id="7f0d59904e"><path d="M 0 0.71875 L 449.257812 0.71875 L 449.257812 3.601562 L 0 3.601562 Z M 0 0.71875 " clip-rule="nonzero"/></clipPath><clipPath id="8e8fc8de36"><rect x="0" width="450" y="0" height="4"/></clipPath><clipPath id="e21428d484"><path d="M 0 143 L 449.257812 143 L 449.257812 147 L 0 147 Z M 0 143 " clip-rule="nonzero"/></clipPath><mask id="a92b583c09"><g filter="url(#6329ab4f0d)"><rect x="-45" width="540" fill="#000000" y="-22.5" height="270" fill-opacity="0.2471"/></g></mask><clipPath id="b92dec2a53"><path d="M 0 0.28125 L 449.257812 0.28125 L 449.257812 3.160156 L 0 3.160156 Z M 0 0.28125 " clip-rule="nonzero"/></clipPath><clipPath id="f91b49664b"><rect x="0" width="450" y="0" height="4"/></clipPath><clipPath id="47f006312a"><path d="M 0 207 L 449.257812 207 L 449.257812 210.613281 L 0 210.613281 Z M 0 207 " clip-rule="nonzero"/></clipPath><mask id="6f06ed059b"><g filter="url(#6329ab4f0d)"><rect x="-45" width="540" fill="#000000" y="-22.5" height="270" fill-opacity="0.6"/></g></mask><clipPath id="418826fc71"><path d="M 0 1 L 449.257812 1 L 449.257812 3.613281 L 0 3.613281 Z M 0 1 " clip-rule="nonzero"/></clipPath><clipPath id="e23f6181bb"><rect x="0" width="450" y="0" height="4"/></clipPath><clipPath id="b161f7dc3a"><path d="M 19.234375 120 L 103 120 L 103 165.429688 L 19.234375 165.429688 Z M 19.234375 120 " clip-rule="nonzero"/></clipPath><clipPath id="afb384ce06"><path d="M 339 15.675781 L 429.761719 15.675781 L 429.761719 88 L 339 88 Z M 339 15.675781 " clip-rule="nonzero"/></clipPath></defs><rect x="-45" width="540" fill="#ffffff" y="-22.5" height="270" fill-opacity="1"/><rect x="-45" width="540" fill="#ffffff" y="-22.5" height="270" fill-opacity="1"/><rect x="-45" width="540" fill="#ffffff" y="-22.5" height="270" fill-opacity="1"/><g clip-path="url(#7ad99c9261)"><g mask="url(#02b6276d66)"><g transform="matrix(1, 0, 0, 1, 0, 14)"><g clip-path="url(#2e52de40c6)"><g clip-path="url(#a589428157)"><path fill="#224c8d" d="M 0 0.390625 L 449.257812 0.390625 L 449.257812 2.972656 L 0 2.972656 L 0 0.390625 " fill-opacity="1" fill-rule="nonzero"/></g></g></g></g></g><g clip-path="url(#7b0b893b0f)"><g mask="url(#ee8ccf5675)"><g transform="matrix(1, 0, 0, 1, 0, 78)"><g clip-path="url(#8e8fc8de36)"><g clip-path="url(#7f0d59904e)"><path fill="#224c8d" d="M 0 0.9375 L 449.257812 0.9375 L 449.257812 3.519531 L 0 3.519531 L 0 0.9375 " fill-opacity="1" fill-rule="nonzero"/></g></g></g></g></g><g clip-path="url(#e21428d484)"><g mask="url(#a92b583c09)"><g transform="matrix(1, 0, 0, 1, 0, 143)"><g clip-path="url(#f91b49664b)"><g clip-path="url(#b92dec2a53)"><path fill="#224c8d" d="M 0 0.480469 L 449.257812 0.480469 L 449.257812 3.0625 L 0 3.0625 L 0 0.480469 " fill-opacity="1" fill-rule="nonzero"/></g></g></g></g></g><g clip-path="url(#47f006312a)"><g mask="url(#6f06ed059b)"><g transform="matrix(1, 0, 0, 1, 0, 207)"><g clip-path="url(#e23f6181bb)"><g clip-path="url(#418826fc71)"><path fill="#224c8d" d="M 0 1.027344 L 449.257812 1.027344 L 449.257812 3.609375 L 0 3.609375 L 0 1.027344 " fill-opacity="1" fill-rule="nonzero"/></g></g></g></g></g><g clip-path="url(#b161f7dc3a)"><path fill="#5648cc" d="M 44.988281 152.402344 C 44.988281 145.210938 39.222656 139.382812 32.109375 139.382812 C 25 139.382812 19.234375 145.210938 19.234375 152.402344 C 19.234375 159.59375 25 165.421875 32.109375 165.421875 C 39.222656 165.421875 44.988281 159.59375 44.988281 152.402344 M 29.953125 146.964844 C 26.980469 148.171875 25.539062 151.582031 26.734375 154.585938 C 27.925781 157.589844 31.300781 159.046875 34.269531 157.839844 L 98.398438 131.796875 C 101.371094 130.59375 102.808594 127.179688 101.617188 124.175781 C 100.425781 121.175781 97.050781 119.71875 94.082031 120.921875 L 29.953125 146.964844 " fill-opacity="1" fill-rule="nonzero"/></g><path fill="#5648cc" d="M 109.117188 126.359375 C 109.117188 119.167969 103.351562 113.339844 96.238281 113.339844 C 89.128906 113.339844 83.363281 119.167969 83.363281 126.359375 C 83.363281 133.550781 89.128906 139.382812 96.238281 139.382812 C 103.351562 139.382812 109.117188 133.550781 109.117188 126.359375 M 97.101562 120.566406 C 93.9375 120.085938 90.984375 122.289062 90.507812 125.488281 C 90.03125 128.6875 92.210938 131.671875 95.375 132.15625 L 159.503906 141.921875 C 162.671875 142.402344 165.621094 140.199219 166.097656 137 C 166.574219 133.800781 164.398438 130.8125 161.230469 130.332031 L 97.101562 120.566406 " fill-opacity="1" fill-rule="nonzero"/><path fill="#5648cc" d="M 173.246094 136.125 C 173.246094 128.933594 167.480469 123.105469 160.367188 123.105469 C 153.257812 123.105469 147.492188 128.933594 147.492188 136.125 C 147.492188 143.316406 153.257812 149.148438 160.367188 149.148438 C 167.480469 149.148438 173.246094 143.316406 173.246094 136.125 M 157.378906 131.105469 C 154.636719 132.777344 153.753906 136.378906 155.40625 139.148438 C 157.054688 141.921875 160.617188 142.816406 163.359375 141.144531 L 227.488281 102.082031 C 230.230469 100.414062 231.113281 96.8125 229.460938 94.039062 C 227.808594 91.269531 224.25 90.375 221.507812 92.046875 L 157.378906 131.105469 " fill-opacity="1" fill-rule="nonzero"/><path fill="#5648cc" d="M 237.375 97.0625 C 237.375 89.871094 231.609375 84.042969 224.496094 84.042969 C 217.386719 84.042969 211.621094 89.871094 211.621094 97.0625 C 211.621094 104.253906 217.386719 110.085938 224.496094 110.085938 C 231.609375 110.085938 237.375 104.253906 237.375 97.0625 M 224.207031 91.210938 C 221.011719 91.375 218.550781 94.125 218.710938 97.359375 C 218.871094 100.589844 221.589844 103.078125 224.789062 102.914062 L 288.917969 99.660156 C 292.113281 99.5 294.574219 96.746094 294.414062 93.515625 C 294.253906 90.28125 291.53125 87.792969 288.335938 87.957031 L 224.207031 91.210938 " fill-opacity="1" fill-rule="nonzero"/><path fill="#5648cc" d="M 301.503906 93.808594 C 301.503906 86.617188 295.738281 80.789062 288.625 80.789062 C 281.515625 80.789062 275.746094 86.617188 275.746094 93.808594 C 275.746094 101 281.515625 106.828125 288.625 106.828125 C 295.738281 106.828125 301.503906 101 301.503906 93.808594 M 286.953125 88.199219 C 283.890625 89.132812 282.152344 92.398438 283.078125 95.5 C 284 98.597656 287.234375 100.351562 290.296875 99.417969 L 354.425781 79.886719 C 357.492188 78.953125 359.226562 75.6875 358.304688 72.585938 C 357.378906 69.488281 354.148438 67.734375 351.082031 68.667969 L 286.953125 88.199219 " fill-opacity="1" fill-rule="nonzero"/><g clip-path="url(#afb384ce06)"><path fill="#5648cc" d="M 365.632812 74.277344 C 365.632812 67.085938 359.867188 61.257812 352.753906 61.257812 C 345.640625 61.257812 339.875 67.085938 339.875 74.277344 C 339.875 81.46875 345.640625 87.296875 352.753906 87.296875 C 359.867188 87.296875 365.632812 81.46875 365.632812 74.277344 M 349.421875 69.484375 C 346.804688 71.34375 346.171875 75 348.011719 77.648438 C 349.855469 80.292969 353.46875 80.933594 356.085938 79.070312 L 420.214844 33.5 C 422.835938 31.636719 423.464844 27.984375 421.625 25.335938 C 419.785156 22.6875 416.167969 22.050781 413.550781 23.910156 L 349.421875 69.484375 M 429.761719 28.703125 C 429.761719 21.511719 423.996094 15.683594 416.882812 15.683594 C 409.769531 15.683594 404.003906 21.511719 404.003906 28.703125 C 404.003906 35.894531 409.769531 41.726562 416.882812 41.726562 C 423.996094 41.726562 429.761719 35.894531 429.761719 28.703125 " fill-opacity="1" fill-rule="nonzero"/></g></svg>