<svg xmlns="http://www.w3.org/2000/svg" xmlns:xlink="http://www.w3.org/1999/xlink" width="600" zoomAndPan="magnify" viewBox="0 0 450 225" height="300" preserveAspectRatio="xMidYMid meet" version="1.0"><defs><g/><clipPath id="20b39c1cfc"><path d="M 192.421875 155.933594 L 270.558594 155.933594 L 270.558594 205.988281 L 192.421875 205.988281 Z M 192.421875 155.933594 " clip-rule="nonzero"/></clipPath><clipPath id="6b57914cb4"><path d="M 109 119 L 180 119 L 180 211.6875 L 109 211.6875 Z M 109 119 " clip-rule="nonzero"/></clipPath><clipPath id="7e12e6c519"><path d="M 87.742188 156 L 105 156 L 105 160 L 87.742188 160 Z M 87.742188 156 " clip-rule="nonzero"/></clipPath><clipPath id="2a3a1e7a77"><path d="M 184 156 L 201.28125 156 L 201.28125 160 L 184 160 Z M 184 156 " clip-rule="nonzero"/></clipPath><clipPath id="4c7087a2c1"><path d="M 143 98.148438 L 146 98.148438 L 146 115 L 143 115 Z M 143 98.148438 " clip-rule="nonzero"/></clipPath><clipPath id="901748fc72"><path d="M 115.925781 126.023438 L 170.863281 126.023438 L 170.863281 180.960938 L 115.925781 180.960938 Z M 115.925781 126.023438 " clip-rule="nonzero"/></clipPath><clipPath id="c857001d64"><path d="M 136 167 L 155 167 L 155 171.433594 L 136 171.433594 Z M 136 167 " clip-rule="nonzero"/></clipPath><clipPath id="9e42911fbf"><path d="M 263 150 L 281 150 L 281 166 L 263 166 Z M 263 150 " clip-rule="nonzero"/></clipPath><clipPath id="6e01158f23"><path d="M 249.710938 165.488281 L 278.261719 149.011719 L 305.71875 196.597656 L 277.167969 213.074219 Z M 249.710938 165.488281 " clip-rule="nonzero"/></clipPath><clipPath id="80c0969f47"><path d="M 278.589844 148.824219 L 250.039062 165.300781 L 277.5 212.882812 L 306.050781 196.40625 Z M 278.589844 148.824219 " clip-rule="nonzero"/></clipPath><clipPath id="3532f49097"><path d="M 265 158 L 291 158 L 291 186 L 265 186 Z M 265 158 " clip-rule="nonzero"/></clipPath><clipPath id="c0afbbce9b"><path d="M 249.710938 165.488281 L 278.261719 149.011719 L 305.71875 196.597656 L 277.167969 213.074219 Z M 249.710938 165.488281 " clip-rule="nonzero"/></clipPath><clipPath id="40ce48c571"><path d="M 278.589844 148.824219 L 250.039062 165.300781 L 277.5 212.882812 L 306.050781 196.40625 Z M 278.589844 148.824219 " clip-rule="nonzero"/></clipPath><clipPath id="c6961f9cc6"><path d="M 268 184 L 296 184 L 296 206 L 268 206 Z M 268 184 " clip-rule="nonzero"/></clipPath><clipPath id="60ebe8ec54"><path d="M 249.710938 165.488281 L 278.261719 149.011719 L 305.71875 196.597656 L 277.167969 213.074219 Z M 249.710938 165.488281 " clip-rule="nonzero"/></clipPath><clipPath id="0109561836"><path d="M 278.589844 148.824219 L 250.039062 165.300781 L 277.5 212.882812 L 306.050781 196.40625 Z M 278.589844 148.824219 " clip-rule="nonzero"/></clipPath><clipPath id="fb6a801188"><path d="M 288.398438 184.328125 L 267.855469 196.183594 L 277.628906 213.117188 L 298.171875 201.265625 Z M 288.398438 184.328125 " clip-rule="nonzero"/></clipPath><clipPath id="1e17a0a58c"><path d="M 288.398438 184.328125 L 267.921875 196.144531 L 277.566406 212.859375 L 298.042969 201.039062 Z M 288.398438 184.328125 " clip-rule="nonzero"/></clipPath><clipPath id="e6116729a2"><path d="M 263 190 L 273 190 L 273 200 L 263 200 Z M 263 190 " clip-rule="nonzero"/></clipPath><clipPath id="43ccec2920"><path d="M 263.578125 194.183594 L 268.585938 190.695312 L 272.078125 195.703125 L 267.070312 199.191406 Z M 263.578125 194.183594 " clip-rule="nonzero"/></clipPath><clipPath id="cb2f8b9f0a"><path d="M 327 159.191406 L 362.371094 159.191406 L 362.371094 208.027344 L 327 208.027344 Z M 327 159.191406 " clip-rule="nonzero"/></clipPath></defs><rect x="-45" width="540" fill="#ffffff" y="-22.5" height="270" fill-opacity="1"/><rect x="-45" width="540" fill="#ffffff" y="-22.5" height="270" fill-opacity="1"/><g clip-path="url(#20b39c1cfc)"><path fill="#5648cc" d="M 194.589844 155.964844 C 207.179688 155.964844 217.117188 159.628906 223.84375 163.222656 C 234.851562 169.109375 241.40625 176.964844 242.839844 181.773438 C 244.121094 185.9375 245.882812 189.882812 248.128906 193.605469 C 250.875 198.105469 253.898438 201.167969 256.847656 202.464844 C 259.207031 203.496094 261.472656 203.433594 263.796875 202.273438 C 267.992188 200.175781 270.765625 196.492188 272.042969 191.324219 C 272.636719 188.902344 272.855469 186.445312 272.699219 183.957031 C 272.683594 183.800781 272.695312 183.644531 272.742188 183.492188 C 272.789062 183.34375 272.859375 183.203125 272.960938 183.082031 C 273.058594 182.960938 273.175781 182.863281 273.316406 182.785156 C 273.453125 182.710938 273.601562 182.667969 273.753906 182.652344 C 273.910156 182.636719 274.0625 182.648438 274.214844 182.695312 C 274.363281 182.742188 274.5 182.816406 274.621094 182.914062 C 274.742188 183.015625 274.839844 183.136719 274.914062 183.273438 C 274.988281 183.414062 275.03125 183.5625 275.046875 183.71875 C 275.234375 186.457031 275 189.160156 274.347656 191.824219 C 272.929688 197.660156 269.636719 202.015625 264.839844 204.410156 C 261.898438 205.878906 258.894531 205.957031 255.910156 204.648438 C 252.464844 203.136719 249.175781 199.84375 246.121094 194.851562 C 243.761719 190.957031 241.917969 186.824219 240.585938 182.457031 C 239.242188 177.976562 232.6875 170.648438 222.746094 165.335938 C 214.105469 160.714844 199.929688 155.980469 181.507812 159.6875 C 181.351562 159.71875 181.199219 159.71875 181.046875 159.6875 C 180.894531 159.65625 180.753906 159.597656 180.621094 159.507812 C 180.492188 159.421875 180.382812 159.3125 180.296875 159.179688 C 180.210938 159.046875 180.152344 158.90625 180.121094 158.75 C 180.09375 158.597656 180.09375 158.441406 180.121094 158.285156 C 180.152344 158.132812 180.210938 157.988281 180.296875 157.855469 C 180.382812 157.726562 180.492188 157.617188 180.621094 157.527344 C 180.753906 157.441406 180.894531 157.382812 181.046875 157.351562 C 185.515625 156.4375 190.03125 155.976562 194.589844 155.964844 Z M 194.589844 155.964844 " fill-opacity="1" fill-rule="nonzero"/></g><path fill="#5648cc" d="M 139.652344 195.621094 C 139.085938 195.621094 138.566406 195.242188 138.414062 194.664062 C 138.390625 194.574219 136.058594 185.742188 134.128906 178.207031 C 133.953125 177.515625 134.367188 176.8125 135.054688 176.636719 C 135.742188 176.457031 136.441406 176.875 136.617188 177.5625 C 138.539062 185.089844 140.871094 193.910156 140.894531 194 C 141.078125 194.6875 140.671875 195.394531 139.984375 195.578125 C 139.875 195.609375 139.765625 195.621094 139.652344 195.621094 " fill-opacity="1" fill-rule="nonzero"/><path fill="#5648cc" d="M 148.769531 195.425781 C 148.664062 195.425781 148.554688 195.414062 148.449219 195.386719 C 147.761719 195.210938 147.347656 194.503906 147.527344 193.816406 L 151.707031 177.460938 C 151.882812 176.769531 152.585938 176.355469 153.269531 176.535156 C 153.957031 176.710938 154.371094 177.414062 154.195312 178.105469 L 150.011719 194.457031 C 149.863281 195.039062 149.34375 195.425781 148.769531 195.425781 " fill-opacity="1" fill-rule="nonzero"/><g clip-path="url(#6b57914cb4)"><path fill="#5648cc" d="M 160.324219 183.054688 C 159.925781 183.285156 159.679688 183.710938 159.679688 184.171875 L 159.679688 193.125 L 128.882812 193.125 L 128.882812 184.171875 C 128.882812 183.710938 128.636719 183.285156 128.242188 183.054688 C 118.261719 177.28125 112.066406 166.519531 112.066406 154.96875 C 112.066406 137.105469 126.519531 122.574219 144.28125 122.574219 C 162.042969 122.574219 176.492188 137.105469 176.492188 154.96875 C 176.492188 166.519531 170.296875 177.28125 160.324219 183.054688 Z M 158.050781 209.003906 L 130.511719 209.003906 C 129.613281 209.003906 128.882812 208.269531 128.882812 207.367188 L 128.882812 195.707031 L 159.679688 195.707031 L 159.679688 207.367188 C 159.679688 208.269531 158.949219 209.003906 158.050781 209.003906 Z M 144.28125 119.992188 C 125.101562 119.992188 109.5 135.683594 109.5 154.96875 C 109.5 167.191406 115.925781 178.589844 126.316406 184.910156 L 126.316406 194.417969 C 126.316406 194.445312 126.320312 194.46875 126.324219 194.496094 C 126.320312 194.523438 126.316406 194.550781 126.316406 194.578125 L 126.316406 207.367188 C 126.316406 209.691406 128.195312 211.582031 130.511719 211.582031 L 158.050781 211.582031 C 160.367188 211.582031 162.246094 209.691406 162.246094 207.367188 L 162.246094 194.492188 C 162.246094 194.480469 162.242188 194.46875 162.242188 194.453125 C 162.242188 194.441406 162.246094 194.429688 162.246094 194.417969 L 162.246094 184.910156 C 172.636719 178.59375 179.058594 167.191406 179.058594 154.96875 C 179.058594 135.683594 163.457031 119.992188 144.28125 119.992188 " fill-opacity="1" fill-rule="nonzero"/></g><g clip-path="url(#7e12e6c519)"><path fill="#5648cc" d="M 102.898438 159.019531 L 89.027344 159.019531 C 88.316406 159.019531 87.742188 158.441406 87.742188 157.730469 C 87.742188 157.015625 88.316406 156.4375 89.027344 156.4375 L 102.898438 156.4375 C 103.609375 156.4375 104.183594 157.015625 104.183594 157.730469 C 104.183594 158.441406 103.609375 159.019531 102.898438 159.019531 " fill-opacity="1" fill-rule="nonzero"/></g><g clip-path="url(#2a3a1e7a77)"><path fill="#5648cc" d="M 200 159.359375 L 186.125 159.359375 C 185.414062 159.359375 184.839844 158.78125 184.839844 158.066406 C 184.839844 157.355469 185.414062 156.777344 186.125 156.777344 L 200 156.777344 C 200.707031 156.777344 201.28125 157.355469 201.28125 158.066406 C 201.28125 158.78125 200.707031 159.359375 200 159.359375 " fill-opacity="1" fill-rule="nonzero"/></g><path fill="#5648cc" d="M 183.097656 138.269531 C 182.644531 138.269531 182.203125 138.023438 181.96875 137.59375 C 181.632812 136.964844 181.867188 136.183594 182.488281 135.84375 L 194.703125 129.222656 C 195.328125 128.886719 196.105469 129.117188 196.441406 129.746094 C 196.777344 130.375 196.546875 131.15625 195.921875 131.496094 L 183.710938 138.117188 C 183.515625 138.222656 183.304688 138.269531 183.097656 138.269531 " fill-opacity="1" fill-rule="nonzero"/><path fill="#5648cc" d="M 165.171875 120.136719 C 164.964844 120.136719 164.757812 120.089844 164.566406 119.984375 C 163.941406 119.648438 163.703125 118.867188 164.042969 118.238281 L 170.597656 105.945312 C 170.933594 105.316406 171.710938 105.078125 172.335938 105.414062 C 172.960938 105.753906 173.195312 106.535156 172.859375 107.160156 L 166.304688 119.457031 C 166.070312 119.890625 165.628906 120.136719 165.171875 120.136719 " fill-opacity="1" fill-rule="nonzero"/><path fill="#5648cc" d="M 103.023438 136.996094 C 102.816406 136.996094 102.609375 136.945312 102.414062 136.839844 L 90.199219 130.222656 C 89.578125 129.882812 89.34375 129.101562 89.679688 128.472656 C 90.015625 127.84375 90.796875 127.609375 91.417969 127.949219 L 103.632812 134.570312 C 104.257812 134.90625 104.488281 135.691406 104.152344 136.316406 C 103.921875 136.75 103.480469 136.996094 103.023438 136.996094 " fill-opacity="1" fill-rule="nonzero"/><path fill="#5648cc" d="M 120.953125 118.863281 C 120.496094 118.863281 120.050781 118.617188 119.820312 118.183594 L 113.265625 105.886719 C 112.929688 105.257812 113.164062 104.476562 113.789062 104.140625 C 114.414062 103.804688 115.191406 104.039062 115.527344 104.664062 L 122.082031 116.960938 C 122.417969 117.589844 122.183594 118.375 121.558594 118.707031 C 121.367188 118.8125 121.15625 118.863281 120.953125 118.863281 " fill-opacity="1" fill-rule="nonzero"/><g clip-path="url(#4c7087a2c1)"><path fill="#5648cc" d="M 144.445312 114.785156 C 144.445312 114.785156 144.445312 114.785156 144.441406 114.785156 C 143.734375 114.785156 143.160156 114.203125 143.164062 113.492188 L 143.199219 99.539062 C 143.203125 98.828125 143.765625 98.25 144.488281 98.253906 C 145.199219 98.253906 145.769531 98.832031 145.765625 99.546875 L 145.730469 113.5 C 145.726562 114.207031 145.152344 114.785156 144.445312 114.785156 " fill-opacity="1" fill-rule="nonzero"/></g><path fill="#5648cc" d="M 133.679688 153.3125 C 133.679688 147.570312 138.324219 142.898438 144.035156 142.898438 C 149.742188 142.898438 154.390625 147.570312 154.390625 153.3125 C 154.390625 159.054688 149.742188 163.726562 144.035156 163.726562 C 138.324219 163.726562 133.679688 159.054688 133.679688 153.3125 Z M 161.195312 166.808594 L 155.917969 164.304688 C 155.441406 164.082031 154.875 164.167969 154.492188 164.53125 C 154.109375 164.894531 153.984375 165.457031 154.175781 165.949219 L 156.316406 171.40625 L 147.347656 174.964844 L 145.160156 169.394531 C 144.96875 168.902344 144.496094 168.582031 143.972656 168.578125 C 143.972656 168.578125 143.96875 168.578125 143.96875 168.578125 C 143.445312 168.578125 142.972656 168.898438 142.78125 169.386719 L 140.550781 174.9375 L 131.605469 171.308594 L 133.511719 166.574219 C 133.707031 166.078125 133.585938 165.507812 133.195312 165.144531 C 132.804688 164.78125 132.234375 164.695312 131.753906 164.929688 L 127.0625 167.234375 L 122.828125 158.523438 L 130.683594 154.664062 C 130.871094 154.570312 131.027344 154.4375 131.148438 154.277344 C 131.640625 160.992188 137.230469 166.304688 144.035156 166.304688 C 151.160156 166.304688 156.957031 160.476562 156.957031 153.3125 C 156.957031 146.148438 151.160156 140.320312 144.035156 140.320312 C 137.109375 140.320312 131.441406 145.820312 131.125 152.703125 C 131.003906 152.550781 130.847656 152.425781 130.667969 152.335938 L 122.761719 148.589844 L 126.875 139.820312 L 132.152344 142.320312 C 132.625 142.546875 133.191406 142.457031 133.574219 142.09375 C 133.960938 141.730469 134.082031 141.171875 133.890625 140.679688 L 131.75 135.222656 L 140.71875 131.664062 L 142.90625 137.230469 C 143.097656 137.722656 143.570312 138.046875 144.09375 138.046875 C 144.09375 138.046875 144.097656 138.046875 144.097656 138.046875 C 144.621094 138.046875 145.09375 137.730469 145.289062 137.242188 L 147.519531 131.691406 L 156.460938 135.320312 L 154.371094 140.523438 C 154.175781 141.015625 154.296875 141.585938 154.6875 141.949219 C 155.078125 142.3125 155.648438 142.398438 156.125 142.164062 L 161.003906 139.765625 L 165.238281 148.480469 L 157.773438 152.144531 C 157.332031 152.363281 157.050781 152.820312 157.054688 153.316406 C 157.058594 153.8125 157.34375 154.261719 157.789062 154.472656 L 165.304688 158.039062 Z M 167.5625 156.253906 L 161.300781 153.285156 L 167.519531 150.230469 C 168.15625 149.917969 168.417969 149.144531 168.109375 148.503906 L 162.746094 137.472656 C 162.601562 137.164062 162.335938 136.933594 162.011719 136.820312 C 161.691406 136.707031 161.339844 136.730469 161.03125 136.878906 L 158.007812 138.367188 L 159.320312 135.089844 C 159.585938 134.429688 159.269531 133.675781 158.613281 133.410156 L 147.289062 128.8125 C 146.632812 128.546875 145.886719 128.867188 145.621094 129.527344 L 144.113281 133.277344 L 142.636719 129.515625 C 142.375 128.851562 141.628906 128.527344 140.972656 128.789062 L 129.613281 133.292969 C 129.296875 133.417969 129.042969 133.667969 128.90625 133.980469 C 128.773438 134.292969 128.765625 134.652344 128.890625 134.96875 L 130.3125 138.597656 L 126.808594 136.933594 C 126.5 136.789062 126.144531 136.769531 125.824219 136.886719 C 125.503906 137.003906 125.242188 137.242188 125.097656 137.550781 L 119.890625 148.65625 C 119.589844 149.300781 119.867188 150.070312 120.503906 150.375 L 127.152344 153.527344 L 120.550781 156.769531 C 119.910156 157.082031 119.648438 157.855469 119.960938 158.496094 L 125.320312 169.527344 C 125.628906 170.167969 126.398438 170.429688 127.035156 170.121094 L 129.875 168.722656 L 128.746094 171.535156 C 128.621094 171.851562 128.621094 172.210938 128.757812 172.523438 C 128.886719 172.839844 129.140625 173.089844 129.457031 173.214844 L 140.777344 177.816406 C 141.09375 177.941406 141.445312 177.9375 141.757812 177.804688 C 142.074219 177.671875 142.320312 177.417969 142.449219 177.101562 L 143.953125 173.347656 L 145.433594 177.113281 C 145.632812 177.621094 146.117188 177.929688 146.628906 177.929688 C 146.785156 177.929688 146.941406 177.902344 147.097656 177.839844 L 158.453125 173.332031 C 159.113281 173.070312 159.4375 172.320312 159.175781 171.660156 L 157.75 168.03125 L 161.261719 169.695312 C 161.570312 169.839844 161.921875 169.855469 162.242188 169.738281 C 162.5625 169.625 162.824219 169.386719 162.96875 169.078125 L 168.175781 157.972656 C 168.476562 157.324219 168.203125 156.554688 167.5625 156.253906 " fill-opacity="1" fill-rule="nonzero"/><g clip-path="url(#901748fc72)"><path fill="#ffffff" d="M 143.394531 126.023438 C 128.222656 126.023438 115.925781 138.320312 115.925781 153.492188 C 115.925781 168.664062 128.222656 180.960938 143.394531 180.960938 C 158.566406 180.960938 170.863281 168.664062 170.863281 153.492188 C 170.863281 138.320312 158.566406 126.023438 143.394531 126.023438 " fill-opacity="1" fill-rule="nonzero"/></g><path stroke-linecap="round" transform="matrix(2.49181, 0, 0, 2.920974, 131.973393, 213.560392)" fill="none" stroke-linejoin="miter" d="M 0.49978 -0.000615463 L 9.795858 -0.000615463 " stroke="#5648cc" stroke-width="1" stroke-opacity="1" stroke-miterlimit="4"/><path stroke-linecap="round" transform="matrix(2.406655, 0, 0, 2.920974, 135.252592, 216.844571)" fill="none" stroke-linejoin="miter" d="M 0.500462 -0.000280922 L 7.10974 -0.000280922 " stroke="#5648cc" stroke-width="1" stroke-opacity="1" stroke-miterlimit="4"/><path stroke-linecap="round" transform="matrix(2.422823, 0, 0, 2.920974, 138.384515, 219.647931)" fill="none" stroke-linejoin="miter" d="M 0.500714 0.000173316 L 4.544292 0.000173316 " stroke="#5648cc" stroke-width="1" stroke-opacity="1" stroke-miterlimit="4"/><path fill="#f9acb2" d="M 132.902344 165.511719 C 132.902344 167.296875 130.882812 168.742188 128.394531 168.742188 C 125.902344 168.742188 123.882812 167.296875 123.882812 165.511719 C 123.882812 163.726562 125.902344 162.28125 128.394531 162.28125 C 130.882812 162.28125 132.902344 163.726562 132.902344 165.511719 " fill-opacity="1" fill-rule="nonzero"/><path fill="#f9acb2" d="M 167.613281 164.808594 C 167.613281 166.59375 165.59375 168.039062 163.105469 168.039062 C 160.613281 168.039062 158.597656 166.59375 158.597656 164.808594 C 158.597656 163.027344 160.613281 161.582031 163.105469 161.582031 C 165.59375 161.582031 167.613281 163.027344 167.613281 164.808594 " fill-opacity="1" fill-rule="nonzero"/><g clip-path="url(#c857001d64)"><path fill="#5648cc" d="M 154.542969 167.882812 C 154.488281 167.789062 154.347656 167.769531 154.253906 167.800781 C 153.945312 167.902344 153.757812 168.207031 153.609375 168.535156 C 150.9375 167.703125 149.433594 166.378906 146.558594 167.785156 C 144.585938 168.75 143.480469 168.003906 141.511719 167.6875 C 140.21875 167.480469 138.898438 168.023438 137.769531 168.578125 C 137.613281 168.308594 137.4375 168.046875 137.25 167.824219 C 137.039062 167.574219 136.554688 167.703125 136.613281 168.0625 C 136.6875 168.546875 136.953125 168.976562 137.164062 169.417969 C 137.390625 169.886719 137.457031 170.519531 137.777344 170.921875 C 137.898438 171.070312 138.175781 171.113281 138.296875 170.933594 C 138.609375 170.460938 138.414062 169.949219 138.207031 169.464844 C 140.050781 169 141.339844 168.765625 143.25 169.40625 C 144.050781 169.675781 145.085938 169.871094 145.902344 169.535156 C 147.667969 168.8125 148.902344 167.878906 150.875 168.714844 C 151.75 169.085938 152.296875 169.574219 153.117188 169.625 C 152.886719 170.0625 152.660156 170.511719 152.648438 171.003906 C 152.644531 171.289062 153.039062 171.425781 153.246094 171.265625 C 153.761719 170.867188 153.972656 170.167969 154.21875 169.589844 C 154.433594 169.089844 154.835938 168.402344 154.542969 167.882812 " fill-opacity="1" fill-rule="nonzero"/></g><path fill="#5648cc" d="M 135.601562 157.25 C 135.367188 157.457031 135.121094 157.648438 134.863281 157.828125 C 133.828125 158.542969 132.617188 158.984375 131.382812 159.113281 C 129.703125 159.304688 127.984375 158.917969 126.625 157.828125 C 124.738281 156.316406 124.289062 153.71875 125.089844 151.566406 C 126.101562 148.851562 129.5625 147.550781 132.28125 147.644531 C 132.355469 147.652344 132.429688 147.628906 132.492188 147.59375 C 134.199219 147.632812 135.765625 148.214844 137.042969 150.03125 C 138.8125 152.558594 137.683594 155.429688 135.601562 157.25 Z M 139.09375 151.179688 C 137.351562 145.667969 130.664062 145.144531 126.152344 148.292969 C 124.050781 150.042969 122.753906 152.839844 123.53125 155.351562 C 124.902344 159.765625 129.238281 161.433594 133.539062 160.035156 C 137.136719 158.867188 140.3125 155.03125 139.09375 151.179688 " fill-opacity="1" fill-rule="nonzero"/><path fill="#ffffff" d="M 135.601562 157.25 C 135.839844 156.597656 135.882812 155.878906 135.660156 155.214844 C 135.304688 154.15625 134.738281 153.261719 133.070312 153.054688 C 132.582031 152.910156 129.824219 153.144531 129.625 156.222656 C 129.542969 157.457031 130.304688 158.597656 131.382812 159.113281 C 129.703125 159.304688 127.984375 158.917969 126.625 157.828125 C 124.738281 156.316406 124.289062 153.71875 125.089844 151.566406 C 126.101562 148.851562 129.5625 147.550781 132.28125 147.644531 C 132.355469 147.652344 132.429688 147.628906 132.492188 147.59375 C 134.199219 147.632812 135.765625 148.214844 137.042969 150.03125 C 138.8125 152.558594 137.683594 155.429688 135.601562 157.25 " fill-opacity="1" fill-rule="nonzero"/><path fill="#5648cc" d="M 161.800781 158.734375 C 160.3125 159.324219 158.625 159.472656 157.105469 159.097656 C 155.847656 158.78125 154.707031 158.097656 153.894531 156.996094 C 153.675781 156.707031 153.5 156.390625 153.355469 156.058594 C 152.53125 154.238281 152.765625 151.96875 153.8125 150.3125 C 154.617188 149.039062 155.859375 148.34375 157.210938 147.875 C 160.386719 147.144531 164.050781 147.675781 165.808594 151.605469 C 167.246094 154.828125 164.679688 157.59375 161.800781 158.734375 Z M 167.402344 151.992188 C 165.785156 146.304688 158.949219 145.265625 154.457031 147.9375 C 152.210938 149.667969 151.128906 152.75 151.867188 155.785156 C 152.910156 160.085938 157.621094 161.25 161.480469 160.277344 C 165.121094 159.367188 168.503906 155.890625 167.402344 151.992188 " fill-opacity="1" fill-rule="nonzero"/><path fill="#ffffff" d="M 161.800781 158.734375 C 160.3125 159.324219 158.625 159.472656 157.105469 159.097656 C 158.863281 158.65625 159.953125 156.65625 159.386719 154.980469 C 159.035156 153.917969 158.46875 153.027344 156.804688 152.820312 C 156.308594 152.671875 153.554688 152.910156 153.355469 155.992188 C 153.355469 156.015625 153.351562 156.035156 153.355469 156.058594 C 152.53125 154.238281 152.765625 151.96875 153.8125 150.3125 C 154.617188 149.039062 155.859375 148.34375 157.210938 147.875 C 160.386719 147.144531 164.050781 147.671875 165.808594 151.605469 C 167.246094 154.828125 164.679688 157.59375 161.800781 158.734375 " fill-opacity="1" fill-rule="nonzero"/><path fill="#5648cc" d="M 157.480469 144.421875 C 156.722656 144.726562 155.972656 145.046875 155.175781 145.28125 C 154.671875 145.425781 154.136719 145.613281 153.589844 145.644531 C 152.96875 145.808594 152 145.335938 152.527344 144.578125 C 155.527344 141.792969 159.925781 142.265625 164.082031 143.007812 C 161.847656 143.382812 159.496094 143.605469 157.480469 144.421875 Z M 165.644531 142.519531 C 162.621094 140.996094 158.097656 140.632812 155.183594 141.75 C 153.835938 142.265625 150.71875 143.277344 150.957031 145.078125 C 151.265625 147.375 154.234375 146.871094 155.691406 146.394531 C 156.867188 146.011719 157.964844 145.453125 159.179688 145.164062 C 161.378906 144.628906 163.664062 144.355469 165.882812 143.878906 C 166.398438 143.765625 166.886719 143.148438 165.644531 142.519531 " fill-opacity="1" fill-rule="nonzero"/><path fill="#ffffff" d="M 164.082031 143.007812 C 161.847656 143.382812 159.496094 143.609375 157.480469 144.421875 C 156.722656 144.726562 155.972656 145.046875 155.175781 145.28125 C 154.671875 145.429688 154.136719 145.613281 153.589844 145.648438 C 152.964844 145.808594 152 145.335938 152.527344 144.578125 C 155.527344 141.792969 159.921875 142.265625 164.082031 143.007812 " fill-opacity="1" fill-rule="nonzero"/><path fill="#5648cc" d="M 135.601562 157.25 C 135.234375 158.277344 134.363281 159.136719 133.242188 159.367188 C 132.589844 159.5 131.941406 159.394531 131.382812 159.113281 C 130.304688 158.597656 129.542969 157.457031 129.625 156.222656 C 129.824219 153.144531 132.582031 152.910156 133.070312 153.054688 C 134.738281 153.261719 135.304688 154.15625 135.660156 155.214844 C 135.882812 155.878906 135.839844 156.597656 135.601562 157.25 " fill-opacity="1" fill-rule="nonzero"/><path fill="#5648cc" d="M 157.105469 159.097656 C 157.0625 159.113281 157.019531 159.121094 156.976562 159.132812 C 155.085938 159.519531 153.277344 157.90625 153.355469 156.058594 C 153.351562 156.035156 153.355469 156.011719 153.355469 155.992188 C 153.558594 152.910156 156.308594 152.671875 156.804688 152.820312 C 158.46875 153.027344 159.035156 153.917969 159.386719 154.980469 C 159.953125 156.65625 158.863281 158.65625 157.105469 159.097656 " fill-opacity="1" fill-rule="nonzero"/><path fill="#5648cc" d="M 146.515625 162.132812 C 145.882812 162.367188 143.910156 163.140625 143.664062 161.777344 C 143.496094 160.859375 143.621094 159.882812 143.550781 158.957031 C 143.359375 156.417969 143.695312 153.871094 143.523438 151.328125 C 143.488281 150.761719 142.546875 150.71875 142.5 151.296875 C 142.191406 154.855469 141.761719 158.890625 142.410156 162.429688 C 142.773438 164.40625 145.894531 164.183594 147.070312 163.125 C 147.53125 162.707031 147.167969 161.894531 146.515625 162.132812 " fill-opacity="1" fill-rule="nonzero"/><path fill="#5648cc" d="M 135.1875 140.339844 C 134.609375 140.300781 134.019531 140.097656 133.464844 139.933594 C 132.605469 139.675781 131.765625 139.324219 130.933594 138.992188 C 128.703125 138.09375 126.207031 137.84375 123.804688 137.4375 C 128.054688 136.617188 132.59375 136.097656 136.144531 139.160156 C 136.808594 139.996094 135.863281 140.519531 135.1875 140.339844 Z M 132.945312 136.046875 C 129.734375 134.816406 125.042969 135.222656 122.101562 136.902344 C 120.890625 137.59375 121.488281 138.265625 122.046875 138.390625 C 124.441406 138.917969 126.882812 139.222656 129.261719 139.804688 C 130.574219 140.125 131.8125 140.738281 133.09375 141.160156 C 134.691406 141.679688 137.875 142.238281 137.863281 139.710938 C 137.851562 137.726562 134.433594 136.617188 132.945312 136.046875 " fill-opacity="1" fill-rule="nonzero"/><path fill="#ffffff" d="M 135.304688 140.371094 C 134.726562 140.328125 134.136719 140.128906 133.582031 139.964844 C 132.722656 139.707031 131.878906 139.351562 131.050781 139.019531 C 128.816406 138.121094 126.320312 137.875 123.921875 137.464844 C 128.171875 136.644531 132.710938 136.128906 136.261719 139.191406 C 136.925781 140.027344 135.980469 140.550781 135.304688 140.371094 " fill-opacity="1" fill-rule="nonzero"/><g clip-path="url(#9e42911fbf)"><g clip-path="url(#6e01158f23)"><g clip-path="url(#80c0969f47)"><path fill="#5648cc" d="M 263.539062 159.253906 C 263.121094 158.53125 263.367188 157.605469 264.089844 157.191406 C 264.8125 156.773438 265.734375 157.023438 266.152344 157.746094 L 269.773438 164.023438 L 267.160156 165.53125 Z M 277.863281 159.359375 L 280.476562 157.851562 L 276.851562 151.574219 C 276.433594 150.847656 275.511719 150.601562 274.789062 151.015625 C 274.066406 151.433594 273.820312 152.355469 274.238281 153.082031 L 277.863281 159.359375 " fill-opacity="1" fill-rule="nonzero"/></g></g></g><g clip-path="url(#3532f49097)"><g clip-path="url(#c0afbbce9b)"><g clip-path="url(#40ce48c571)"><path fill="#5648cc" d="M 283.429688 185.796875 L 289.792969 182.125 C 290.019531 181.992188 290.097656 181.699219 289.964844 181.472656 L 289.222656 180.183594 L 282.035156 184.332031 L 282.777344 185.621094 C 282.910156 185.847656 283.203125 185.925781 283.429688 185.796875 Z M 284.753906 159.644531 L 284.503906 159.210938 C 283.980469 158.304688 282.824219 157.988281 281.929688 158.507812 L 266.917969 167.171875 C 266.019531 167.6875 265.714844 168.847656 266.238281 169.75 L 266.488281 170.183594 Z M 286.933594 177.359375 L 278.953125 173.179688 L 284.171875 170.175781 L 278.285156 167.617188 L 274.421875 169.851562 L 278.324219 171.746094 L 275.117188 173.597656 Z M 278.9375 183.410156 L 271.472656 178.429688 C 271.230469 178.269531 271.027344 178.050781 270.878906 177.796875 L 267.132812 171.308594 L 285.402344 160.765625 L 289.144531 167.253906 C 289.292969 167.507812 289.378906 167.796875 289.398438 168.085938 L 289.976562 177.042969 C 290.023438 177.761719 289.667969 178.433594 289.046875 178.792969 L 280.917969 183.480469 C 280.296875 183.839844 279.539062 183.8125 278.9375 183.410156 " fill-opacity="1" fill-rule="nonzero"/></g></g></g><g clip-path="url(#c6961f9cc6)"><g clip-path="url(#60ebe8ec54)"><g clip-path="url(#0109561836)"><g clip-path="url(#fb6a801188)"><g clip-path="url(#1e17a0a58c)"><path fill="#5648cc" d="M 270.035156 199.808594 L 271.964844 198.722656 C 274.652344 197.207031 278.035156 197.972656 279.667969 200.46875 C 279.742188 200.578125 279.8125 200.691406 279.878906 200.804688 L 280.625 202.101562 C 282.769531 205.820312 287.535156 207.105469 291.25 204.960938 C 294.960938 202.820312 296.234375 198.050781 294.089844 194.328125 L 288.359375 184.402344 L 286.121094 185.695312 L 291.847656 195.621094 C 293.28125 198.105469 292.429688 201.289062 289.953125 202.71875 C 287.476562 204.144531 284.296875 203.289062 282.863281 200.808594 L 282.117188 199.515625 C 282.027344 199.355469 281.933594 199.199219 281.832031 199.050781 C 279.457031 195.417969 274.5625 194.28125 270.691406 196.464844 L 268.761719 197.550781 L 270.035156 199.808594 " fill-opacity="1" fill-rule="nonzero"/></g></g></g></g></g><g clip-path="url(#e6116729a2)"><g clip-path="url(#43ccec2920)"><path fill="#ffffff" d="M 263.578125 194.183594 L 268.585938 190.695312 L 272.078125 195.703125 L 267.070312 199.191406 L 263.578125 194.183594 " fill-opacity="1" fill-rule="nonzero"/></g></g><g clip-path="url(#cb2f8b9f0a)"><path fill="#5648cc" d="M 360.480469 159.191406 L 328.855469 159.191406 C 327.921875 159.191406 327.128906 159.976562 327.128906 160.90625 L 327.128906 206.308594 C 327.128906 207.238281 327.921875 208.027344 328.855469 208.027344 L 360.480469 208.027344 C 361.414062 208.027344 362.203125 207.238281 362.203125 206.308594 L 362.203125 160.976562 C 362.203125 159.976562 361.414062 159.191406 360.480469 159.191406 Z M 358.683594 204.59375 L 330.652344 204.59375 L 330.652344 162.695312 L 358.753906 162.695312 Z M 358.683594 204.59375 " fill-opacity="1" fill-rule="nonzero"/></g><path fill="#5648cc" d="M 341.074219 173.5625 C 341.648438 173.5625 342.152344 173.0625 342.152344 172.488281 L 342.152344 170.558594 C 342.152344 169.988281 341.648438 169.488281 341.074219 169.488281 C 340.5 169.488281 339.996094 169.988281 339.996094 170.558594 L 339.996094 172.488281 C 339.996094 173.0625 340.5 173.5625 341.074219 173.5625 Z M 341.074219 173.5625 " fill-opacity="1" fill-rule="nonzero"/><path fill="#5648cc" d="M 348.261719 173.5625 C 348.835938 173.5625 349.339844 173.0625 349.339844 172.488281 L 349.339844 170.558594 C 349.339844 169.988281 348.835938 169.488281 348.261719 169.488281 C 347.6875 169.488281 347.183594 169.988281 347.183594 170.558594 L 347.183594 172.488281 C 347.253906 173.0625 347.6875 173.5625 348.261719 173.5625 Z M 348.261719 173.5625 " fill-opacity="1" fill-rule="nonzero"/><path fill="#5648cc" d="M 344.667969 178.28125 C 345.242188 178.28125 345.746094 177.78125 345.746094 177.210938 L 345.746094 174.992188 L 343.660156 174.992188 L 343.660156 177.210938 C 343.589844 177.78125 344.09375 178.28125 344.667969 178.28125 Z M 344.667969 178.28125 " fill-opacity="1" fill-rule="nonzero"/><path fill="#5648cc" d="M 342.367188 182.429688 C 342.367188 182.429688 342.4375 182.429688 342.367188 182.429688 L 346.824219 182.429688 C 351.855469 182.429688 355.089844 178.996094 355.089844 173.632812 C 355.089844 168.273438 351.855469 164.839844 346.824219 164.839844 L 342.367188 164.839844 C 337.410156 164.910156 334.175781 168.34375 334.175781 173.632812 C 334.175781 178.925781 337.410156 182.355469 342.367188 182.429688 Z M 342.511719 166.914062 L 346.824219 166.914062 C 350.703125 166.914062 353.003906 169.414062 353.003906 173.632812 C 353.003906 177.851562 350.703125 180.355469 346.824219 180.355469 L 342.511719 180.355469 C 338.628906 180.355469 336.332031 177.851562 336.332031 173.632812 C 336.332031 169.414062 338.628906 166.914062 342.511719 166.914062 Z M 342.511719 166.914062 " fill-opacity="1" fill-rule="nonzero"/><path fill="#5648cc" d="M 341.074219 193.652344 C 341.648438 193.652344 342.152344 193.152344 342.152344 192.582031 L 342.152344 190.652344 C 342.152344 190.078125 341.648438 189.578125 341.074219 189.578125 C 340.5 189.578125 339.996094 190.078125 339.996094 190.652344 L 339.996094 192.582031 C 339.996094 193.152344 340.5 193.652344 341.074219 193.652344 Z M 341.074219 193.652344 " fill-opacity="1" fill-rule="nonzero"/><path fill="#5648cc" d="M 348.261719 193.652344 C 348.835938 193.652344 349.339844 193.152344 349.339844 192.582031 L 349.339844 190.652344 C 349.339844 190.078125 348.835938 189.578125 348.261719 189.578125 C 347.6875 189.578125 347.183594 190.078125 347.183594 190.652344 L 347.183594 192.582031 C 347.253906 193.152344 347.6875 193.652344 348.261719 193.652344 Z M 348.261719 193.652344 " fill-opacity="1" fill-rule="nonzero"/><path fill="#5648cc" d="M 344.667969 198.375 C 345.242188 198.375 345.746094 197.871094 345.746094 197.300781 L 345.746094 195.085938 L 343.660156 195.085938 L 343.660156 197.300781 C 343.589844 197.871094 344.09375 198.375 344.667969 198.375 Z M 344.667969 198.375 " fill-opacity="1" fill-rule="nonzero"/><path fill="#5648cc" d="M 342.367188 202.519531 C 342.367188 202.519531 342.4375 202.519531 342.367188 202.519531 L 346.824219 202.519531 C 351.855469 202.519531 355.089844 199.089844 355.089844 193.726562 C 355.089844 188.363281 351.855469 184.929688 346.824219 184.929688 L 342.367188 184.929688 C 337.410156 185.003906 334.175781 188.433594 334.175781 193.726562 C 334.175781 199.015625 337.410156 202.449219 342.367188 202.519531 Z M 342.511719 187.003906 L 346.824219 187.003906 C 350.703125 187.003906 353.003906 189.507812 353.003906 193.726562 C 353.003906 197.945312 350.703125 200.445312 346.824219 200.445312 L 342.511719 200.445312 C 338.628906 200.445312 336.332031 197.945312 336.332031 193.726562 C 336.332031 189.507812 338.628906 187.003906 342.511719 187.003906 Z M 342.511719 187.003906 " fill-opacity="1" fill-rule="nonzero"/><g fill="#224c8d" fill-opacity="1"><g transform="translate(190.228596, 33.901351)"><g><path d="M 18.40625 -8.578125 L 22.1875 -8.578125 L 22.1875 -3.96875 L 18.40625 -3.96875 L 18.40625 0 L 13.109375 0 L 13.109375 -4.015625 L 3.90625 -4.015625 L 1.671875 -6.875 L 14.328125 -24.71875 L 18.40625 -24.71875 Z M 13.109375 -15.90625 L 12.3125 -14.40625 L 8.6875 -9.140625 L 8.09375 -8.578125 L 13.109375 -8.578125 Z M 13.109375 -15.90625 "/></g></g></g><g fill="#224c8d" fill-opacity="1"><g transform="translate(214.083814, 33.901351)"><g><path d="M 11.015625 -25.046875 C 12.410156 -25.046875 13.703125 -24.773438 14.890625 -24.234375 C 16.078125 -23.703125 17.085938 -22.925781 17.921875 -21.90625 C 18.734375 -20.90625 19.378906 -19.71875 19.859375 -18.34375 C 20.335938 -16.96875 20.578125 -15.429688 20.578125 -13.734375 L 20.578125 -10.703125 C 20.578125 -9.097656 20.332031 -7.628906 19.84375 -6.296875 C 19.351562 -4.960938 18.679688 -3.796875 17.828125 -2.796875 C 16.960938 -1.765625 15.945312 -0.988281 14.78125 -0.46875 C 13.625 0.0507812 12.367188 0.3125 11.015625 0.3125 C 9.691406 0.3125 8.441406 0.0351562 7.265625 -0.515625 C 6.097656 -1.078125 5.070312 -1.878906 4.1875 -2.921875 C 3.34375 -3.921875 2.671875 -5.082031 2.171875 -6.40625 C 1.679688 -7.738281 1.4375 -9.171875 1.4375 -10.703125 L 1.4375 -13.734375 C 1.4375 -15.410156 1.664062 -16.941406 2.125 -18.328125 C 2.59375 -19.710938 3.234375 -20.890625 4.046875 -21.859375 C 4.878906 -22.910156 5.894531 -23.703125 7.09375 -24.234375 C 8.289062 -24.773438 9.597656 -25.046875 11.015625 -25.046875 Z M 15.234375 -13.5625 C 15.234375 -15.800781 14.796875 -17.523438 13.921875 -18.734375 C 13.191406 -19.734375 12.203125 -20.234375 10.953125 -20.234375 C 9.691406 -20.234375 8.703125 -19.734375 7.984375 -18.734375 C 7.097656 -17.523438 6.65625 -15.800781 6.65625 -13.5625 L 6.65625 -10.953125 C 6.65625 -9.972656 6.769531 -9.070312 7 -8.25 C 7.238281 -7.425781 7.59375 -6.710938 8.0625 -6.109375 C 8.84375 -5.015625 9.804688 -4.46875 10.953125 -4.46875 C 11.597656 -4.46875 12.179688 -4.625 12.703125 -4.9375 C 13.234375 -5.25 13.679688 -5.6875 14.046875 -6.25 C 14.421875 -6.820312 14.710938 -7.503906 14.921875 -8.296875 C 15.128906 -9.085938 15.234375 -9.972656 15.234375 -10.953125 Z M 15.234375 -13.5625 "/></g></g></g><g fill="#224c8d" fill-opacity="1"><g transform="translate(235.881323, 33.901351)"><g><path d="M 18.40625 -8.578125 L 22.1875 -8.578125 L 22.1875 -3.96875 L 18.40625 -3.96875 L 18.40625 0 L 13.109375 0 L 13.109375 -4.015625 L 3.90625 -4.015625 L 1.671875 -6.875 L 14.328125 -24.71875 L 18.40625 -24.71875 Z M 13.109375 -15.90625 L 12.3125 -14.40625 L 8.6875 -9.140625 L 8.09375 -8.578125 L 13.109375 -8.578125 Z M 13.109375 -15.90625 "/></g></g></g><g fill="#224c8d" fill-opacity="1"><g transform="translate(101.360432, 80.119593)"><g><path d="M 11.921875 -24.71875 C 12.898438 -24.71875 13.816406 -24.53125 14.671875 -24.15625 C 15.535156 -23.789062 16.285156 -23.296875 16.921875 -22.671875 C 17.566406 -22.046875 18.070312 -21.304688 18.4375 -20.453125 C 18.8125 -19.609375 19 -18.695312 19 -17.71875 C 19 -16.738281 18.8125 -15.816406 18.4375 -14.953125 C 18.070312 -14.097656 17.566406 -13.351562 16.921875 -12.71875 C 16.285156 -12.09375 15.535156 -11.597656 14.671875 -11.234375 C 13.816406 -10.878906 12.898438 -10.703125 11.921875 -10.703125 L 5.515625 -10.671875 L 5.515625 0 L 1.890625 0 L 1.890625 -24.71875 Z M 11.921875 -14.09375 C 12.410156 -14.09375 12.867188 -14.191406 13.296875 -14.390625 C 13.734375 -14.585938 14.113281 -14.847656 14.4375 -15.171875 C 14.757812 -15.492188 15.015625 -15.878906 15.203125 -16.328125 C 15.390625 -16.785156 15.484375 -17.269531 15.484375 -17.78125 C 15.484375 -18.289062 15.390625 -18.765625 15.203125 -19.203125 C 15.015625 -19.648438 14.757812 -20.039062 14.4375 -20.375 C 14.113281 -20.71875 13.734375 -20.988281 13.296875 -21.1875 C 12.867188 -21.382812 12.410156 -21.484375 11.921875 -21.484375 L 5.515625 -21.484375 L 5.515625 -14.09375 Z M 11.921875 -14.09375 "/></g></g></g><g fill="#224c8d" fill-opacity="1"><g transform="translate(121.658281, 80.119593)"><g><path d="M 17.78125 -16.703125 L 17.78125 0 L 14.921875 0 L 14.40625 -1.921875 C 13.820312 -1.148438 13.078125 -0.566406 12.171875 -0.171875 C 11.265625 0.222656 10.347656 0.421875 9.421875 0.421875 C 8.253906 0.421875 7.164062 0.195312 6.15625 -0.25 C 5.144531 -0.707031 4.257812 -1.332031 3.5 -2.125 C 2.75 -2.914062 2.148438 -3.84375 1.703125 -4.90625 C 1.265625 -5.976562 1.046875 -7.117188 1.046875 -8.328125 C 1.046875 -9.546875 1.265625 -10.6875 1.703125 -11.75 C 2.148438 -12.820312 2.75 -13.753906 3.5 -14.546875 C 4.257812 -15.335938 5.144531 -15.957031 6.15625 -16.40625 C 7.164062 -16.863281 8.253906 -17.09375 9.421875 -17.09375 C 10.347656 -17.09375 11.238281 -16.910156 12.09375 -16.546875 C 12.957031 -16.179688 13.726562 -15.617188 14.40625 -14.859375 L 14.921875 -16.703125 Z M 9.421875 -2.578125 C 10.085938 -2.578125 10.722656 -2.726562 11.328125 -3.03125 C 11.929688 -3.332031 12.453125 -3.742188 12.890625 -4.265625 C 13.335938 -4.796875 13.6875 -5.410156 13.9375 -6.109375 C 14.195312 -6.804688 14.328125 -7.546875 14.328125 -8.328125 C 14.328125 -9.117188 14.195312 -9.863281 13.9375 -10.5625 C 13.6875 -11.257812 13.335938 -11.867188 12.890625 -12.390625 C 12.453125 -12.921875 11.929688 -13.335938 11.328125 -13.640625 C 10.722656 -13.941406 10.085938 -14.09375 9.421875 -14.09375 C 8.742188 -14.09375 8.101562 -13.941406 7.5 -13.640625 C 6.894531 -13.335938 6.367188 -12.921875 5.921875 -12.390625 C 5.484375 -11.867188 5.132812 -11.257812 4.875 -10.5625 C 4.625 -9.863281 4.5 -9.117188 4.5 -8.328125 C 4.5 -7.546875 4.625 -6.804688 4.875 -6.109375 C 5.132812 -5.410156 5.484375 -4.796875 5.921875 -4.265625 C 6.367188 -3.742188 6.894531 -3.332031 7.5 -3.03125 C 8.101562 -2.726562 8.742188 -2.578125 9.421875 -2.578125 Z M 9.421875 -2.578125 "/></g></g></g><g fill="#224c8d" fill-opacity="1"><g transform="translate(140.944741, 80.119593)"><g><path d="M 9.5625 -0.84375 C 8.394531 -0.84375 7.320312 -1.054688 6.34375 -1.484375 C 5.363281 -1.910156 4.515625 -2.5 3.796875 -3.25 C 3.078125 -4.007812 2.515625 -4.882812 2.109375 -5.875 C 1.703125 -6.863281 1.5 -7.914062 1.5 -9.03125 C 1.5 -10.144531 1.703125 -11.191406 2.109375 -12.171875 C 2.515625 -13.148438 3.078125 -14.003906 3.796875 -14.734375 C 4.515625 -15.460938 5.363281 -16.035156 6.34375 -16.453125 C 7.320312 -16.878906 8.394531 -17.09375 9.5625 -17.09375 C 10.71875 -17.09375 11.722656 -16.914062 12.578125 -16.5625 C 13.441406 -16.21875 14.203125 -15.71875 14.859375 -15.0625 L 15.546875 -16.703125 L 18.203125 -16.703125 C 18.203125 -16.628906 18.203125 -16.539062 18.203125 -16.4375 C 18.203125 -16.332031 18.203125 -16.128906 18.203125 -15.828125 C 18.203125 -15.523438 18.203125 -15.09375 18.203125 -14.53125 C 18.203125 -13.976562 18.203125 -13.210938 18.203125 -12.234375 C 18.203125 -11.265625 18.207031 -10.046875 18.21875 -8.578125 C 18.226562 -7.109375 18.234375 -5.332031 18.234375 -3.25 C 18.234375 -2.550781 18.207031 -1.867188 18.15625 -1.203125 C 18.113281 -0.535156 18.015625 0.101562 17.859375 0.71875 C 17.710938 1.332031 17.492188 1.921875 17.203125 2.484375 C 16.921875 3.054688 16.535156 3.613281 16.046875 4.15625 C 15.109375 5.125 14.050781 5.773438 12.875 6.109375 C 11.707031 6.453125 10.472656 6.625 9.171875 6.625 C 8.054688 6.625 7.003906 6.484375 6.015625 6.203125 C 5.023438 5.929688 4.132812 5.5625 3.34375 5.09375 L 3.34375 1.328125 C 3.8125 2.003906 4.539062 2.550781 5.53125 2.96875 C 6.519531 3.382812 7.640625 3.59375 8.890625 3.59375 C 9.734375 3.59375 10.515625 3.476562 11.234375 3.25 C 11.953125 3.03125 12.578125 2.691406 13.109375 2.234375 C 13.648438 1.785156 14.078125 1.203125 14.390625 0.484375 C 14.703125 -0.234375 14.859375 -1.09375 14.859375 -2.09375 L 14.859375 -2.75 C 14.578125 -2.5 14.234375 -2.253906 13.828125 -2.015625 C 13.421875 -1.785156 12.976562 -1.582031 12.5 -1.40625 C 12.019531 -1.238281 11.523438 -1.101562 11.015625 -1 C 10.503906 -0.894531 10.019531 -0.84375 9.5625 -0.84375 Z M 9.875 -14.015625 C 9.195312 -14.015625 8.554688 -13.882812 7.953125 -13.625 C 7.347656 -13.375 6.816406 -13.019531 6.359375 -12.5625 C 5.910156 -12.113281 5.554688 -11.585938 5.296875 -10.984375 C 5.046875 -10.378906 4.921875 -9.726562 4.921875 -9.03125 C 4.921875 -8.332031 5.046875 -7.675781 5.296875 -7.0625 C 5.554688 -6.445312 5.910156 -5.910156 6.359375 -5.453125 C 6.816406 -5.003906 7.347656 -4.644531 7.953125 -4.375 C 8.554688 -4.101562 9.195312 -3.96875 9.875 -3.96875 C 10.539062 -3.96875 11.175781 -4.070312 11.78125 -4.28125 C 12.382812 -4.5 12.90625 -4.816406 13.34375 -5.234375 C 13.789062 -5.648438 14.140625 -6.171875 14.390625 -6.796875 C 14.648438 -7.429688 14.78125 -8.175781 14.78125 -9.03125 C 14.78125 -9.9375 14.648438 -10.707031 14.390625 -11.34375 C 14.140625 -11.988281 13.789062 -12.507812 13.34375 -12.90625 C 12.90625 -13.300781 12.382812 -13.582031 11.78125 -13.75 C 11.175781 -13.925781 10.539062 -14.015625 9.875 -14.015625 Z M 9.875 -14.015625 "/></g></g></g><g fill="#224c8d" fill-opacity="1"><g transform="translate(161.556503, 80.119593)"><g><path d="M 9.875 0.421875 C 8.664062 0.421875 7.53125 0.195312 6.46875 -0.25 C 5.40625 -0.707031 4.476562 -1.332031 3.6875 -2.125 C 2.90625 -2.914062 2.285156 -3.84375 1.828125 -4.90625 C 1.378906 -5.976562 1.15625 -7.117188 1.15625 -8.328125 C 1.15625 -9.546875 1.367188 -10.6875 1.796875 -11.75 C 2.222656 -12.820312 2.800781 -13.753906 3.53125 -14.546875 C 4.269531 -15.335938 5.125 -15.957031 6.09375 -16.40625 C 7.070312 -16.863281 8.117188 -17.09375 9.234375 -17.09375 C 10.378906 -17.09375 11.429688 -16.894531 12.390625 -16.5 C 13.359375 -16.101562 14.195312 -15.484375 14.90625 -14.640625 C 15.613281 -13.804688 16.164062 -12.742188 16.5625 -11.453125 C 16.957031 -10.160156 17.15625 -8.617188 17.15625 -6.828125 L 4.75 -6.828125 C 4.90625 -6.222656 5.15625 -5.660156 5.5 -5.140625 C 5.851562 -4.617188 6.269531 -4.164062 6.75 -3.78125 C 7.226562 -3.394531 7.757812 -3.097656 8.34375 -2.890625 C 8.9375 -2.679688 9.5625 -2.578125 10.21875 -2.578125 C 11.101562 -2.578125 11.921875 -2.738281 12.671875 -3.0625 C 13.429688 -3.394531 14.078125 -3.828125 14.609375 -4.359375 L 16.703125 -2.265625 C 15.890625 -1.453125 14.894531 -0.800781 13.71875 -0.3125 C 12.550781 0.175781 11.269531 0.421875 9.875 0.421875 Z M 9.234375 -14.015625 C 8.703125 -14.015625 8.195312 -13.910156 7.71875 -13.703125 C 7.25 -13.492188 6.8125 -13.203125 6.40625 -12.828125 C 6 -12.460938 5.648438 -12.019531 5.359375 -11.5 C 5.066406 -10.988281 4.847656 -10.429688 4.703125 -9.828125 L 13.53125 -9.828125 C 13.488281 -10.390625 13.359375 -10.925781 13.140625 -11.4375 C 12.929688 -11.945312 12.640625 -12.394531 12.265625 -12.78125 C 11.898438 -13.164062 11.46875 -13.46875 10.96875 -13.6875 C 10.46875 -13.90625 9.890625 -14.015625 9.234375 -14.015625 Z M 9.234375 -14.015625 "/></g></g></g><g fill="#224c8d" fill-opacity="1"><g transform="translate(180.040821, 80.119593)"><g/></g></g><g fill="#224c8d" fill-opacity="1"><g transform="translate(189.143489, 80.119593)"><g><path d="M 23.265625 -24.71875 L 23.265625 0 L 19.5625 0 L 5.75 -18.96875 L 5.75 0 L 1.953125 0 L 1.953125 -24.71875 L 5.796875 -24.71875 L 19.59375 -5.65625 L 19.59375 -24.71875 Z M 23.265625 -24.71875 "/></g></g></g><g fill="#224c8d" fill-opacity="1"><g transform="translate(214.428632, 80.119593)"><g><path d="M 9.28125 0.421875 C 8.113281 0.421875 7.023438 0.195312 6.015625 -0.25 C 5.003906 -0.707031 4.117188 -1.332031 3.359375 -2.125 C 2.609375 -2.914062 2.007812 -3.84375 1.5625 -4.90625 C 1.125 -5.976562 0.90625 -7.117188 0.90625 -8.328125 C 0.90625 -9.546875 1.125 -10.6875 1.5625 -11.75 C 2.007812 -12.820312 2.609375 -13.753906 3.359375 -14.546875 C 4.117188 -15.335938 5.003906 -15.957031 6.015625 -16.40625 C 7.023438 -16.863281 8.113281 -17.09375 9.28125 -17.09375 C 10.414062 -17.09375 11.492188 -16.863281 12.515625 -16.40625 C 13.535156 -15.957031 14.425781 -15.335938 15.1875 -14.546875 C 15.945312 -13.753906 16.546875 -12.820312 16.984375 -11.75 C 17.421875 -10.6875 17.640625 -9.546875 17.640625 -8.328125 C 17.640625 -7.117188 17.421875 -5.976562 16.984375 -4.90625 C 16.546875 -3.84375 15.945312 -2.914062 15.1875 -2.125 C 14.425781 -1.332031 13.535156 -0.707031 12.515625 -0.25 C 11.492188 0.195312 10.414062 0.421875 9.28125 0.421875 Z M 9.28125 -14.046875 C 8.601562 -14.046875 7.960938 -13.894531 7.359375 -13.59375 C 6.753906 -13.289062 6.222656 -12.882812 5.765625 -12.375 C 5.316406 -11.863281 4.960938 -11.257812 4.703125 -10.5625 C 4.453125 -9.863281 4.328125 -9.117188 4.328125 -8.328125 C 4.328125 -7.546875 4.453125 -6.804688 4.703125 -6.109375 C 4.960938 -5.410156 5.316406 -4.796875 5.765625 -4.265625 C 6.222656 -3.742188 6.753906 -3.332031 7.359375 -3.03125 C 7.960938 -2.726562 8.601562 -2.578125 9.28125 -2.578125 C 9.945312 -2.578125 10.582031 -2.726562 11.1875 -3.03125 C 11.800781 -3.332031 12.328125 -3.742188 12.765625 -4.265625 C 13.203125 -4.796875 13.546875 -5.410156 13.796875 -6.109375 C 14.054688 -6.804688 14.1875 -7.546875 14.1875 -8.328125 C 14.1875 -9.117188 14.054688 -9.863281 13.796875 -10.5625 C 13.546875 -11.257812 13.203125 -11.863281 12.765625 -12.375 C 12.328125 -12.882812 11.800781 -13.289062 11.1875 -13.59375 C 10.582031 -13.894531 9.945312 -14.046875 9.28125 -14.046875 Z M 9.28125 -14.046875 "/></g></g></g><g fill="#224c8d" fill-opacity="1"><g transform="translate(232.843173, 80.119593)"><g><path d="M 11.015625 -0.03125 C 10.066406 0.289062 9.125 0.484375 8.1875 0.546875 C 7.257812 0.617188 6.421875 0.488281 5.671875 0.15625 C 4.929688 -0.175781 4.328125 -0.765625 3.859375 -1.609375 C 3.398438 -2.460938 3.171875 -3.660156 3.171875 -5.203125 L 3.171875 -13.671875 L 0.734375 -13.671875 L 0.734375 -16 L 3.171875 -16.703125 L 3.171875 -21.171875 L 6.5625 -21.171875 L 6.5625 -16.703125 L 11.09375 -16.703125 L 11.09375 -13.671875 L 6.5625 -13.671875 L 6.5625 -4.671875 C 6.5625 -4.117188 6.625 -3.675781 6.75 -3.34375 C 6.875 -3.019531 7.085938 -2.773438 7.390625 -2.609375 C 7.691406 -2.453125 8.085938 -2.375 8.578125 -2.375 C 9.066406 -2.375 9.660156 -2.421875 10.359375 -2.515625 Z M 11.015625 -0.03125 "/></g></g></g><g fill="#224c8d" fill-opacity="1"><g transform="translate(244.770761, 80.119593)"><g/></g></g><g fill="#224c8d" fill-opacity="1"><g transform="translate(253.873429, 80.119593)"><g><path d="M 18.625 -24.71875 L 18.625 -21.453125 L 5.578125 -21.453125 L 5.578125 -14.71875 L 17.40625 -14.71875 L 17.40625 -11.328125 L 5.578125 -11.328125 L 5.578125 0 L 1.953125 0 L 1.953125 -24.71875 Z M 18.625 -24.71875 "/></g></g></g><g fill="#224c8d" fill-opacity="1"><g transform="translate(272.706506, 80.119593)"><g><path d="M 9.28125 0.421875 C 8.113281 0.421875 7.023438 0.195312 6.015625 -0.25 C 5.003906 -0.707031 4.117188 -1.332031 3.359375 -2.125 C 2.609375 -2.914062 2.007812 -3.84375 1.5625 -4.90625 C 1.125 -5.976562 0.90625 -7.117188 0.90625 -8.328125 C 0.90625 -9.546875 1.125 -10.6875 1.5625 -11.75 C 2.007812 -12.820312 2.609375 -13.753906 3.359375 -14.546875 C 4.117188 -15.335938 5.003906 -15.957031 6.015625 -16.40625 C 7.023438 -16.863281 8.113281 -17.09375 9.28125 -17.09375 C 10.414062 -17.09375 11.492188 -16.863281 12.515625 -16.40625 C 13.535156 -15.957031 14.425781 -15.335938 15.1875 -14.546875 C 15.945312 -13.753906 16.546875 -12.820312 16.984375 -11.75 C 17.421875 -10.6875 17.640625 -9.546875 17.640625 -8.328125 C 17.640625 -7.117188 17.421875 -5.976562 16.984375 -4.90625 C 16.546875 -3.84375 15.945312 -2.914062 15.1875 -2.125 C 14.425781 -1.332031 13.535156 -0.707031 12.515625 -0.25 C 11.492188 0.195312 10.414062 0.421875 9.28125 0.421875 Z M 9.28125 -14.046875 C 8.601562 -14.046875 7.960938 -13.894531 7.359375 -13.59375 C 6.753906 -13.289062 6.222656 -12.882812 5.765625 -12.375 C 5.316406 -11.863281 4.960938 -11.257812 4.703125 -10.5625 C 4.453125 -9.863281 4.328125 -9.117188 4.328125 -8.328125 C 4.328125 -7.546875 4.453125 -6.804688 4.703125 -6.109375 C 4.960938 -5.410156 5.316406 -4.796875 5.765625 -4.265625 C 6.222656 -3.742188 6.753906 -3.332031 7.359375 -3.03125 C 7.960938 -2.726562 8.601562 -2.578125 9.28125 -2.578125 C 9.945312 -2.578125 10.582031 -2.726562 11.1875 -3.03125 C 11.800781 -3.332031 12.328125 -3.742188 12.765625 -4.265625 C 13.203125 -4.796875 13.546875 -5.410156 13.796875 -6.109375 C 14.054688 -6.804688 14.1875 -7.546875 14.1875 -8.328125 C 14.1875 -9.117188 14.054688 -9.863281 13.796875 -10.5625 C 13.546875 -11.257812 13.203125 -11.863281 12.765625 -12.375 C 12.328125 -12.882812 11.800781 -13.289062 11.1875 -13.59375 C 10.582031 -13.894531 9.945312 -14.046875 9.28125 -14.046875 Z M 9.28125 -14.046875 "/></g></g></g><g fill="#224c8d" fill-opacity="1"><g transform="translate(291.121048, 80.119593)"><g><path d="M 13.25 -1.5 C 12.664062 -0.96875 11.984375 -0.523438 11.203125 -0.171875 C 10.429688 0.171875 9.566406 0.34375 8.609375 0.34375 C 8.003906 0.34375 7.316406 0.253906 6.546875 0.078125 C 5.785156 -0.0859375 5.070312 -0.425781 4.40625 -0.9375 C 3.75 -1.445312 3.191406 -2.148438 2.734375 -3.046875 C 2.285156 -3.941406 2.0625 -5.113281 2.0625 -6.5625 L 2.0625 -16.703125 L 5.265625 -16.703125 L 5.265625 -6.5625 C 5.265625 -5.832031 5.375 -5.21875 5.59375 -4.71875 C 5.8125 -4.21875 6.101562 -3.816406 6.46875 -3.515625 C 6.832031 -3.210938 7.242188 -2.992188 7.703125 -2.859375 C 8.171875 -2.722656 8.648438 -2.65625 9.140625 -2.65625 C 9.503906 -2.65625 9.925781 -2.722656 10.40625 -2.859375 C 10.882812 -2.992188 11.332031 -3.21875 11.75 -3.53125 C 12.164062 -3.851562 12.519531 -4.253906 12.8125 -4.734375 C 13.101562 -5.222656 13.25 -5.816406 13.25 -6.515625 L 13.25 -16.703125 L 16.640625 -16.703125 L 16.640625 0 L 13.953125 0 Z M 13.25 -1.5 "/></g></g></g><g fill="#224c8d" fill-opacity="1"><g transform="translate(309.779725, 80.119593)"><g><path d="M 5.265625 0 L 1.890625 0 L 1.890625 -16.703125 L 4.5625 -16.703125 L 5.265625 -15.234375 C 5.828125 -15.773438 6.5 -16.21875 7.28125 -16.5625 C 8.070312 -16.914062 8.9375 -17.09375 9.875 -17.09375 C 10.476562 -17.09375 11.160156 -17 11.921875 -16.8125 C 12.691406 -16.625 13.40625 -16.273438 14.0625 -15.765625 C 14.726562 -15.253906 15.285156 -14.546875 15.734375 -13.640625 C 16.191406 -12.734375 16.421875 -11.554688 16.421875 -10.109375 L 16.421875 0 L 13.21875 0 L 13.21875 -10.15625 C 13.21875 -10.875 13.109375 -11.484375 12.890625 -11.984375 C 12.671875 -12.484375 12.378906 -12.882812 12.015625 -13.1875 C 11.648438 -13.488281 11.238281 -13.703125 10.78125 -13.828125 C 10.332031 -13.953125 9.863281 -14.015625 9.375 -14.015625 C 9.007812 -14.015625 8.585938 -13.941406 8.109375 -13.796875 C 7.628906 -13.660156 7.179688 -13.4375 6.765625 -13.125 C 6.347656 -12.8125 5.992188 -12.414062 5.703125 -11.9375 C 5.410156 -11.46875 5.265625 -10.882812 5.265625 -10.1875 Z M 5.265625 0 "/></g></g></g><g fill="#224c8d" fill-opacity="1"><g transform="translate(328.403514, 80.119593)"><g><path d="M 17.921875 -25.453125 L 17.921875 0 L 15.234375 0 L 14.546875 -1.75 C 13.867188 -1.070312 13.097656 -0.539062 12.234375 -0.15625 C 11.378906 0.226562 10.394531 0.421875 9.28125 0.421875 C 8.113281 0.421875 7.039062 0.195312 6.0625 -0.25 C 5.09375 -0.707031 4.242188 -1.332031 3.515625 -2.125 C 2.796875 -2.914062 2.234375 -3.84375 1.828125 -4.90625 C 1.421875 -5.976562 1.21875 -7.117188 1.21875 -8.328125 C 1.21875 -9.546875 1.421875 -10.6875 1.828125 -11.75 C 2.234375 -12.820312 2.796875 -13.753906 3.515625 -14.546875 C 4.242188 -15.335938 5.09375 -15.957031 6.0625 -16.40625 C 7.039062 -16.863281 8.113281 -17.09375 9.28125 -17.09375 C 10.4375 -17.09375 11.441406 -16.898438 12.296875 -16.515625 C 13.160156 -16.128906 13.910156 -15.585938 14.546875 -14.890625 L 14.546875 -25.453125 Z M 9.5625 -2.578125 C 10.257812 -2.578125 10.898438 -2.691406 11.484375 -2.921875 C 12.078125 -3.160156 12.597656 -3.515625 13.046875 -3.984375 C 13.503906 -4.460938 13.863281 -5.0625 14.125 -5.78125 C 14.382812 -6.507812 14.515625 -7.359375 14.515625 -8.328125 C 14.515625 -9.378906 14.382812 -10.265625 14.125 -10.984375 C 13.863281 -11.703125 13.503906 -12.285156 13.046875 -12.734375 C 12.597656 -13.191406 12.078125 -13.519531 11.484375 -13.71875 C 10.898438 -13.914062 10.257812 -14.015625 9.5625 -14.015625 C 8.882812 -14.015625 8.242188 -13.867188 7.640625 -13.578125 C 7.035156 -13.285156 6.507812 -12.882812 6.0625 -12.375 C 5.625 -11.863281 5.273438 -11.257812 5.015625 -10.5625 C 4.765625 -9.863281 4.640625 -9.117188 4.640625 -8.328125 C 4.640625 -7.546875 4.765625 -6.804688 5.015625 -6.109375 C 5.273438 -5.410156 5.625 -4.796875 6.0625 -4.265625 C 6.507812 -3.742188 7.035156 -3.332031 7.640625 -3.03125 C 8.242188 -2.726562 8.882812 -2.578125 9.5625 -2.578125 Z M 9.5625 -2.578125 "/></g></g></g></svg>