<svg xmlns="http://www.w3.org/2000/svg" xmlns:xlink="http://www.w3.org/1999/xlink" width="314" zoomAndPan="magnify" viewBox="0 0 235.5 44.999999" height="60" preserveAspectRatio="xMidYMid meet" version="1.0"><defs><g/><clipPath id="18e563674e"><path d="M 0 0.046875 L 235 0.046875 L 235 44.953125 L 0 44.953125 Z M 0 0.046875 " clip-rule="nonzero"/></clipPath><clipPath id="06701155c6"><path d="M 31.515625 26.429688 L 36.015625 26.429688 L 36.015625 30.929688 L 31.515625 30.929688 Z M 31.515625 26.429688 " clip-rule="nonzero"/></clipPath><clipPath id="e204fa9821"><path d="M 20 8 L 47 8 L 47 42.046875 L 20 42.046875 Z M 20 8 " clip-rule="nonzero"/></clipPath><clipPath id="fd6ca376c4"><path d="M 12.796875 21 L 19 21 L 19 23 L 12.796875 23 Z M 12.796875 21 " clip-rule="nonzero"/></clipPath><clipPath id="0e54b109b3"><path d="M 48 21 L 54.796875 21 L 54.796875 23 L 48 23 Z M 48 21 " clip-rule="nonzero"/></clipPath><clipPath id="8580bf268f"><path d="M 33 0.046875 L 35 0.046875 L 35 7 L 33 7 Z M 33 0.046875 " clip-rule="nonzero"/></clipPath><clipPath id="fb71b029b7"><path d="M 23.1875 10.320312 L 43.4375 10.320312 L 43.4375 30.570312 L 23.1875 30.570312 Z M 23.1875 10.320312 " clip-rule="nonzero"/></clipPath><clipPath id="c06ab9572b"><path d="M 32 10.285156 L 35 10.285156 L 35 13 L 32 13 Z M 32 10.285156 " clip-rule="nonzero"/></clipPath><clipPath id="2bdf62b6a2"><path d="M 32 29 L 35 29 L 35 31.285156 L 32 31.285156 Z M 32 29 " clip-rule="nonzero"/></clipPath><clipPath id="0388fe7d10"><path d="M 32 28 L 35 28 L 35 31.285156 L 32 31.285156 Z M 32 28 " clip-rule="nonzero"/></clipPath><clipPath id="a15e4d32d1"><path d="M 41 19 L 44.148438 19 L 44.148438 23 L 41 23 Z M 41 19 " clip-rule="nonzero"/></clipPath><clipPath id="23ead170f1"><path d="M 23.148438 19 L 26 19 L 26 22 L 23.148438 22 Z M 23.148438 19 " clip-rule="nonzero"/></clipPath><clipPath id="2496c85621"><path d="M 23.148438 19 L 26 19 L 26 23 L 23.148438 23 Z M 23.148438 19 " clip-rule="nonzero"/></clipPath><clipPath id="cafd36b684"><path d="M 30 43 L 38 43 L 38 44.953125 L 30 44.953125 Z M 30 43 " clip-rule="nonzero"/></clipPath><clipPath id="1a9747ce02"><path d="M 31 44 L 36 44 L 36 44.953125 L 31 44.953125 Z M 31 44 " clip-rule="nonzero"/></clipPath><clipPath id="060361eed2"><path d="M 28.429688 15.820312 L 38.929688 15.820312 L 38.929688 26.320312 L 28.429688 26.320312 Z M 28.429688 15.820312 " clip-rule="nonzero"/></clipPath></defs><g clip-path="url(#18e563674e)"><path fill="#ffffff" d="M 0 0.046875 L 235.5 0.046875 L 235.5 45.046875 L 0 45.046875 Z M 0 0.046875 " fill-opacity="1" fill-rule="nonzero"/><path fill="#ffffff" d="M 0 0.046875 L 235.5 0.046875 L 235.5 45.046875 L 0 45.046875 Z M 0 0.046875 " fill-opacity="1" fill-rule="nonzero"/></g><g clip-path="url(#06701155c6)"><path fill="#ffffff" d="M 31.515625 26.429688 L 36.015625 26.429688 L 36.015625 30.929688 L 31.515625 30.929688 L 31.515625 26.429688 " fill-opacity="1" fill-rule="nonzero"/></g><path fill="#5648cc" d="M 32 36.105469 C 31.792969 36.105469 31.597656 35.964844 31.542969 35.75 C 31.535156 35.71875 30.671875 32.449219 29.957031 29.664062 C 29.890625 29.40625 30.046875 29.148438 30.300781 29.082031 C 30.554688 29.015625 30.8125 29.167969 30.878906 29.425781 C 31.589844 32.210938 32.453125 35.472656 32.460938 35.503906 C 32.527344 35.761719 32.378906 36.019531 32.125 36.089844 C 32.082031 36.101562 32.042969 36.105469 32 36.105469 " fill-opacity="1" fill-rule="nonzero"/><path fill="#5648cc" d="M 35.375 36.03125 C 35.335938 36.03125 35.292969 36.027344 35.253906 36.019531 C 35 35.953125 34.847656 35.691406 34.914062 35.4375 L 36.460938 29.386719 C 36.523438 29.132812 36.785156 28.980469 37.039062 29.042969 C 37.292969 29.109375 37.445312 29.371094 37.378906 29.625 L 35.832031 35.675781 C 35.777344 35.890625 35.585938 36.03125 35.375 36.03125 " fill-opacity="1" fill-rule="nonzero"/><g clip-path="url(#e204fa9821)"><path fill="#5648cc" d="M 39.648438 31.457031 C 39.5 31.542969 39.410156 31.699219 39.410156 31.871094 L 39.410156 35.183594 L 28.015625 35.183594 L 28.015625 31.871094 C 28.015625 31.699219 27.925781 31.542969 27.777344 31.457031 C 24.089844 29.320312 21.796875 25.339844 21.796875 21.066406 C 21.796875 14.457031 27.140625 9.082031 33.710938 9.082031 C 40.28125 9.082031 45.628906 14.457031 45.628906 21.066406 C 45.628906 25.339844 43.335938 29.320312 39.648438 31.457031 Z M 38.808594 41.054688 L 28.617188 41.054688 C 28.285156 41.054688 28.015625 40.785156 28.015625 40.449219 L 28.015625 36.136719 L 39.410156 36.136719 L 39.410156 40.449219 C 39.410156 40.785156 39.140625 41.054688 38.808594 41.054688 Z M 33.710938 8.128906 C 26.617188 8.128906 20.847656 13.933594 20.847656 21.066406 C 20.847656 25.585938 23.222656 29.804688 27.066406 32.140625 L 27.066406 35.660156 C 27.066406 35.671875 27.070312 35.679688 27.070312 35.6875 C 27.070312 35.699219 27.066406 35.707031 27.066406 35.71875 L 27.066406 40.449219 C 27.066406 41.308594 27.761719 42.011719 28.617188 42.011719 L 38.808594 42.011719 C 39.664062 42.011719 40.359375 41.308594 40.359375 40.449219 L 40.359375 35.6875 C 40.359375 35.683594 40.355469 35.679688 40.355469 35.671875 C 40.355469 35.667969 40.359375 35.664062 40.359375 35.660156 L 40.359375 32.140625 C 44.203125 29.804688 46.578125 25.585938 46.578125 21.066406 C 46.578125 13.933594 40.804688 8.128906 33.710938 8.128906 " fill-opacity="1" fill-rule="nonzero"/></g><g clip-path="url(#fd6ca376c4)"><path fill="#5648cc" d="M 18.40625 22.566406 L 13.273438 22.566406 C 13.011719 22.566406 12.796875 22.351562 12.796875 22.085938 C 12.796875 21.824219 13.011719 21.609375 13.273438 21.609375 L 18.40625 21.609375 C 18.667969 21.609375 18.878906 21.824219 18.878906 22.085938 C 18.878906 22.351562 18.667969 22.566406 18.40625 22.566406 " fill-opacity="1" fill-rule="nonzero"/></g><g clip-path="url(#0e54b109b3)"><path fill="#5648cc" d="M 54.324219 22.691406 L 49.191406 22.691406 C 48.929688 22.691406 48.714844 22.476562 48.714844 22.214844 C 48.714844 21.949219 48.929688 21.734375 49.191406 21.734375 L 54.324219 21.734375 C 54.585938 21.734375 54.796875 21.949219 54.796875 22.214844 C 54.796875 22.476562 54.585938 22.691406 54.324219 22.691406 " fill-opacity="1" fill-rule="nonzero"/></g><path fill="#5648cc" d="M 48.070312 14.890625 C 47.902344 14.890625 47.738281 14.796875 47.652344 14.640625 C 47.53125 14.40625 47.617188 14.117188 47.847656 13.992188 L 52.363281 11.542969 C 52.59375 11.417969 52.882812 11.503906 53.007812 11.738281 C 53.132812 11.96875 53.046875 12.257812 52.816406 12.382812 L 48.296875 14.832031 C 48.226562 14.871094 48.148438 14.890625 48.070312 14.890625 " fill-opacity="1" fill-rule="nonzero"/><path fill="#5648cc" d="M 41.441406 8.183594 C 41.363281 8.183594 41.285156 8.164062 41.214844 8.125 C 40.984375 8 40.898438 7.710938 41.023438 7.476562 L 43.449219 2.929688 C 43.570312 2.699219 43.859375 2.609375 44.089844 2.734375 C 44.320312 2.859375 44.40625 3.148438 44.285156 3.382812 L 41.859375 7.929688 C 41.773438 8.089844 41.609375 8.183594 41.441406 8.183594 " fill-opacity="1" fill-rule="nonzero"/><path fill="#5648cc" d="M 18.449219 14.417969 C 18.375 14.417969 18.296875 14.398438 18.226562 14.359375 L 13.707031 11.910156 C 13.476562 11.785156 13.390625 11.496094 13.515625 11.265625 C 13.640625 11.03125 13.929688 10.945312 14.160156 11.070312 L 18.675781 13.519531 C 18.90625 13.644531 18.992188 13.933594 18.871094 14.167969 C 18.785156 14.328125 18.621094 14.417969 18.449219 14.417969 " fill-opacity="1" fill-rule="nonzero"/><path fill="#5648cc" d="M 25.082031 7.710938 C 24.914062 7.710938 24.75 7.617188 24.664062 7.457031 L 22.238281 2.910156 C 22.113281 2.675781 22.203125 2.386719 22.433594 2.261719 C 22.664062 2.140625 22.953125 2.226562 23.074219 2.457031 L 25.5 7.007812 C 25.625 7.238281 25.539062 7.527344 25.308594 7.652344 C 25.234375 7.691406 25.160156 7.710938 25.082031 7.710938 " fill-opacity="1" fill-rule="nonzero"/><g clip-path="url(#8580bf268f)"><path fill="#5648cc" d="M 33.773438 6.203125 C 33.511719 6.199219 33.296875 5.988281 33.300781 5.722656 L 33.3125 0.5625 C 33.3125 0.296875 33.519531 0.0859375 33.789062 0.0859375 C 34.050781 0.0859375 34.261719 0.300781 34.261719 0.5625 L 34.25 5.726562 C 34.246094 5.988281 34.035156 6.203125 33.773438 6.203125 " fill-opacity="1" fill-rule="nonzero"/></g><path fill="#5648cc" d="M 29.789062 20.453125 C 29.789062 18.328125 31.507812 16.601562 33.621094 16.601562 C 35.734375 16.601562 37.453125 18.328125 37.453125 20.453125 C 37.453125 22.578125 35.734375 24.304688 33.621094 24.304688 C 31.507812 24.304688 29.789062 22.578125 29.789062 20.453125 Z M 39.96875 25.445312 L 38.015625 24.519531 C 37.839844 24.4375 37.632812 24.46875 37.488281 24.605469 C 37.347656 24.738281 37.300781 24.945312 37.371094 25.128906 L 38.164062 27.148438 L 34.847656 28.464844 L 34.039062 26.402344 C 33.96875 26.222656 33.792969 26.101562 33.597656 26.101562 C 33.402344 26.101562 33.230469 26.21875 33.15625 26.398438 L 32.332031 28.453125 L 29.023438 27.109375 L 29.726562 25.359375 C 29.800781 25.175781 29.753906 24.964844 29.613281 24.832031 C 29.46875 24.695312 29.257812 24.664062 29.078125 24.75 L 27.34375 25.605469 L 25.777344 22.378906 L 28.683594 20.953125 C 28.75 20.917969 28.808594 20.871094 28.855469 20.808594 C 29.035156 23.296875 31.105469 25.261719 33.621094 25.261719 C 36.257812 25.261719 38.402344 23.105469 38.402344 20.453125 C 38.402344 17.804688 36.257812 15.648438 33.621094 15.648438 C 31.058594 15.648438 28.964844 17.683594 28.847656 20.230469 C 28.800781 20.171875 28.746094 20.125 28.675781 20.09375 L 25.753906 18.707031 L 27.273438 15.460938 L 29.226562 16.386719 C 29.402344 16.472656 29.609375 16.4375 29.753906 16.304688 C 29.894531 16.171875 29.941406 15.960938 29.871094 15.78125 L 29.078125 13.761719 L 32.394531 12.445312 L 33.203125 14.503906 C 33.273438 14.6875 33.449219 14.804688 33.644531 14.808594 C 33.839844 14.808594 34.011719 14.6875 34.085938 14.507812 L 34.910156 12.453125 L 38.21875 13.796875 L 37.445312 15.722656 C 37.371094 15.90625 37.417969 16.117188 37.5625 16.25 C 37.707031 16.386719 37.917969 16.417969 38.09375 16.328125 L 39.898438 15.441406 L 41.464844 18.664062 L 38.703125 20.023438 C 38.539062 20.101562 38.4375 20.273438 38.4375 20.453125 C 38.4375 20.636719 38.542969 20.804688 38.710938 20.882812 L 41.488281 22.203125 Z M 42.324219 21.542969 L 40.007812 20.445312 L 42.308594 19.3125 C 42.542969 19.199219 42.640625 18.910156 42.527344 18.675781 L 40.542969 14.59375 C 40.488281 14.480469 40.390625 14.394531 40.273438 14.351562 C 40.152344 14.3125 40.023438 14.320312 39.910156 14.375 L 38.789062 14.925781 L 39.277344 13.714844 C 39.375 13.46875 39.257812 13.191406 39.011719 13.089844 L 34.824219 11.390625 C 34.582031 11.292969 34.304688 11.410156 34.207031 11.65625 L 33.652344 13.042969 L 33.105469 11.648438 C 33.007812 11.40625 32.730469 11.285156 32.488281 11.382812 L 28.289062 13.046875 C 28.171875 13.09375 28.074219 13.1875 28.027344 13.300781 C 27.976562 13.417969 27.972656 13.550781 28.019531 13.667969 L 28.546875 15.011719 L 27.25 14.394531 C 27.132812 14.339844 27.003906 14.335938 26.886719 14.375 C 26.765625 14.421875 26.671875 14.507812 26.617188 14.625 L 24.691406 18.730469 C 24.578125 18.96875 24.679688 19.253906 24.917969 19.367188 L 27.378906 20.53125 L 24.933594 21.734375 C 24.699219 21.847656 24.601562 22.132812 24.714844 22.371094 L 26.699219 26.453125 C 26.8125 26.6875 27.097656 26.785156 27.332031 26.671875 L 28.382812 26.15625 L 27.964844 27.195312 C 27.917969 27.3125 27.921875 27.445312 27.96875 27.5625 C 28.019531 27.675781 28.113281 27.769531 28.230469 27.816406 L 32.417969 29.519531 C 32.535156 29.566406 32.664062 29.5625 32.78125 29.515625 C 32.894531 29.464844 32.988281 29.371094 33.035156 29.253906 L 33.59375 27.867188 L 34.136719 29.257812 C 34.210938 29.445312 34.390625 29.5625 34.582031 29.5625 C 34.636719 29.5625 34.695312 29.550781 34.753906 29.527344 L 38.953125 27.859375 C 39.199219 27.761719 39.320312 27.484375 39.222656 27.242188 L 38.695312 25.898438 L 39.992188 26.515625 C 40.109375 26.566406 40.238281 26.574219 40.355469 26.53125 C 40.476562 26.488281 40.570312 26.398438 40.625 26.285156 L 42.550781 22.175781 C 42.664062 21.9375 42.5625 21.652344 42.324219 21.542969 " fill-opacity="1" fill-rule="nonzero"/><g clip-path="url(#fb71b029b7)"><path fill="#ffffff" d="M 33.3125 10.320312 C 27.71875 10.320312 23.1875 14.855469 23.1875 20.445312 C 23.1875 26.039062 27.71875 30.570312 33.3125 30.570312 C 38.902344 30.570312 43.4375 26.039062 43.4375 20.445312 C 43.4375 14.855469 38.902344 10.320312 33.3125 10.320312 " fill-opacity="1" fill-rule="nonzero"/></g><path stroke-linecap="butt" transform="matrix(0.0083004, 0, 0, -0.0083004, 16.00161, 38.671325)" fill="none" stroke-linejoin="round" d="M 2126.022607 3150.197977 L 2126.022607 1147.281281 " stroke="#224c8d" stroke-width="50" stroke-opacity="1" stroke-miterlimit="10"/><path stroke-linecap="butt" transform="matrix(0.0083004, 0, 0, -0.0083004, 16.00161, 38.671325)" fill="none" stroke-linejoin="round" d="M 1124.564259 2148.739629 L 3127.480955 2148.739629 " stroke="#224c8d" stroke-width="50" stroke-opacity="1" stroke-miterlimit="10"/><path stroke-linecap="butt" transform="matrix(0.0083004, 0, 0, -0.0083004, 16.00161, 38.671325)" fill-opacity="1" fill="#8b7eff" fill-rule="nonzero" stroke-linejoin="round" d="M 1417.754367 1440.47139 L 2834.290847 2857.007869 " stroke="#224c8d" stroke-width="50" stroke-opacity="1" stroke-miterlimit="10"/><path stroke-linecap="butt" transform="matrix(0.0083004, 0, 0, -0.0083004, 16.00161, 38.671325)" fill-opacity="1" fill="#8b7eff" fill-rule="nonzero" stroke-linejoin="round" d="M 1417.754367 2857.007869 L 2834.290847 1440.47139 " stroke="#224c8d" stroke-width="50" stroke-opacity="1" stroke-miterlimit="10"/><path fill="#8b7eff" d="M 33.648438 27.144531 C 30.265625 27.144531 27.515625 24.390625 27.515625 21.011719 C 27.515625 17.628906 30.265625 14.878906 33.648438 14.878906 C 37.03125 14.878906 39.78125 17.628906 39.78125 21.011719 C 39.78125 24.390625 37.03125 27.144531 33.648438 27.144531 " fill-opacity="1" fill-rule="nonzero"/><path fill="#5648cc" d="M 33.648438 14.667969 C 30.152344 14.667969 27.308594 17.511719 27.308594 21.011719 C 27.308594 24.507812 30.152344 27.351562 33.648438 27.351562 C 37.144531 27.351562 39.988281 24.507812 39.988281 21.011719 C 39.988281 17.511719 37.144531 14.667969 33.648438 14.667969 Z M 33.648438 15.085938 C 36.921875 15.085938 39.574219 17.738281 39.574219 21.011719 C 39.574219 24.28125 36.921875 26.933594 33.648438 26.933594 C 30.375 26.933594 27.722656 24.28125 27.722656 21.011719 C 27.722656 17.738281 30.375 15.085938 33.648438 15.085938 " fill-opacity="1" fill-rule="nonzero"/><g clip-path="url(#c06ab9572b)"><path fill="#8b7eff" d="M 32.632812 11.507812 C 32.632812 10.945312 33.085938 10.488281 33.648438 10.488281 C 34.210938 10.488281 34.664062 10.945312 34.664062 11.507812 C 34.664062 12.070312 34.210938 12.523438 33.648438 12.523438 C 33.085938 12.523438 32.632812 12.070312 32.632812 11.507812 " fill-opacity="1" fill-rule="nonzero"/><path stroke-linecap="butt" transform="matrix(0.0083004, 0, 0, -0.0083004, 16.00161, 38.671325)" fill="none" stroke-linejoin="round" d="M 2003.663974 3272.55661 C 2003.663974 3340.324468 2058.254749 3395.385853 2126.022607 3395.385853 C 2193.790465 3395.385853 2248.38124 3340.324468 2248.38124 3272.55661 C 2248.38124 3204.788752 2193.790465 3150.197977 2126.022607 3150.197977 C 2058.254749 3150.197977 2003.663974 3204.788752 2003.663974 3272.55661 Z M 2003.663974 3272.55661 " stroke="#224c8d" stroke-width="50" stroke-opacity="1" stroke-miterlimit="10"/></g><g clip-path="url(#2bdf62b6a2)"><path fill="#8b7eff" d="M 32.632812 30.058594 C 32.632812 29.496094 33.085938 29.042969 33.648438 29.042969 C 34.210938 29.042969 34.664062 29.496094 34.664062 30.058594 C 34.664062 30.621094 34.210938 31.074219 33.648438 31.074219 C 33.085938 31.074219 32.632812 30.621094 32.632812 30.058594 " fill-opacity="1" fill-rule="nonzero"/></g><g clip-path="url(#0388fe7d10)"><path stroke-linecap="butt" transform="matrix(0.0083004, 0, 0, -0.0083004, 16.00161, 38.671325)" fill="none" stroke-linejoin="round" d="M 2003.663974 1037.629122 C 2003.663974 1105.39698 2058.254749 1159.987754 2126.022607 1159.987754 C 2193.790465 1159.987754 2248.38124 1105.39698 2248.38124 1037.629122 C 2248.38124 969.861263 2193.790465 915.270489 2126.022607 915.270489 C 2058.254749 915.270489 2003.663974 969.861263 2003.663974 1037.629122 Z M 2003.663974 1037.629122 " stroke="#224c8d" stroke-width="50" stroke-opacity="1" stroke-miterlimit="10"/></g><path fill="#8b7eff" d="M 42.925781 19.765625 C 43.484375 19.765625 43.941406 20.222656 43.941406 20.78125 C 43.941406 21.34375 43.484375 21.800781 42.925781 21.800781 C 42.363281 21.800781 41.90625 21.34375 41.90625 20.78125 C 41.90625 20.222656 42.363281 19.765625 42.925781 19.765625 " fill-opacity="1" fill-rule="nonzero"/><g clip-path="url(#a15e4d32d1)"><path stroke-linecap="butt" transform="matrix(0.0083004, 0, 0, -0.0083004, 16.00161, 38.671325)" fill="none" stroke-linejoin="round" d="M 3243.721656 2277.686804 C 3311.018904 2277.686804 3366.080289 2222.625419 3366.080289 2155.328171 C 3366.080289 2087.560313 3311.018904 2032.498928 3243.721656 2032.498928 C 3175.953798 2032.498928 3120.892413 2087.560313 3120.892413 2155.328171 C 3120.892413 2222.625419 3175.953798 2277.686804 3243.721656 2277.686804 Z M 3243.721656 2277.686804 " stroke="#224c8d" stroke-width="50" stroke-opacity="1" stroke-miterlimit="10"/></g><g clip-path="url(#23ead170f1)"><path fill="#8b7eff" d="M 24.371094 19.765625 C 24.933594 19.765625 25.390625 20.222656 25.390625 20.78125 C 25.390625 21.34375 24.933594 21.800781 24.371094 21.800781 C 23.8125 21.800781 23.355469 21.34375 23.355469 20.78125 C 23.355469 20.222656 23.8125 19.765625 24.371094 19.765625 " fill-opacity="1" fill-rule="nonzero"/></g><g clip-path="url(#2496c85621)"><path stroke-linecap="butt" transform="matrix(0.0083004, 0, 0, -0.0083004, 16.00161, 38.671325)" fill="none" stroke-linejoin="round" d="M 1008.323558 2277.686804 C 1076.091416 2277.686804 1131.152801 2222.625419 1131.152801 2155.328171 C 1131.152801 2087.560313 1076.091416 2032.498928 1008.323558 2032.498928 C 941.02631 2032.498928 885.964925 2087.560313 885.964925 2155.328171 C 885.964925 2222.625419 941.02631 2277.686804 1008.323558 2277.686804 Z M 1008.323558 2277.686804 " stroke="#224c8d" stroke-width="50" stroke-opacity="1" stroke-miterlimit="10"/></g><path fill="#8b7eff" d="M 39.488281 13.503906 C 39.886719 13.109375 40.527344 13.109375 40.925781 13.503906 C 41.324219 13.902344 41.324219 14.546875 40.925781 14.941406 C 40.527344 15.339844 39.886719 15.339844 39.488281 14.941406 C 39.089844 14.546875 39.089844 13.902344 39.488281 13.503906 " fill-opacity="1" fill-rule="nonzero"/><path stroke-linecap="butt" transform="matrix(0.0083004, 0, 0, -0.0083004, 16.00161, 38.671325)" fill="none" stroke-linejoin="round" d="M 2829.584745 3032.074836 C 2877.586978 3079.606458 2954.767039 3079.606458 3002.769272 3032.074836 C 3050.771505 2984.072603 3050.771505 2906.421932 3002.769272 2858.890309 C 2954.767039 2810.888076 2877.586978 2810.888076 2829.584745 2858.890309 C 2781.582513 2906.421932 2781.582513 2984.072603 2829.584745 3032.074836 Z M 2829.584745 3032.074836 " stroke="#224c8d" stroke-width="50" stroke-opacity="1" stroke-miterlimit="10"/><path fill="#8b7eff" d="M 26.371094 26.621094 C 26.765625 26.226562 27.410156 26.226562 27.808594 26.621094 C 28.207031 27.019531 28.207031 27.664062 27.808594 28.058594 C 27.410156 28.457031 26.765625 28.457031 26.371094 28.058594 C 25.972656 27.664062 25.972656 27.019531 26.371094 26.621094 " fill-opacity="1" fill-rule="nonzero"/><path stroke-linecap="butt" transform="matrix(0.0083004, 0, 0, -0.0083004, 16.00161, 38.671325)" fill="none" stroke-linejoin="round" d="M 1249.275942 1451.766033 C 1296.807565 1499.297655 1374.458236 1499.297655 1422.460469 1451.766033 C 1470.462702 1403.7638 1470.462702 1326.113129 1422.460469 1278.581506 C 1374.458236 1230.579273 1296.807565 1230.579273 1249.275942 1278.581506 C 1201.273709 1326.113129 1201.273709 1403.7638 1249.275942 1451.766033 Z M 1249.275942 1451.766033 " stroke="#224c8d" stroke-width="50" stroke-opacity="1" stroke-miterlimit="10"/><path fill="#8b7eff" d="M 26.371094 14.941406 C 25.972656 14.546875 25.972656 13.902344 26.371094 13.503906 C 26.765625 13.109375 27.410156 13.109375 27.808594 13.503906 C 28.207031 13.902344 28.207031 14.546875 27.808594 14.941406 C 27.410156 15.339844 26.765625 15.339844 26.371094 14.941406 " fill-opacity="1" fill-rule="nonzero"/><path stroke-linecap="butt" transform="matrix(0.0083004, 0, 0, -0.0083004, 16.00161, 38.671325)" fill="none" stroke-linejoin="round" d="M 1249.275942 2858.890309 C 1201.273709 2906.421932 1201.273709 2984.072603 1249.275942 3032.074836 C 1296.807565 3079.606458 1374.458236 3079.606458 1422.460469 3032.074836 C 1470.462702 2984.072603 1470.462702 2906.421932 1422.460469 2858.890309 C 1374.458236 2810.888076 1296.807565 2810.888076 1249.275942 2858.890309 Z M 1249.275942 2858.890309 " stroke="#224c8d" stroke-width="50" stroke-opacity="1" stroke-miterlimit="10"/><path fill="#8b7eff" d="M 39.488281 28.058594 C 39.089844 27.664062 39.089844 27.019531 39.488281 26.621094 C 39.886719 26.226562 40.527344 26.226562 40.925781 26.621094 C 41.324219 27.019531 41.324219 27.664062 40.925781 28.058594 C 40.527344 28.457031 39.886719 28.457031 39.488281 28.058594 " fill-opacity="1" fill-rule="nonzero"/><path stroke-linecap="butt" transform="matrix(0.0083004, 0, 0, -0.0083004, 16.00161, 38.671325)" fill="none" stroke-linejoin="round" d="M 2829.584745 1278.581506 C 2781.582513 1326.113129 2781.582513 1403.7638 2829.584745 1451.766033 C 2877.586978 1499.297655 2954.767039 1499.297655 3002.769272 1451.766033 C 3050.771505 1403.7638 3050.771505 1326.113129 3002.769272 1278.581506 C 2954.767039 1230.579273 2877.586978 1230.579273 2829.584745 1278.581506 Z M 2829.584745 1278.581506 " stroke="#224c8d" stroke-width="50" stroke-opacity="1" stroke-miterlimit="10"/><path fill="#8b7eff" d="M 33.648438 25.71875 C 31.0625 25.71875 28.960938 23.617188 28.960938 21.03125 C 28.960938 18.449219 31.0625 16.347656 33.648438 16.347656 C 36.230469 16.347656 38.335938 18.449219 38.335938 21.03125 C 38.335938 23.617188 36.230469 25.71875 33.648438 25.71875 " fill-opacity="1" fill-rule="nonzero"/><path fill="#5648cc" d="M 33.648438 16.140625 C 30.949219 16.140625 28.753906 18.335938 28.753906 21.03125 C 28.753906 23.730469 30.949219 25.925781 33.648438 25.925781 C 36.347656 25.925781 38.542969 23.730469 38.542969 21.03125 C 38.542969 18.335938 36.347656 16.140625 33.648438 16.140625 Z M 33.648438 16.554688 C 36.121094 16.554688 38.128906 18.558594 38.128906 21.03125 C 38.128906 23.507812 36.121094 25.511719 33.648438 25.511719 C 31.175781 25.511719 29.167969 23.507812 29.167969 21.03125 C 29.167969 18.558594 31.175781 16.554688 33.648438 16.554688 " fill-opacity="1" fill-rule="nonzero"/><path stroke-linecap="butt" transform="matrix(0.0083004, 0, 0, -0.0083004, 16.00161, 38.671325)" fill="none" stroke-linejoin="round" d="M 2399.9177 2125.209123 C 2399.9177 1826.842303 2277.088458 1585.419308 2126.022607 1585.419308 C 1974.956757 1585.419308 1852.127514 1826.842303 1852.127514 2125.209123 C 1852.127514 2423.105333 1974.956757 2664.528327 2126.022607 2664.528327 C 2277.088458 2664.528327 2399.9177 2423.105333 2399.9177 2125.209123 Z M 2399.9177 2125.209123 " stroke="#224c8d" stroke-width="50" stroke-opacity="1" stroke-miterlimit="10"/><path stroke-linecap="butt" transform="matrix(0.0083004, 0, 0, -0.0083004, 16.00161, 38.671325)" fill="none" stroke-linejoin="round" d="M 2126.022607 1851.31403 C 1828.126397 1851.31403 1586.232793 1973.672662 1586.232793 2125.209123 C 1586.232793 2276.274973 1828.126397 2398.633606 2126.022607 2398.633606 C 2423.918817 2398.633606 2665.812422 2276.274973 2665.812422 2125.209123 C 2665.812422 1973.672662 2423.918817 1851.31403 2126.022607 1851.31403 Z M 2126.022607 1851.31403 " stroke="#224c8d" stroke-width="50" stroke-opacity="1" stroke-miterlimit="10"/><path stroke-linecap="butt" transform="matrix(0.0083004, 0, 0, -0.0083004, 16.00161, 38.671325)" fill="none" stroke-linejoin="round" d="M 2126.022607 2664.528327 L 2126.022607 1585.419308 " stroke="#224c8d" stroke-width="50" stroke-opacity="1" stroke-miterlimit="10"/><path stroke-linecap="butt" transform="matrix(0.0083004, 0, 0, -0.0083004, 16.00161, 38.671325)" fill="none" stroke-linejoin="round" d="M 1586.232793 2125.209123 L 2665.812422 2125.209123 " stroke="#224c8d" stroke-width="50" stroke-opacity="1" stroke-miterlimit="10"/><path stroke-linecap="butt" transform="matrix(0.29735, -0.701486, 0.690525, 0.292704, 24.933937, 20.007856)" fill="none" stroke-linejoin="miter" d="M -0.000123358 -0.000443711 L 6.889467 0.00268955 " stroke="#184989" stroke-width="1" stroke-opacity="1" stroke-miterlimit="4"/><path stroke-linecap="butt" transform="matrix(0.29735, -0.701486, 0.690525, 0.292704, 41.168594, 26.698694)" fill="none" stroke-linejoin="miter" d="M -0.000954482 -0.000494312 L 6.893356 0.00060628 " stroke="#184989" stroke-width="1" stroke-opacity="1" stroke-miterlimit="4"/><path stroke-linecap="butt" transform="matrix(0.702625, -0.294647, 0.290043, 0.691647, 28.102662, 13.740696)" fill="none" stroke-linejoin="miter" d="M -0.00208855 0.00126703 L 6.89171 0.00124566 " stroke="#184989" stroke-width="1" stroke-opacity="1" stroke-miterlimit="4"/><path stroke-linecap="butt" transform="matrix(0.702625, -0.294647, 0.290043, 0.691647, 34.951381, 30.262797)" fill="none" stroke-linejoin="miter" d="M 0.00265741 -0.000426242 L 6.891728 -0.0024618 " stroke="#184989" stroke-width="1" stroke-opacity="1" stroke-miterlimit="4"/><path stroke-linecap="butt" transform="matrix(0.695891, 0.310217, -0.305369, 0.685018, 34.777833, 11.738769)" fill="none" stroke-linejoin="miter" d="M -0.000847078 -0.000329052 L 6.891412 -0.00233517 " stroke="#184989" stroke-width="1" stroke-opacity="1" stroke-miterlimit="4"/><path stroke-linecap="butt" transform="matrix(0.695891, 0.310217, -0.305369, 0.685018, 27.968363, 28.26087)" fill="none" stroke-linejoin="miter" d="M 0.000917025 0.000823423 L 6.893176 -0.0011827 " stroke="#184989" stroke-width="1" stroke-opacity="1" stroke-miterlimit="4"/><path stroke-linecap="butt" transform="matrix(0.320411, 0.691257, -0.680456, 0.315404, 40.759483, 15.261205)" fill="none" stroke-linejoin="miter" d="M -0.000310453 0.00230808 L 6.890277 -0.00227541 " stroke="#184989" stroke-width="1" stroke-opacity="1" stroke-miterlimit="4"/><path stroke-linecap="butt" transform="matrix(0.320411, 0.691257, -0.680456, 0.315404, 24.372612, 21.952029)" fill="none" stroke-linejoin="miter" d="M 0.000467171 0.00245165 L 6.891055 -0.00213184 " stroke="#184989" stroke-width="1" stroke-opacity="1" stroke-miterlimit="4"/><path stroke-linecap="round" transform="matrix(0.729114, 0, 0, 0.75, 29.101499, 42.42427)" fill="none" stroke-linejoin="miter" d="M 0.498338 0.00201491 L 11.856303 0.00201491 " stroke="#5648cc" stroke-width="1" stroke-opacity="1" stroke-miterlimit="4"/><g clip-path="url(#cafd36b684)"><path stroke-linecap="round" transform="matrix(0.739726, 0, 0, 0.75, 30.310174, 43.634797)" fill="none" stroke-linejoin="miter" d="M 0.499528 0.00256273 L 8.631763 0.00256273 " stroke="#5648cc" stroke-width="1" stroke-opacity="1" stroke-miterlimit="4"/></g><g clip-path="url(#1a9747ce02)"><path stroke-linecap="round" transform="matrix(0.744186, 0, 0, 0.75, 31.464561, 44.668056)" fill="none" stroke-linejoin="miter" d="M 0.499037 -0.000116998 L 5.553847 -0.000116998 " stroke="#5648cc" stroke-width="1" stroke-opacity="1" stroke-miterlimit="4"/></g><g clip-path="url(#060361eed2)"><path fill="#8b7eff" d="M 33.679688 15.820312 C 30.78125 15.820312 28.429688 18.171875 28.429688 21.070312 C 28.429688 23.96875 30.78125 26.320312 33.679688 26.320312 C 36.582031 26.320312 38.929688 23.96875 38.929688 21.070312 C 38.929688 18.171875 36.582031 15.820312 33.679688 15.820312 " fill-opacity="1" fill-rule="nonzero"/></g><g fill="#000000" fill-opacity="0.4"><g transform="translate(30.71854, 23.532833)"><g><path d="M 0.125 0 L 1.25 -4.625 L 2.109375 -4.625 L 3.234375 0 L 2.640625 0 L 2.34375 -1.1875 L 1.03125 -1.1875 L 0.734375 0 Z M 1.125 -1.65625 L 2.25 -1.65625 L 1.703125 -3.96875 L 1.671875 -3.96875 Z M 1.125 -1.65625 "/></g></g></g><g fill="#000000" fill-opacity="0.4"><g transform="translate(34.092126, 23.532833)"><g><path d="M 0.46875 0 L 0.46875 -4.625 L 1.0625 -4.625 L 1.0625 -2.375 L 2.34375 -4.625 L 3.046875 -4.625 L 1.6875 -2.34375 L 3.171875 0 L 2.484375 0 L 1.0625 -2.3125 L 1.0625 0 Z M 0.46875 0 "/></g></g></g><g fill="#224c8d" fill-opacity="1"><g transform="translate(30.426158, 23.24045)"><g><path d="M 0.125 0 L 1.25 -4.625 L 2.109375 -4.625 L 3.234375 0 L 2.640625 0 L 2.34375 -1.1875 L 1.03125 -1.1875 L 0.734375 0 Z M 1.125 -1.65625 L 2.25 -1.65625 L 1.703125 -3.96875 L 1.671875 -3.96875 Z M 1.125 -1.65625 "/></g></g></g><g fill="#224c8d" fill-opacity="1"><g transform="translate(33.799743, 23.24045)"><g><path d="M 0.46875 0 L 0.46875 -4.625 L 1.0625 -4.625 L 1.0625 -2.375 L 2.34375 -4.625 L 3.046875 -4.625 L 1.6875 -2.34375 L 3.171875 0 L 2.484375 0 L 1.0625 -2.3125 L 1.0625 0 Z M 0.46875 0 "/></g></g></g><g fill="#224c8d" fill-opacity="1"><g transform="translate(60.468391, 29.934426)"><g><path d="M 0.46875 0 L 4.46875 -16.4375 L 7.515625 -16.4375 L 11.5 0 L 9.390625 0 L 8.34375 -4.234375 L 3.640625 -4.234375 L 2.578125 0 Z M 4 -5.875 L 7.984375 -5.875 L 6.03125 -14.09375 L 5.9375 -14.09375 Z M 4 -5.875 "/></g></g></g><g fill="#224c8d" fill-opacity="1"><g transform="translate(72.445782, 29.934426)"><g><path d="M 1.53125 -11.75 L 3.28125 -11.75 L 3.40625 -11.03125 L 3.515625 -11.03125 C 3.816406 -11.332031 4.1875 -11.566406 4.625 -11.734375 C 5.0625 -11.898438 5.515625 -11.984375 5.984375 -11.984375 C 7.191406 -11.984375 8.097656 -11.726562 8.703125 -11.21875 C 9.316406 -10.707031 9.625 -9.785156 9.625 -8.453125 L 9.625 0 L 7.515625 0 L 7.515625 -8.453125 C 7.515625 -9.222656 7.316406 -9.765625 6.921875 -10.078125 C 6.535156 -10.398438 5.988281 -10.5625 5.28125 -10.5625 C 5 -10.5625 4.703125 -10.515625 4.390625 -10.421875 C 4.078125 -10.328125 3.828125 -10.21875 3.640625 -10.09375 L 3.640625 0 L 1.53125 0 Z M 1.53125 -11.75 "/></g></g></g><g fill="#224c8d" fill-opacity="1"><g transform="translate(83.60119, 29.934426)"><g><path d="M 4.578125 0.234375 C 3.421875 0.234375 2.546875 -0.0351562 1.953125 -0.578125 C 1.359375 -1.117188 1.0625 -2.097656 1.0625 -3.515625 C 1.0625 -4.898438 1.359375 -5.851562 1.953125 -6.375 C 2.546875 -6.894531 3.421875 -7.15625 4.578125 -7.15625 C 5.203125 -7.15625 5.984375 -7.078125 6.921875 -6.921875 L 6.921875 -7.984375 C 6.921875 -8.984375 6.710938 -9.660156 6.296875 -10.015625 C 5.890625 -10.378906 5.238281 -10.5625 4.34375 -10.5625 L 2 -10.5625 L 2 -11.5 C 2.375 -11.625 2.828125 -11.734375 3.359375 -11.828125 C 3.890625 -11.929688 4.375 -11.984375 4.8125 -11.984375 C 5.8125 -11.984375 6.613281 -11.867188 7.21875 -11.640625 C 7.820312 -11.421875 8.273438 -11.023438 8.578125 -10.453125 C 8.890625 -9.890625 9.046875 -9.066406 9.046875 -7.984375 L 9.046875 0 L 7.28125 0 L 7.15625 -0.703125 L 7.046875 -0.703125 C 6.742188 -0.410156 6.375 -0.179688 5.9375 -0.015625 C 5.5 0.148438 5.046875 0.234375 4.578125 0.234375 Z M 5.28125 -1.171875 C 5.5625 -1.171875 5.859375 -1.21875 6.171875 -1.3125 C 6.484375 -1.40625 6.734375 -1.515625 6.921875 -1.640625 L 6.921875 -5.75 L 5.28125 -5.75 C 4.625 -5.75 4.109375 -5.582031 3.734375 -5.25 C 3.359375 -4.914062 3.171875 -4.335938 3.171875 -3.515625 C 3.171875 -2.640625 3.359375 -2.03125 3.734375 -1.6875 C 4.109375 -1.34375 4.625 -1.171875 5.28125 -1.171875 Z M 5.28125 -1.171875 "/></g></g></g><g fill="#224c8d" fill-opacity="1"><g transform="translate(94.16947, 29.934426)"><g><path d="M 1.640625 0 L 1.640625 -16.4375 L 3.75 -16.4375 L 3.75 0 Z M 1.640625 0 "/></g></g></g><g fill="#224c8d" fill-opacity="1"><g transform="translate(99.571038, 29.934426)"><g><path d="M 4.9375 4.9375 C 4.5 4.9375 4.007812 4.890625 3.46875 4.796875 C 2.9375 4.703125 2.484375 4.59375 2.109375 4.46875 L 2.109375 3.515625 L 4.46875 3.515625 C 5.539062 3.515625 6.316406 3.226562 6.796875 2.65625 C 7.273438 2.09375 7.515625 1.085938 7.515625 -0.359375 C 6.734375 0.0351562 5.953125 0.234375 5.171875 0.234375 C 3.960938 0.234375 3.050781 -0.0195312 2.4375 -0.53125 C 1.832031 -1.039062 1.53125 -1.957031 1.53125 -3.28125 L 1.53125 -11.75 L 3.640625 -11.75 L 3.640625 -3.28125 C 3.640625 -2.519531 3.832031 -1.976562 4.21875 -1.65625 C 4.613281 -1.332031 5.164062 -1.171875 5.875 -1.171875 C 6.15625 -1.171875 6.453125 -1.21875 6.765625 -1.3125 C 7.078125 -1.40625 7.328125 -1.515625 7.515625 -1.640625 L 7.515625 -11.75 L 9.625 -11.75 L 9.625 -0.9375 C 9.625 0.550781 9.460938 1.71875 9.140625 2.5625 C 8.828125 3.40625 8.328125 4.007812 7.640625 4.375 C 6.960938 4.75 6.0625 4.9375 4.9375 4.9375 Z M 4.9375 4.9375 "/></g></g></g><g fill="#224c8d" fill-opacity="1"><g transform="translate(110.726446, 29.934426)"><g><path d="M 5.171875 0.234375 C 4.117188 0.234375 3.304688 -0.0507812 2.734375 -0.625 C 2.160156 -1.195312 1.875 -2.238281 1.875 -3.75 L 1.875 -9.984375 L 0.46875 -9.984375 L 0.46875 -11.5 L 1.875 -11.5 L 1.875 -14.328125 L 4 -14.328125 L 4 -11.5 L 7.28125 -11.5 L 7.28125 -10.453125 C 6.90625 -10.328125 6.453125 -10.21875 5.921875 -10.125 C 5.390625 -10.03125 4.90625 -9.984375 4.46875 -9.984375 L 4 -9.984375 L 4 -3.75 C 4 -2.800781 4.160156 -2.132812 4.484375 -1.75 C 4.816406 -1.363281 5.203125 -1.171875 5.640625 -1.171875 L 7.75 -1.171875 L 7.75 -0.234375 C 7.445312 -0.109375 7.03125 0 6.5 0.09375 C 5.96875 0.1875 5.523438 0.234375 5.171875 0.234375 Z M 5.171875 0.234375 "/></g></g></g><g fill="#224c8d" fill-opacity="1"><g transform="translate(118.828797, 29.934426)"><g><path d="M 1.640625 -13.390625 L 1.640625 -15.96875 L 3.75 -15.96875 L 3.75 -13.390625 Z M 1.640625 0 L 1.640625 -11.75 L 3.75 -11.75 L 3.75 0 Z M 1.640625 0 "/></g></g></g><g fill="#224c8d" fill-opacity="1"><g transform="translate(124.230365, 29.934426)"><g><path d="M 5.640625 0.234375 C 4.546875 0.234375 3.664062 0.046875 3 -0.328125 C 2.34375 -0.703125 1.851562 -1.332031 1.53125 -2.21875 C 1.21875 -3.101562 1.0625 -4.320312 1.0625 -5.875 C 1.0625 -7.425781 1.21875 -8.640625 1.53125 -9.515625 C 1.84375 -10.398438 2.3125 -11.03125 2.9375 -11.40625 C 3.5625 -11.789062 4.382812 -11.984375 5.40625 -11.984375 C 5.84375 -11.984375 6.328125 -11.929688 6.859375 -11.828125 C 7.390625 -11.734375 7.84375 -11.625 8.21875 -11.5 L 8.21875 -10.5625 L 5.875 -10.5625 C 5.25 -10.5625 4.742188 -10.425781 4.359375 -10.15625 C 3.972656 -9.882812 3.675781 -9.40625 3.46875 -8.71875 C 3.269531 -8.039062 3.171875 -7.09375 3.171875 -5.875 C 3.171875 -4.632812 3.273438 -3.671875 3.484375 -2.984375 C 3.691406 -2.304688 4.003906 -1.832031 4.421875 -1.5625 C 4.835938 -1.300781 5.398438 -1.171875 6.109375 -1.171875 L 8.453125 -1.171875 L 8.453125 -0.234375 C 8.078125 -0.109375 7.625 0 7.09375 0.09375 C 6.5625 0.1875 6.078125 0.234375 5.640625 0.234375 Z M 5.640625 0.234375 "/></g></g></g><g fill="#224c8d" fill-opacity="1"><g transform="translate(133.037272, 29.934426)"><g/></g></g><g fill="#224c8d" fill-opacity="1"><g transform="translate(138.908539, 29.934426)"><g><path d="M 1.640625 0 L 1.640625 -16.4375 L 3.75 -16.4375 L 3.75 -8.453125 L 8.34375 -16.4375 L 10.796875 -16.4375 L 5.984375 -8.34375 L 11.265625 0 L 8.8125 0 L 3.75 -8.21875 L 3.75 0 Z M 1.640625 0 "/></g></g></g><g fill="#224c8d" fill-opacity="1"><g transform="translate(150.41623, 29.934426)"><g><path d="M 1.640625 -13.390625 L 1.640625 -15.96875 L 3.75 -15.96875 L 3.75 -13.390625 Z M 1.640625 0 L 1.640625 -11.75 L 3.75 -11.75 L 3.75 0 Z M 1.640625 0 "/></g></g></g><g fill="#224c8d" fill-opacity="1"><g transform="translate(155.817798, 29.934426)"><g><path d="M 5.171875 0.234375 C 4.117188 0.234375 3.304688 -0.0507812 2.734375 -0.625 C 2.160156 -1.195312 1.875 -2.238281 1.875 -3.75 L 1.875 -9.984375 L 0.46875 -9.984375 L 0.46875 -11.5 L 1.875 -11.5 L 1.875 -14.328125 L 4 -14.328125 L 4 -11.5 L 7.28125 -11.5 L 7.28125 -10.453125 C 6.90625 -10.328125 6.453125 -10.21875 5.921875 -10.125 C 5.390625 -10.03125 4.90625 -9.984375 4.46875 -9.984375 L 4 -9.984375 L 4 -3.75 C 4 -2.800781 4.160156 -2.132812 4.484375 -1.75 C 4.816406 -1.363281 5.203125 -1.171875 5.640625 -1.171875 L 7.75 -1.171875 L 7.75 -0.234375 C 7.445312 -0.109375 7.03125 0 6.5 0.09375 C 5.96875 0.1875 5.523438 0.234375 5.171875 0.234375 Z M 5.171875 0.234375 "/></g></g></g><g fill="#224c8d" fill-opacity="1"><g transform="translate(163.920149, 29.934426)"><g/></g></g><g fill="#224c8d" fill-opacity="1"><g transform="translate(169.791417, 29.934426)"><g><path d="M 6.34375 0.234375 C 5.1875 0.234375 4.226562 -0.0195312 3.46875 -0.53125 C 2.71875 -1.039062 2.144531 -1.910156 1.75 -3.140625 C 1.363281 -4.378906 1.171875 -6.070312 1.171875 -8.21875 C 1.171875 -10.34375 1.363281 -12.023438 1.75 -13.265625 C 2.144531 -14.503906 2.695312 -15.378906 3.40625 -15.890625 C 4.125 -16.410156 5.023438 -16.671875 6.109375 -16.671875 C 6.765625 -16.671875 7.421875 -16.625 8.078125 -16.53125 C 8.734375 -16.4375 9.25 -16.328125 9.625 -16.203125 L 9.625 -15.140625 L 6.578125 -15.140625 C 5.523438 -15.140625 4.710938 -14.628906 4.140625 -13.609375 C 3.566406 -12.597656 3.28125 -10.800781 3.28125 -8.21875 C 3.28125 -6.445312 3.421875 -5.050781 3.703125 -4.03125 C 3.992188 -3.019531 4.394531 -2.3125 4.90625 -1.90625 C 5.425781 -1.5 6.0625 -1.296875 6.8125 -1.296875 L 9.859375 -1.296875 L 9.859375 -0.234375 C 9.484375 -0.109375 8.96875 0 8.3125 0.09375 C 7.664062 0.1875 7.007812 0.234375 6.34375 0.234375 Z M 6.34375 0.234375 "/></g></g></g><g fill="#224c8d" fill-opacity="1"><g transform="translate(180.007424, 29.934426)"><g><path d="M 1.640625 0 L 1.640625 -16.4375 L 3.75 -16.4375 L 3.75 0 Z M 1.640625 0 "/></g></g></g><g fill="#224c8d" fill-opacity="1"><g transform="translate(185.408992, 29.934426)"><g><path d="M 5.40625 0.234375 C 3.925781 0.234375 2.832031 -0.226562 2.125 -1.15625 C 1.414062 -2.09375 1.0625 -3.664062 1.0625 -5.875 C 1.0625 -8.082031 1.414062 -9.648438 2.125 -10.578125 C 2.832031 -11.515625 3.925781 -11.984375 5.40625 -11.984375 C 6.875 -11.984375 7.960938 -11.515625 8.671875 -10.578125 C 9.390625 -9.648438 9.75 -8.082031 9.75 -5.875 C 9.75 -3.664062 9.390625 -2.09375 8.671875 -1.15625 C 7.960938 -0.226562 6.875 0.234375 5.40625 0.234375 Z M 5.40625 -1.0625 C 6.0625 -1.0625 6.59375 -1.425781 7 -2.15625 C 7.414062 -2.894531 7.625 -4.132812 7.625 -5.875 C 7.625 -7.613281 7.414062 -8.847656 7 -9.578125 C 6.59375 -10.316406 6.0625 -10.6875 5.40625 -10.6875 C 4.75 -10.6875 4.210938 -10.316406 3.796875 -9.578125 C 3.378906 -8.847656 3.171875 -7.613281 3.171875 -5.875 C 3.171875 -4.132812 3.378906 -2.894531 3.796875 -2.15625 C 4.210938 -1.425781 4.75 -1.0625 5.40625 -1.0625 Z M 5.40625 -1.0625 "/></g></g></g><g fill="#224c8d" fill-opacity="1"><g transform="translate(196.212128, 29.934426)"><g><path d="M 5.171875 0.234375 C 3.960938 0.234375 3.050781 -0.0195312 2.4375 -0.53125 C 1.832031 -1.039062 1.53125 -1.957031 1.53125 -3.28125 L 1.53125 -11.75 L 3.640625 -11.75 L 3.640625 -3.28125 C 3.640625 -2.519531 3.832031 -1.976562 4.21875 -1.65625 C 4.613281 -1.332031 5.164062 -1.171875 5.875 -1.171875 C 6.15625 -1.171875 6.453125 -1.21875 6.765625 -1.3125 C 7.078125 -1.40625 7.328125 -1.515625 7.515625 -1.640625 L 7.515625 -11.75 L 9.625 -11.75 L 9.625 0 L 7.875 0 L 7.75 -0.703125 L 7.625 -0.703125 C 7.332031 -0.410156 6.96875 -0.179688 6.53125 -0.015625 C 6.09375 0.148438 5.640625 0.234375 5.171875 0.234375 Z M 5.171875 0.234375 "/></g></g></g><g fill="#224c8d" fill-opacity="1"><g transform="translate(207.367536, 29.934426)"><g><path d="M 4.9375 0.234375 C 3.632812 0.234375 2.660156 -0.21875 2.015625 -1.125 C 1.378906 -2.03125 1.0625 -3.613281 1.0625 -5.875 C 1.0625 -8.125 1.378906 -9.703125 2.015625 -10.609375 C 2.660156 -11.523438 3.632812 -11.984375 4.9375 -11.984375 C 5.71875 -11.984375 6.5 -11.785156 7.28125 -11.390625 L 7.28125 -16.4375 L 9.390625 -16.4375 L 9.390625 0 L 7.625 0 L 7.515625 -0.703125 L 7.390625 -0.703125 C 7.097656 -0.410156 6.734375 -0.179688 6.296875 -0.015625 C 5.859375 0.148438 5.40625 0.234375 4.9375 0.234375 Z M 5.640625 -1.171875 C 5.921875 -1.171875 6.21875 -1.21875 6.53125 -1.3125 C 6.84375 -1.40625 7.09375 -1.515625 7.28125 -1.640625 L 7.28125 -10.09375 C 7.09375 -10.21875 6.84375 -10.328125 6.53125 -10.421875 C 6.21875 -10.515625 5.921875 -10.5625 5.640625 -10.5625 C 4.804688 -10.5625 4.1875 -10.222656 3.78125 -9.546875 C 3.375 -8.867188 3.171875 -7.644531 3.171875 -5.875 C 3.171875 -4.101562 3.375 -2.875 3.78125 -2.1875 C 4.1875 -1.507812 4.804688 -1.171875 5.640625 -1.171875 Z M 5.640625 -1.171875 "/></g></g></g></svg>